<?xml version="1.0" standalone="no"?>
<!DOCTYPE svg PUBLIC "-//W3C//DTD SVG 1.1//EN" "http://www.w3.org/Graphics/SVG/1.1/DTD/svg11.dtd" >
<svg xmlns="http://www.w3.org/2000/svg" xmlns:xlink="http://www.w3.org/1999/xlink" version="1.1">
<metadata></metadata>
<defs>
<font id="itclegacyserif_lt_bookbold" horiz-adv-x="1062" >
<font-face units-per-em="2048" ascent="1638" descent="-410" />
<missing-glyph horiz-adv-x="460" />
<glyph horiz-adv-x="0" />
<glyph unicode="&#xd;" horiz-adv-x="460" />
<glyph unicode=" "  horiz-adv-x="460" />
<glyph unicode="&#x09;" horiz-adv-x="460" />
<glyph unicode="&#xa0;" horiz-adv-x="460" />
<glyph unicode="!" horiz-adv-x="757" d="M211 137q0 29 15.5 58.5t40 54t55 40t59.5 15.5q27 0 55.5 -16.5t51 -41t37 -54t14.5 -56.5q0 -31 -16.5 -60.5t-41 -51t-53.5 -35t-53 -13.5q-29 0 -57.5 14.5t-52 37t-39 51t-15.5 57.5zM231 1233q0 47 22.5 67.5t68.5 28.5q8 2 30.5 5t48 6t51 6.5t42.5 3.5 q29 0 44 -10.5t23 -25t9 -32t1 -31.5q0 -25 -8 -63.5t-28 -118.5q-43 -162 -71 -329t-46 -332q-4 -27 -6 -32t-15 -7q-2 -2 -16 -3t-25 -1q-14 0 -17 11t-7 58q-12 162 -30.5 305.5t-35.5 237.5q-12 76 -19 119t-10.5 68.5t-4.5 39t-1 29.5z" />
<glyph unicode="&#x22;" horiz-adv-x="1138" d="M285 1225q0 25 3 43t16 29.5t42 17.5t80 6q57 0 71.5 -23.5t14.5 -58.5q0 -25 -2 -48.5t-7 -52t-12.5 -64.5t-17.5 -87q-6 -37 -11 -64.5t-9 -53t-7.5 -53.5t-7.5 -62q-2 -25 -4 -31t-6 -8q-10 -4 -29 -4h-24q-16 0 -19.5 8t-7.5 47q0 8 -3 38t-8 69.5t-12.5 87 t-15.5 90.5q-8 45 -13 71.5t-7 45t-3 30.5t-1 27zM625 1225q0 25 3 43t16 29.5t42 17.5t80 6q59 0 73.5 -23.5t14.5 -58.5q0 -25 -2 -48.5t-7 -52t-12.5 -64.5t-17.5 -87q-8 -37 -13 -64.5t-8 -53t-6.5 -53.5t-7.5 -62q-4 -25 -5 -31t-5 -8q-10 -4 -31 -4h-24q-16 0 -18.5 8 t-6.5 47q0 8 -4 38t-9 69.5t-12.5 87t-15.5 90.5q-8 45 -13 71.5t-7 45t-3 30.5t-1 27z" />
<glyph unicode="#" d="M-33 385q0 6 5 21.5t11.5 33t11.5 31.5t7 21q16 43 21.5 53t19.5 10l211 -2q4 14 12 48t18.5 71t18.5 70.5t12 45.5q-12 0 -43.5 -1t-66.5 -2t-65.5 -2t-43.5 -1q-18 0 -18 13q0 2 6 21.5t14 42t15.5 44t9.5 27.5q10 29 14 34t19 5l206 -2q6 18 17.5 65t25 99.5 t24.5 98.5t15 64q4 12 16.5 14.5t61.5 2.5q29 0 35 -2t6 -13l-6 -24q-6 -23 -15.5 -57.5t-19.5 -75.5t-19 -78t-16.5 -63.5t-7.5 -30.5h256q4 20 16.5 67t24.5 99.5t24.5 97.5t16.5 63q4 12 16.5 14.5t59.5 2.5q29 0 36 -2t7 -13q0 -4 -11.5 -48t-26.5 -100t-28.5 -108.5 t-19.5 -70.5h31h61q33 0 61.5 1t34.5 1q33 0 39 -2t6 -8q0 -2 -7 -28t-17 -57.5t-19.5 -59.5t-15.5 -30q-4 -2 -35 -2h-69q-37 0 -71 1t-44 1q-12 -41 -18.5 -66.5t-12.5 -48t-13 -49t-18 -67.5h97q57 0 96 2q35 0 40 -2t5 -8q0 -2 -7 -27.5t-17.5 -56.5t-19.5 -56.5 t-15 -27.5q-4 -2 -35 -2h-70q-37 0 -71.5 1t-47.5 1q-23 -88 -45 -175t-45 -175q-4 -23 -8 -28t-18 -5h-60q-27 0 -33 1t-6 7l7 26q6 25 16 63t22.5 83t22.5 87t18.5 74t12.5 44h-256q-23 -80 -45.5 -173t-44.5 -185q-6 -20 -10.5 -23.5t-16.5 -3.5h-59q-27 0 -33 1t-6 7 q0 2 6 26.5t16 63.5t22.5 84t23.5 87t19.5 74t10.5 42q-12 0 -45 -1t-69 -2t-66.5 -2t-42.5 -1q-18 0 -19 10zM371 553h256q2 12 11 46t18.5 71t18.5 70.5t13 47.5h-72h-53h-55h-76q-14 -51 -32.5 -120.5t-28.5 -114.5z" />
<glyph unicode="$" d="M70 387q0 18 9 29.5t21.5 17.5t22.5 7t12 1q14 0 18.5 -8t12.5 -39q12 -43 29.5 -89t51.5 -84t91 -62.5t151 -26.5l3 416q-80 31 -152 63.5t-125 74.5t-85 100.5t-32 142.5q0 37 8.5 77t30 78.5t56 73.5t90.5 64q49 23 96 34t106 17q0 12 -1 40.5t-3 60.5t-3 59.5 t-1 38.5q0 10 6 12t33 2h47q14 0 15 -14v-41q0 -27 -1.5 -58t-2.5 -57.5t-1 -36.5q29 0 66 -1t84 -7q6 0 21.5 -2t32 -4t30.5 -4t20 -2t23.5 4t21.5 4q16 0 17 -19q0 -86 6 -174q0 -6 2 -24.5l4 -37t4 -34.5t2 -21q0 -20 -25.5 -26t-37.5 -6q-14 0 -19.5 10t-17.5 53 q-29 98 -81 135t-153 45l-2 -381q90 -35 168 -68.5t135.5 -77.5t90 -102.5t32.5 -144.5q0 -98 -52 -187t-154 -136q-43 -20 -94.5 -31.5t-123.5 -15.5l2 -244q0 -18 -16 -19q-53 0 -64.5 1t-11.5 12l6 248q-27 0 -60.5 2t-90.5 6q-8 0 -28.5 3t-44 6t-43 6t-27.5 3 q-20 0 -31.5 -10t-30.5 -10q-14 0 -20.5 8t-10.5 47q-4 23 -9 70t-10 96t-9 88t-4 49zM346 1008q0 -41 15.5 -72t37 -52.5t47 -37t46.5 -27.5v158l-3 188q-16 -4 -40.5 -11t-47 -24.5t-39 -47t-16.5 -74.5zM571 334q0 -86 2 -195q12 2 37 11.5t51.5 29t46 53t19.5 89.5 q0 45 -16.5 77.5t-41 56t-51.5 38t-47 24.5v-184z" />
<glyph unicode="%" horiz-adv-x="1554" d="M61 981q0 84 28 147.5t74 106.5t108.5 64.5t134.5 21.5q90 0 149 -33t94 -81t48.5 -104t13.5 -104q0 -80 -27 -143t-75 -108.5t-112.5 -69t-138.5 -23.5q-55 0 -109 18.5t-95 57.5t-67 101.5t-26 148.5zM264 1049q0 -23 3 -75t17.5 -105.5t42 -94.5t76.5 -41 q33 0 52.5 17.5t31 46t15.5 63.5t4 72q0 33 -5 86t-20.5 103t-44 86t-74.5 36q-35 0 -54 -22.5t-29.5 -54t-12.5 -64.5t-2 -53zM356 0q12 20 48 80.5t85.5 147.5t108.5 193.5t120.5 217.5t121 218.5t108.5 197.5t83 154.5t46 88.5h121q-16 -27 -37.5 -61.5t-43 -72.5 t-44 -77.5t-43.5 -76.5q-45 -80 -99 -177.5t-109.5 -196.5t-106.5 -192.5t-92 -167.5q-39 -70 -62.5 -113.5t-39 -72.5t-25 -48t-17.5 -42h-123zM844 311q0 82 26.5 145.5t73.5 106.5t109.5 65.5t136.5 22.5q92 0 151.5 -33.5t93 -83t47 -104.5t13.5 -100 q0 -80 -27.5 -144.5t-74.5 -108.5t-111.5 -67.5t-138.5 -23.5q-55 0 -108.5 18.5t-96.5 57t-68.5 100t-25.5 149.5zM1049 377q0 -23 3 -74t17 -104.5t42 -94.5t77 -41q33 0 52.5 17.5t30.5 45.5t15 62.5t4 71.5q0 29 -4 82t-19.5 104.5t-44 89t-75.5 37.5q-33 0 -52.5 -20.5 t-29.5 -51t-13 -64t-3 -60.5z" />
<glyph unicode="&#x26;" horiz-adv-x="1593" d="M80 334q0 90 32.5 154.5t79 109.5t94.5 71.5t76 41.5q-23 18 -45 38.5t-39.5 47t-28.5 60.5t-11 77q0 82 34.5 146.5t92 109.5t131 68.5t151.5 23.5q143 0 221 -72.5t78 -179.5q0 -63 -24.5 -107t-59.5 -75t-73.5 -48.5t-65.5 -29.5q70 -37 116 -69.5t78.5 -67.5t57 -74 t51.5 -88q18 25 44 59.5t48.5 71.5t37.5 71t15 56q0 31 -33.5 39t-88.5 12q-18 0 -20.5 11.5t-2.5 29.5q0 20 4 31.5t27 11.5q27 0 86 -3t137 -3q53 0 103.5 3t103.5 3q16 0 18 -14t2 -31q0 -23 -10 -30t-35 -13q-29 -8 -49 -19.5t-39.5 -29.5t-42 -46t-55.5 -69 q-53 -68 -85 -107.5t-51.5 -64t-31.5 -39t-25 -28.5q31 -47 55.5 -84t49 -61.5t52.5 -38t65 -13.5q59 0 98 37t53 84q12 39 15.5 57.5t17.5 18.5q10 0 22.5 -2t24.5 -6q23 -6 23 -25q0 -43 -14.5 -104.5t-52.5 -120t-103.5 -99.5t-165.5 -41q-76 0 -130.5 24t-91 56.5 t-59 66.5t-35.5 52q-106 -111 -213.5 -155t-220.5 -44q-94 0 -168 29t-124 78t-75.5 113.5t-25.5 138.5zM344 416q0 -109 67.5 -178.5t176.5 -69.5q63 0 127.5 24.5t130.5 83.5q-35 74 -68 122t-62.5 80t-53 50.5t-41.5 28.5q-8 6 -32 19.5t-51.5 27.5t-52 27.5t-34.5 19.5 q-53 -43 -80 -105.5t-27 -129.5zM442 1024q0 -74 45.5 -117t143.5 -90q12 6 29.5 16.5t33 28t26.5 44t11 65.5q0 41 -14.5 76.5t-38 62.5t-54 42t-61.5 15q-43 0 -82 -35.5t-39 -107.5z" />
<glyph unicode="'" horiz-adv-x="757" d="M264 1225q0 25 3 43t16.5 29.5t42 17.5t80.5 6q59 0 73.5 -23.5t14.5 -58.5q0 -25 -2.5 -48.5t-7.5 -52t-12 -64.5t-17 -87q-8 -37 -13.5 -64.5t-8.5 -53t-6 -53.5t-7 -62q-4 -25 -5 -31t-5 -8q-10 -4 -31 -4h-25q-16 0 -18 8t-6 47q0 8 -4 38t-9.5 69.5t-12.5 87 t-15 90.5q-8 45 -13.5 71.5t-7.5 45t-3 30.5t-1 27z" />
<glyph unicode="(" horiz-adv-x="757" d="M111 473q0 195 62.5 377t186.5 332q47 55 96.5 103t92.5 84t72.5 55.5t35.5 19.5t17.5 -8.5t21 -18.5t16.5 -19t7 -14q0 -4 -7 -13t-16.5 -20.5t-18.5 -21.5t-13 -14q-102 -111 -162 -238t-89.5 -244.5t-37.5 -212t-8 -139.5q0 -276 97 -503.5t253 -385.5q10 -10 12 -14 t2 -8t-7 -13.5t-16.5 -18.5t-18.5 -17t-15 -8q-4 0 -46 25.5t-105.5 77.5t-135.5 131t-133 185.5t-102 241.5t-41 299z" />
<glyph unicode=")" horiz-adv-x="757" d="M27 -430q0 4 15 20.5t21 22.5q31 31 86.5 102.5t108.5 182t93 257t40 326.5q0 55 -8 150.5t-39 211t-89 238.5t-159 234q-4 4 -13 14t-19.5 21.5t-17.5 21.5t-7 12q0 4 7 13.5t17.5 19.5t20.5 18.5t16 8.5t36 -19.5t72 -55.5t92 -84t97 -103q125 -150 188.5 -333 t63.5 -378q0 -164 -41 -299t-102.5 -241.5t-134 -184.5t-135 -130t-106.5 -77.5t-46 -25.5q-6 0 -15.5 8t-18.5 18t-16 19.5t-7 11.5z" />
<glyph unicode="*" d="M94 922q0 31 12.5 61.5t51.5 30.5q8 0 47 -7.5t82 -17.5q59 -14 106 -23.5t101 -19.5q-35 37 -56.5 59.5t-39 41t-33 34t-35.5 37.5q-41 41 -59.5 63.5t-18.5 45.5q0 18 12 35.5t31.5 30t41 20.5t40.5 8q29 0 41 -21.5t20 -46.5q12 -37 21.5 -66.5t19.5 -62t22.5 -69.5 t28.5 -86q2 8 10.5 34.5t19.5 63.5t23.5 80t24.5 84q10 37 24.5 65.5t49.5 28.5q18 0 39.5 -8t40 -22.5t31 -31t12.5 -30.5q0 -18 -13.5 -36.5t-58.5 -66.5q-16 -16 -40.5 -43.5t-49.5 -55t-45 -52.5t-29 -33l230 55q41 10 61.5 15.5t36.5 5.5q25 0 38 -10.5t20.5 -24.5 t9.5 -30.5t2 -28.5q0 -10 -2 -25.5t-8.5 -31t-18.5 -26.5t-33 -11q-4 0 -50 9t-102.5 21.5t-109.5 23.5t-74 15q37 -41 60.5 -65.5t40 -42t31 -31.5t32.5 -33q41 -41 58.5 -63.5t17.5 -44.5q0 -18 -12.5 -36t-32 -30t-41 -20.5t-39.5 -8.5q-29 0 -41 21.5t-18 46.5 q-16 51 -26.5 83t-20 59.5t-20.5 59t-28 83.5q-4 -16 -15 -53t-23.5 -79t-22.5 -79t-14 -52q-10 -37 -24.5 -65.5t-49.5 -28.5q-20 0 -42 8.5t-40 22.5t-29.5 29.5t-11.5 31.5q0 18 14.5 37t57.5 66q35 37 70.5 78t93.5 106q-25 -6 -89.5 -21.5t-142.5 -35.5 q-39 -10 -60.5 -15.5t-37.5 -5.5q-25 0 -39 11.5t-20.5 28t-8.5 31.5t-2 26z" />
<glyph unicode="+" d="M72 590v72q0 29 1 42t2 18t3 5h375v369q0 10 3 12t15 2h72q29 0 42 -1t18 -2t5 -3v-377l359 2q16 0 19 -2t3 -16v-117q2 -16 -1 -19.5t-19 -3.5h-361v-368q0 -12 -16 -13h-74t-41 1.5t-19 2.5t-5 3v374h-336q-31 -2 -38 0t-7 19z" />
<glyph unicode="," horiz-adv-x="530" d="M16 -346l7 16q51 12 99 34t86 52.5t61.5 71.5t23.5 92q0 23 -4 37t-15.5 24.5t-32 21.5t-53.5 28q-23 12 -36 26.5t-19 27.5t-7 25.5t-1 18.5q0 16 7 38.5t23.5 43t45 35t69.5 14.5q51 0 91 -23.5t68 -62.5t42 -86t14 -96q0 -59 -19.5 -112.5t-55 -98.5t-83.5 -79 t-104 -54q-39 -14 -80 -23.5t-55 -9.5q-6 0 -15.5 3t-31.5 20z" />
<glyph unicode="-" horiz-adv-x="645" d="M82 365v190h481v-190h-481z" />
<glyph unicode="." horiz-adv-x="530" d="M102 137q0 29 15.5 58.5t40 54t54.5 40t58 15.5q29 0 57.5 -16.5t51 -41t37 -54t14.5 -56.5q0 -31 -16.5 -60.5t-41 -51t-53 -35t-53.5 -13.5q-29 0 -58.5 14.5t-53 37t-38 51t-14.5 57.5z" />
<glyph unicode="/" horiz-adv-x="909" d="M12 -483q25 66 44.5 115t38 99t41 111.5t55 150.5t78.5 217t112 312q82 231 157.5 460.5t145.5 465.5h178q-166 -438 -319.5 -875.5t-296.5 -883.5q-16 -45 -26.5 -82t-26.5 -90h-181z" />
<glyph unicode="0" d="M74 645q0 129 25.5 251t82 216t146.5 151.5t217 57.5q117 0 201.5 -53.5t138 -144.5t79 -213t25.5 -259q0 -49 -5 -117.5t-21.5 -144.5t-46 -148.5t-81 -132t-125 -95.5t-178.5 -36q-23 0 -58.5 3.5t-78.5 16.5t-89 42t-85 82q-53 68 -82.5 147.5t-44 153.5t-17.5 134 t-3 89zM371 647q0 -39 1 -89t4 -103.5t9 -107.5t16 -101q2 -14 10.5 -41t24 -52.5t41 -44t64.5 -18.5q33 0 59.5 16.5t47 74t31.5 166t11 290.5q0 23 -1 69t-4 104t-8 122.5t-15 124.5q-4 18 -11.5 43.5t-23 50.5t-39 41t-58.5 16q-33 0 -55 -15t-37.5 -36.5t-23.5 -45.5 t-13 -42q-6 -31 -12 -65.5t-10 -83t-6 -114t-2 -159.5z" />
<glyph unicode="1" d="M180 41q0 18 7.5 27.5t41.5 11.5q59 2 96 11t59 26.5t30 45t12 66.5q4 35 6 85.5t3 102.5t1 99v78v68v102t-1 110.5t-3 92.5q-4 51 -19.5 67.5t-39.5 16.5q-35 0 -111 -21q-16 -4 -33.5 -9t-25.5 -5q-10 0 -10 41q0 29 8 37t43 22q82 35 163.5 75t174.5 99 q20 12 35.5 22.5t19.5 10.5t10 -4t31 -14t24 -25q0 -12 -1 -41t-2 -62.5t-2 -66.5t-1 -55v-58v-86t-1 -83t-1 -46q0 -53 -1 -94t-1 -74v-59v-49q0 -82 1 -174t7 -152q4 -29 13.5 -47t31 -30.5t57.5 -17.5t91 -7q35 -2 40 -8.5t5 -22.5q0 -31 -5 -41t-28 -10q-20 0 -55 1 t-79 3t-95 3t-103 1q-152 0 -244.5 -4t-123.5 -4q-14 0 -19.5 7t-5.5 38z" />
<glyph unicode="2" d="M88 39q0 16 3 27.5t20 27.5q29 33 74.5 88.5t98 117.5t101.5 124.5t84 110.5q25 31 54.5 73.5t56 95t45 111.5t18.5 125q0 102 -56.5 151.5t-129.5 49.5q-10 0 -41 -4t-66 -19.5t-65.5 -46.5t-40.5 -86q-4 -23 -12.5 -37t-30.5 -14q-8 0 -20.5 2t-25 7t-21.5 15.5 t-9 26.5q0 33 24.5 89t78 111.5t137 95.5t200.5 40q170 0 261.5 -94t91.5 -242q0 -129 -59.5 -230.5t-168.5 -211.5q-18 -20 -66.5 -65.5t-101.5 -94.5t-100 -93t-66 -61h78t115.5 1t115 2t74.5 1q29 0 50.5 2.5t38 12.5t29.5 31.5t26 60.5q12 45 18 56.5t17 11.5q4 0 14 -1 t20.5 -4.5t17.5 -8.5t7 -13q0 -6 -5 -31.5t-12.5 -64.5t-17.5 -87t-20 -98q-6 -35 -11.5 -55t-11.5 -30.5t-15.5 -13.5t-23.5 -3q-111 2 -213 3t-168 1q-41 0 -96 -1t-111 -1q-55 0 -100 -1t-61 -1t-19.5 12.5t-3.5 28.5z" />
<glyph unicode="3" d="M82 156q0 27 13.5 50t34 38.5t44 25t43.5 9.5q45 0 62.5 -25t39.5 -74q16 -37 44 -66.5t92 -29.5q57 0 94 24.5t58.5 63.5t29.5 86t8 90q0 27 -5 72t-22.5 88t-53.5 73.5t-97 30.5q-31 0 -56.5 -7t-46 -16t-33 -16.5t-16.5 -7.5q-10 0 -26 39q-14 33 -7 43t46 29 q49 23 95 53.5t82 69.5t56.5 85t20.5 101q0 74 -40 126t-106 52q-23 0 -46 -4t-45.5 -14t-41 -30.5t-31.5 -51.5q-10 -25 -17 -37t-28 -12q-23 0 -46 19.5t-23 33.5q0 12 24.5 54t75.5 86t130 79t187 35q86 0 141.5 -25.5t89.5 -63.5t47 -80t13 -75q0 -66 -30.5 -117 t-71.5 -91t-83 -66.5t-67 -38.5q16 0 42 -1t56.5 -7t62.5 -18.5t63 -35.5q35 -27 56 -59.5t33.5 -67t16.5 -68.5t4 -65q0 -98 -37 -183t-107.5 -147.5t-171 -98.5t-226.5 -36q-90 0 -151.5 18.5t-100.5 45.5t-55.5 57.5t-16.5 57.5z" />
<glyph unicode="4" d="M63 334v59q0 41 2.5 53.5t12.5 26.5l284 358q35 45 79 102.5t89 117t89.5 117t78.5 102.5q27 35 35 43t23 8q2 0 27.5 -2t70.5 -6q20 0 20 -19q0 -16 -1 -57t-2 -86t-2 -85t-1 -54q0 -35 -1 -88.5t-1 -120.5v-146v-157h166q6 0 9 -2t3 -15q0 -51 -4 -86t-4 -51 q-2 -14 -5 -17t-7 -3h-158v-103q0 -12 1 -41.5t1 -62.5q0 -31 1 -59.5t1 -39.5q0 -12 -2 -18t-14 -6q-14 0 -53 1t-80 1q-29 0 -62.5 -1t-40.5 -1q-10 0 -12 6t-2 18q0 18 1 62.5t1 93.5t1 92t1 60l-534 -2q-10 0 -11 8zM231 500q57 -2 144.5 -3t234.5 1v510 q-4 -6 -16 -21.5t-24.5 -33t-25 -34t-16.5 -22.5z" />
<glyph unicode="5" d="M86 186q0 31 13.5 53.5t33 38t43 23.5t45.5 8q18 0 31.5 -4t24 -14t19.5 -28.5t23 -47.5q8 -16 19.5 -35.5t30 -37t46 -30t66.5 -12.5q47 0 81 20.5t56.5 53.5t34 73t11.5 81q0 78 -32 131t-87.5 93t-132 69.5t-166.5 62.5q-39 12 -39 33q0 2 8 31.5t21.5 73.5t29 98.5 t30.5 104.5t26.5 90t15.5 59q4 14 10 34.5t11.5 40t9.5 32.5t6 17q4 6 24 7h78h121h119h76q43 0 54 7t21 21q4 8 9.5 10.5t25.5 2.5q6 0 13.5 -1.5t7.5 -7.5l-8 -35q-9 -34 -21 -78t-24.5 -84t-18.5 -50q-6 -12 -15.5 -18.5t-27.5 -9.5t-47 -3h-72h-264q-4 -8 -13.5 -28.5 t-18.5 -43t-16 -41t-7 -24.5q0 -10 10 -14.5t53 -18.5q63 -20 145.5 -52t156 -85.5t123.5 -134t50 -197.5q0 -80 -31.5 -159t-95 -141.5t-155.5 -102.5t-211 -40q-84 0 -145.5 18.5t-102.5 48.5t-61.5 66.5t-20.5 75.5z" />
<glyph unicode="6" d="M80 498q0 135 36 249.5t97 208t141 165t166 119.5t175 72.5t167 24.5q41 0 71 -9t30 -54q0 -20 -9.5 -49t-40.5 -29q-12 0 -39.5 7t-62.5 7q-63 0 -141 -43t-145.5 -130t-113.5 -218t-46 -307q0 -86 12 -163t36.5 -135t60.5 -93t85 -35q63 0 104.5 62.5t41.5 201.5 q0 135 -45.5 219t-124.5 84q-47 0 -71 -25.5t-34 -41.5h-22l6 53q2 27 7 42t30 38q27 27 79 55.5t129 28.5q49 0 106.5 -16.5t109 -57.5t85 -114.5t33.5 -186.5q0 -111 -36.5 -196t-99 -141t-148.5 -85t-185 -29q-27 0 -65.5 3.5t-80.5 14.5t-84 32.5t-77 58.5 q-43 45 -70.5 98.5t-42 108.5t-19.5 108.5t-5 96.5z" />
<glyph unicode="7" d="M84 885q0 8 4 34.5t9 59.5t10.5 61.5t7.5 38.5q0 6 3 35t6 63.5t6 65.5t3 41q4 25 21 25q104 0 233 -2t289 -2q43 0 96 1t102 1t88 1t52 1q16 0 29.5 -22.5t13.5 -37.5q0 -4 -7.5 -16t-25.5 -45q-137 -240 -284.5 -509t-280.5 -538q-4 -10 -15.5 -34.5t-23.5 -52 t-23.5 -50t-15.5 -29.5q-14 -27 -53 -26q-18 0 -40 7t-40.5 18.5t-30.5 24.5t-12 26q0 8 2 15t9 19.5t21 34t37 56.5q31 47 82.5 132t109.5 184t117.5 201.5t107.5 186.5t79 139.5t33 59.5h-250h-145t-80 -1t-49 -3q-27 -2 -42.5 -7.5t-25.5 -21.5t-17.5 -47t-19.5 -80 q-4 -16 -12 -21.5t-29 -5.5q-23 0 -36 6.5t-13 12.5z" />
<glyph unicode="8" d="M80 303q0 63 19.5 112.5t55 90.5t87 74.5t114.5 64.5q-33 18 -72.5 44t-73.5 65t-56.5 91t-22.5 120q0 74 28.5 139t84 113.5t135.5 76t184 27.5q61 0 127 -12.5t120 -45t89 -87t35 -138.5q0 -72 -24.5 -121t-62.5 -83.5t-86 -58.5t-95 -44q74 -35 132 -71.5t99 -80.5 t62.5 -100.5t21.5 -126.5q0 -86 -42 -172t-153 -143q-41 -20 -87 -32.5t-89 -18.5t-76.5 -7.5t-50.5 -1.5q-61 0 -107 6.5t-80 17.5t-58.5 24.5t-42.5 27.5q-47 39 -81 102.5t-34 147.5zM350 375q0 -51 11.5 -103.5t35 -93.5t60.5 -67.5t88 -26.5q76 0 121 55.5t45 147.5 q0 55 -13.5 92t-46.5 68.5t-88 64.5t-139 80q-10 -10 -22.5 -26.5t-23.5 -42t-19.5 -61.5t-8.5 -87zM389 1040q0 -49 14.5 -87t41 -68.5t66.5 -57t93 -53.5q12 14 25.5 29.5t24 38t17.5 54.5t7 75q0 49 -11.5 93t-33 78t-51 53t-66.5 19q-23 0 -45 -8t-40.5 -28.5t-30 -54 t-11.5 -83.5z" />
<glyph unicode="9" d="M82 856q0 115 41 202t108.5 145.5t152.5 88t175 29.5q57 0 132 -20.5t140.5 -78t110.5 -162t45 -269.5q0 -209 -68.5 -366t-180 -261.5t-253 -157.5t-288.5 -53q-41 0 -63.5 12t-22.5 51q0 49 15 66.5t40 17.5q12 0 38.5 -6t67.5 -6q70 0 145 40t137 121t103 205t41 294 q0 55 -5 134t-24.5 151.5t-56.5 124.5t-98 52q-25 0 -50.5 -11t-47 -40t-34.5 -78t-13 -125q0 -82 15 -138t38.5 -92t53.5 -51.5t59 -15.5q37 0 57 23t33 45h26l-6 -78q-2 -12 -4 -29.5t-10 -27.5q-27 -43 -93.5 -69.5t-138.5 -26.5t-130 26.5t-99 73.5t-64.5 113.5 t-23.5 146.5z" />
<glyph unicode=":" horiz-adv-x="530" d="M102 137q0 29 15.5 58.5t40 54t54.5 40t60 15.5q27 0 55.5 -16.5t51 -41t37 -54t14.5 -56.5q0 -31 -16.5 -60.5t-41 -51t-53 -35t-53.5 -13.5q-29 0 -58.5 14.5t-53 37t-38 51t-14.5 57.5zM102 715q0 29 15.5 59.5t40 55t54.5 40t58 15.5q29 0 57.5 -16.5t51 -41 t37 -54.5t14.5 -56q0 -31 -16.5 -60.5t-41 -51t-53 -35t-53.5 -13.5q-29 0 -58.5 14.5t-53 37t-38 50t-14.5 56.5z" />
<glyph unicode=";" horiz-adv-x="530" d="M16 -346l7 16q51 12 99 34t86 52.5t61.5 71.5t23.5 92q0 23 -4 37t-15.5 24.5t-32 21.5t-53.5 28q-23 12 -36 26.5t-19 27.5t-7 25.5t-1 18.5q0 16 7 38.5t23.5 43t45 35t69.5 14.5q51 0 91 -23.5t68 -62.5t42 -86t14 -96q0 -59 -19.5 -112.5t-55 -98.5t-83.5 -79 t-104 -54q-39 -14 -80 -23.5t-55 -9.5q-6 0 -15.5 3t-31.5 20zM111 715q0 29 15 59.5t38.5 55t53.5 40t61 15.5q29 0 57.5 -16.5t51 -41t36.5 -54.5t14 -56q0 -31 -16 -60.5t-41 -51t-53.5 -35t-53.5 -13.5q-29 0 -57.5 14.5t-52 37t-38.5 50t-15 56.5z" />
<glyph unicode="&#x3c;" horiz-adv-x="1050" d="M154 664v16l741 461v-115l-428 -270l428 -293v-307z" />
<glyph unicode="=" d="M72 463v117q0 16 3 19t19 3h871q18 0 21 -2t3 -16v-117q2 -16 -2 -19.5t-20 -3.5h-869q-20 0 -23 2.5t-3 16.5zM72 717v114q0 16 3 19.5t21 3.5h869q18 0 21 -2t3 -16v-117q2 -16 -2 -18.5t-20 -2.5h-869q-20 0 -23 2t-3 17z" />
<glyph unicode="&#x3e;" d="M160 156v116l430 271l-430 293v305l741 -506v-17z" />
<glyph unicode="?" horiz-adv-x="872" d="M123 1186q0 53 28.5 81.5t64.5 43t70 16.5t44 2q86 0 153.5 -29.5t120.5 -75.5t90 -102.5t61.5 -111t36 -100.5t11.5 -68q0 -61 -25.5 -105.5t-60.5 -73t-71 -45t-58 -24.5q-59 -23 -99 -38t-65 -26.5t-39 -18.5t-23 -15q-8 -10 -12 -26.5t-4 -68.5q0 -14 -1 -17t-5 -5 q-8 -2 -16 -2h-33q-10 0 -14.5 5t-8.5 26q-14 59 -21 93t-11.5 53t-5.5 30.5t-1 25.5q0 37 11.5 62.5t37 47t67.5 44t106 53.5q59 29 96 48.5t56.5 36t26.5 34.5t7 45q0 57 -42 97t-103 40q-35 0 -74 -9t-64 -19q-37 -16 -59.5 -25.5t-35.5 -15t-22.5 -6.5t-19.5 -1 q-23 0 -40 14.5t-29.5 36t-18.5 46t-6 47.5zM162 137q0 29 15.5 58.5t40 54t54 40t60.5 15.5q27 0 55.5 -16.5t51 -41t36.5 -54t14 -56.5q0 -31 -16 -60.5t-40.5 -51t-53.5 -35t-53 -13.5q-29 0 -58.5 14.5t-53.5 37t-38 51t-14 57.5z" />
<glyph unicode="@" horiz-adv-x="1593" d="M61 569q0 150 57.5 286t165 239.5t262 165t347.5 61.5q141 0 260 -38t207 -105.5t137 -162.5t49 -210q0 -109 -41 -201t-114.5 -159.5t-176 -105.5t-225.5 -38q-23 0 -45 3t-40.5 13.5t-31 32t-12.5 56.5q0 33 6.5 60.5t10.5 43.5q-16 -29 -40 -64.5t-54.5 -68.5 t-68.5 -54.5t-83 -21.5q-41 0 -70 17.5t-49 45t-29.5 62.5t-9.5 70q0 72 40 152.5t109.5 154.5t164 130t202.5 79q14 33 47 32q8 0 23.5 -1t31 -7t27.5 -18t12 -33q0 -4 -7 -42t-17 -93t-22.5 -120.5t-22.5 -127t-17.5 -110t-7.5 -66.5q0 -12 7.5 -26.5t35.5 -14.5 q45 0 89 32t79 85t55.5 125.5t20.5 156.5q0 102 -33 182.5t-91 135.5t-138 85t-174 30q-123 0 -230.5 -48.5t-187.5 -133.5t-126 -202.5t-46 -257.5q0 -113 37 -206t105.5 -159.5t168 -103t221.5 -36.5q74 0 140.5 11t115.5 30q35 12 44.5 15t15.5 3q8 0 15 -8t11.5 -17.5 t6.5 -18.5t2 -11q0 -6 -9.5 -13.5t-62.5 -27.5q-141 -55 -320 -56q-139 0 -270 35t-232.5 108t-163 184.5t-61.5 264.5zM670 561q0 -10 1 -24.5t6 -28.5t14 -24.5t28 -10.5q27 0 62.5 37t67.5 91t53.5 113.5t21.5 104.5q-1 23 -21 23q-45 0 -87 -25.5t-74.5 -65.5t-52 -90.5 t-19.5 -99.5z" />
<glyph unicode="A" horiz-adv-x="1441" d="M2 29q0 20 3 33.5t20 17.5q31 6 53 25.5t50 62.5t64.5 116.5t94.5 190.5q25 51 66.5 140.5t87.5 187.5t88 193.5t67 160.5q16 41 25.5 66.5t15.5 40t10 19.5t12 7q86 14 118 18.5t48 4.5q12 0 18.5 -11.5t10.5 -29.5q16 -53 40 -117.5t51.5 -134.5t56 -140.5t55.5 -136.5 q39 -98 67.5 -167.5t53 -128t48 -113.5t54.5 -125q29 -66 58.5 -91.5t82.5 -35.5q16 -2 18.5 -13.5t2.5 -29.5q0 -23 -2 -33t-19 -10q-72 0 -139.5 2t-138.5 2q-57 0 -125 -2t-141 -2q-25 0 -30 8t-5 25q0 27 3 38t23 13q47 4 81 16.5t34 53.5q0 12 -12.5 52t-29.5 87 t-33.5 91t-24.5 66q-41 0 -107.5 1.5t-136.5 1.5t-132.5 -1.5t-94.5 -1.5q-12 -35 -28.5 -78.5t-32 -85.5t-26 -77t-10.5 -53q0 -43 40 -56.5t85 -15.5q35 -2 40 -7t5 -38q0 -16 -3 -27.5t-19 -11.5q-66 2 -128.5 3t-127.5 1q-43 -2 -96.5 -3t-77.5 -1q-16 0 -23.5 5 t-7.5 28zM449 537q100 -3 199.5 -3t199.5 3q-29 74 -59.5 151.5t-57 146t-47.5 121.5t-29 80q-23 -51 -50 -116.5t-55 -133t-54.5 -133t-46.5 -116.5z" />
<glyph unicode="B" horiz-adv-x="1366" d="M72 41q0 27 7 31t40 8q43 6 67.5 18.5t39 32t19.5 48t7 67.5q0 12 1 30.5t2 51t1 86.5v133v104q0 215 -2 329t-10 155q-4 29 -13.5 44t-25 23t-39 11.5t-55.5 7.5q-23 4 -26 10t-3 33t9 33t46 6q25 0 73 1t106.5 3t122 4t120.5 4t101.5 3t64.5 1q31 0 77 -1t97 -9.5 t102.5 -26.5t92.5 -51t66.5 -84t25.5 -125q0 -66 -29 -123t-80 -98q-45 -35 -85 -47.5t-74 -20.5q49 -6 119.5 -23.5t142.5 -76.5q47 -37 78.5 -96.5t31.5 -145.5q0 -115 -51 -190.5t-128 -121.5t-167 -64.5t-170 -18.5q-98 0 -177 4t-177 4q-47 0 -97.5 -1t-94.5 -3 t-78.5 -3t-47.5 -1q-23 0 -26.5 10t-3.5 35zM537 543q0 -70 1 -144.5t3 -139t6 -87.5q4 -18 11 -32.5t22.5 -26t42 -16.5t69.5 -5q51 0 106.5 15.5t96.5 50.5q43 41 63.5 101t20.5 120q0 14 -3 48t-19.5 72t-51.5 72.5t-98 53.5q-59 18 -125 20q-33 1 -69.5 1t-75.5 -1v-102 zM538 832q1 -72 1 -95q26 -1 48 -1q33 0 57 2q38 3 71 7q61 10 95 44t51.5 73t20.5 74t3 51q0 88 -31 135t-74 68.5t-90 26t-80 4.5q-41 0 -52 -2t-13 -11q-4 -10 -5 -75.5t-2 -146.5v-79v-75z" />
<glyph unicode="C" horiz-adv-x="1402" d="M88 641q0 213 95.5 355.5t246.5 226.5q111 63 236 83.5t254 20.5q59 0 110 -3t111 -7q20 -2 49 -5t49 -3q10 0 17.5 3l17.5 7q4 4 12 4h10q29 0 33 -5t4 -11q0 -4 -3 -34t-7 -64.5t-8 -67.5t-4 -45q0 -10 -2 -36t-4 -54.5t-4.5 -52t-4.5 -27.5q-4 -8 -12 -10.5t-31 -2.5 q-29 0 -37 4.5t-12 30.5q-4 35 -12 79t-23 67q-23 37 -62.5 57t-84.5 30.5t-89 12.5t-73 2q-141 0 -221 -39t-125 -96q-43 -57 -75.5 -146.5t-32.5 -238.5q0 -154 37.5 -264.5t101 -183t148.5 -106.5t179 -34q20 0 65.5 4t96.5 23.5t102.5 62.5t86.5 123q20 47 26 57.5 t17 10.5q2 0 13 -1t24.5 -4.5t23.5 -10.5t10 -17l-9 -44t-21.5 -97.5t-23.5 -99.5t-17 -52t-48 -17.5t-104.5 -22.5t-139.5 -19.5t-151 -8.5q-195 0 -333 55.5t-228 148.5t-132 213t-42 249z" />
<glyph unicode="D" horiz-adv-x="1630" d="M66 35q0 29 4 35t30 10q37 6 63.5 12t44 24.5t28 53.5t12.5 96q2 57 4 130t3 149t1 149v135v121t-1 78t-3 51.5t-4 38.5q-4 35 -13.5 54.5t-27 29.5t-42 13.5t-61.5 7.5q-20 2 -23 8t-3 35q0 18 2 31.5t16 13.5q10 0 23.5 -1t36.5 -3q20 -2 50 -3t73 -1q49 0 131 1t165 3 q86 2 156 3t96 1q162 0 294 -39t226.5 -116t144.5 -194.5t50 -273.5q0 -127 -28.5 -224t-73.5 -168t-100.5 -118t-107.5 -76.5t-95 -45t-64 -19.5q-100 -27 -200.5 -34t-196.5 -7q-35 0 -83 1t-97 1q-47 0 -90.5 1t-69.5 1q-29 0 -66 -1t-73 -1h-68h-41q-16 0 -19 10t-3 27z M543 516q0 -25 1 -74t2 -102t4 -100t9 -68q10 -43 59.5 -58.5t114.5 -15.5q72 0 142.5 15.5t132.5 56.5q117 74 170 201t53 303q0 39 -5 97t-24.5 122.5t-55.5 126t-97 106.5q-43 31 -118 58.5t-212 27.5q-55 0 -88 -7t-50.5 -20.5t-23.5 -32.5t-8 -44q-2 -16 -3 -59 t-1 -101q0 -57 -1 -121.5t-1 -126.5v-110v-74z" />
<glyph unicode="E" horiz-adv-x="1290" d="M76 35q0 29 8 35t45 10q78 6 96.5 43t22.5 92q2 37 4 98.5t3 130t1 134.5v112v178q0 74 -1 123t-3 78t-4 49q-6 66 -38 83.5t-91 19.5q-25 0 -29 5t-4 36t6 36t35 5t94.5 -1.5t138.5 -1.5q74 -2 139.5 -3t90.5 -1q78 0 152.5 1t146.5 3q72 0 140.5 1.5t127.5 1.5 q18 0 21.5 -10.5t3.5 -26.5q0 -18 -7.5 -60.5t-11.5 -111.5q-2 -25 -5 -56.5t-3 -52.5q0 -16 -9 -20t-36 -4q-25 0 -33 5t-10 19q-8 66 -18.5 107t-42 63.5t-94 30.5t-177.5 8h-43q-27 0 -54.5 -2t-51 -6t-29.5 -12q-10 -10 -12 -37t-2 -50q-2 -86 -2 -180t2 -180 q141 0 222 3t122 15.5t53 34t16 58.5q6 41 12.5 48t39.5 7q14 0 26.5 -5t12.5 -16q0 -12 -1.5 -37.5t-1.5 -54.5q0 -27 -1 -52.5t-1 -33.5q0 -12 1 -45t1 -69q0 -35 1.5 -66t1.5 -43q0 -20 -8.5 -25.5t-28.5 -5.5q-18 0 -29.5 3t-13.5 24q-8 57 -19.5 88t-58.5 45 q-27 8 -57.5 12t-72.5 6.5t-95 2.5h-125v-84q0 -55 1 -117t2 -117t3 -80q2 -27 6 -47t19.5 -33.5t47 -20.5t91.5 -7q123 0 192.5 12t110.5 42t63.5 79t50.5 125q4 12 21.5 13t34.5 -5q16 -4 26.5 -12.5t10.5 -18.5q0 -23 -20.5 -114t-55.5 -209q-4 -12 -13.5 -21.5 t-25.5 -9.5q-25 0 -102.5 1t-176.5 3q-98 0 -197.5 1t-168.5 1q-63 0 -116.5 -1t-98.5 -1q-45 -2 -80 -3t-64 -1q-18 0 -21 6t-3 33z" />
<glyph unicode="F" horiz-adv-x="1214" d="M78 39q0 27 6 32t35 11q41 8 66.5 18.5t39 34t18.5 62.5t7 104q2 41 3 117t2 160t1 163v131q0 119 -3 185.5t-13 101.5q-12 37 -41 48.5t-70 13.5q-35 2 -43 5t-8 19q0 41 4 50.5t27 9.5h55q37 0 83 -1t99 -1h109q55 0 107 -1.5t98.5 -2.5t78.5 -1h54q23 0 77 1t113 1 t110.5 2t69.5 1q16 0 19.5 -4.5t3.5 -10.5t-3 -34.5t-8.5 -69.5t-11.5 -91.5t-10 -101.5q-2 -33 -9 -41t-40 -8q-35 0 -42 7t-11 34q-10 55 -16.5 88t-13.5 50.5t-19.5 25.5t-32.5 14q-27 8 -63 14.5t-73.5 10.5t-74.5 5t-66 1q-51 0 -80.5 -2t-45 -9t-19.5 -18.5t-4 -29.5 v-420q20 0 68 1t102.5 4t102.5 10t69 22q23 16 29 36.5t12 71.5q2 20 9 25.5t28 5.5q25 0 36 -4t11 -21q0 -10 -1 -32.5t-2 -51t-2 -59.5t-1 -57q0 -25 1 -54.5t2 -58.5t2 -53.5t1 -38.5q0 -18 -10.5 -22.5t-26.5 -4.5q-33 0 -40 4t-11 27q-4 49 -12.5 78.5t-44.5 44 t-111.5 18.5t-212.5 4q0 -100 1 -160.5t1 -97.5q0 -35 1 -55.5t3 -42.5q2 -43 6 -74t14.5 -51.5t32 -31.5t57.5 -13q29 -2 45 -2h37q18 0 19 -35q0 -18 -2 -32.5t-17 -14.5q-29 0 -72.5 1t-93.5 1q-49 0 -95 1t-79 1q-111 0 -191.5 -2t-113.5 -2q-16 0 -16 41z" />
<glyph unicode="G" horiz-adv-x="1554" d="M88 618q0 84 20.5 168t60.5 159t97.5 138.5t132.5 108.5q78 45 157 71.5t150.5 41t129 18.5t92.5 4q31 0 69.5 -3t74.5 -6t62.5 -6t36.5 -5q41 -6 51.5 -7.5t16.5 -1.5q10 0 14 1t21 12q8 4 16 4h13q20 0 25 -7.5t5 -27.5v-100t4 -99q2 -23 6.5 -59.5t4.5 -65.5 q0 -14 -10.5 -19t-57.5 -5q-14 0 -20.5 13t-12.5 36q-10 37 -25.5 76t-52 70.5t-105.5 52t-183 20.5q-127 0 -218.5 -42t-149.5 -116.5t-86 -175t-28 -217.5q0 -23 3.5 -70t14.5 -104t33.5 -117.5t63.5 -111.5t92 -82t103.5 -48.5t102.5 -22.5t87 -5q18 0 48 2t57.5 7 t51 15.5t29.5 26.5q4 10 6.5 34t3.5 51.5t1 51.5v43q0 72 -1 114t-4.5 64.5t-8.5 33t-11 18.5q-4 6 -11 10t-23.5 8t-45 7.5t-78.5 5.5q-16 0 -24 6t-8 28q0 23 3 35.5t25 12.5q20 0 46 -1.5t63 -2.5t88 -2t123 -1q100 0 164.5 3.5t93.5 3.5q20 0 20 -35q0 -18 -2 -31.5 t-16 -17.5q-41 -10 -62.5 -19.5t-33 -32t-13.5 -68.5t-2 -130v-45t1 -55.5t2 -57.5t3 -49q2 -14 4.5 -40t2.5 -42q0 -14 -14.5 -19.5t-43.5 -9.5q-45 -6 -100 -12t-114.5 -11t-122 -8.5t-119.5 -3.5q-92 0 -166 8.5t-135.5 21.5t-111.5 32.5t-93 44.5q-78 43 -132.5 106.5 t-88 135t-48 148t-14.5 146.5z" />
<glyph unicode="H" horiz-adv-x="1705" d="M66 39q0 29 15 35t38 8q47 4 72.5 21.5t38 48t15.5 72.5t5 95q2 20 3 89t2 154t1 171v144q0 117 -3 181t-13 99q-12 39 -41 49.5t-70 12.5q-31 0 -42 4t-11 20q0 33 4 47.5t20 14.5q10 0 44 -1t77 -1q45 0 96.5 -1.5t94.5 -1.5q29 0 65.5 1.5t73.5 1.5q39 0 77 1t66 1 q16 0 20.5 -7.5t4.5 -23.5q0 -39 -8.5 -47t-32.5 -8q-43 0 -69.5 -16.5t-40 -44.5t-18.5 -61.5t-5 -70.5q-2 -96 -2 -162v-131h624v131q0 66 -2 162q0 61 -4 99t-18.5 58.5t-45 28t-83.5 7.5q-25 0 -25 24q0 39 5 50.5t22 11.5q29 0 66.5 -1t74.5 -1q39 0 76 -1.5t65 -1.5 q43 0 94.5 1.5t96.5 1.5q47 0 84 1t53 1q10 0 12 -10.5t2 -26.5q0 -31 -7 -40t-36 -9q-86 0 -114.5 -48.5t-28.5 -138.5v-713q0 -51 2 -92t9.5 -71.5t21.5 -48t41 -19.5q76 -8 98.5 -11t22.5 -14q0 -37 -2 -52t-23 -15q-10 0 -35.5 1t-64.5 3q-39 0 -85 1t-100 1 q-18 0 -66 -1t-104 -1q-55 -2 -104 -3t-70 -1q-29 0 -28 49q0 33 41 33q10 0 31.5 3t44 15.5t43 35t26.5 61.5q6 31 8 81t4 109t2 121v114h-624v-192q0 -80 2 -135t6 -90t10 -60q12 -45 48 -53t108 -10q12 0 15 -11.5t3 -27.5t-2 -29.5t-18 -13.5q-20 0 -69.5 1t-104.5 3 q-53 0 -102.5 1t-67.5 1q-51 0 -98.5 -1t-86.5 -1q-37 -2 -63.5 -3t-36.5 -1q-12 0 -16 13.5t-4 29.5z" />
<glyph unicode="I" horiz-adv-x="796" d="M45 41q0 27 10.5 32t50.5 9q41 2 68 14.5t43 34t22.5 55t8.5 80.5q2 55 4 129t3 152t1 151v133v76t-2 95.5t-5 91.5t-9 61q-6 20 -15.5 31.5t-27 17.5t-46 8t-75.5 7q-23 2 -27 9t-4 36t6 35t29 6q37 0 123 -2.5t192 -2.5q39 0 81 1.5t81 1.5q41 0 75 1t56 1h39 q16 0 20.5 -7.5t4.5 -21.5q0 -39 -6.5 -47t-40.5 -12q-80 -4 -113 -29t-43 -101q-4 -25 -5 -75.5t-2 -109t-1 -116.5v-90q0 -199 2 -332t10 -190q8 -43 26.5 -67.5t82.5 -28.5h63q16 0 19.5 -6t3.5 -29q0 -29 -2.5 -37t-18.5 -8q-23 0 -66 1t-96 1t-108.5 1t-102.5 1 q-86 0 -154.5 -2t-131.5 -2q-10 0 -16.5 7t-6.5 36z" />
<glyph unicode="J" horiz-adv-x="757" d="M-197 -307q0 29 17.5 52.5t42 39.5t49.5 25.5t39 9.5t30.5 -5t57.5 -30q39 -23 59.5 -29t36.5 -6q43 0 67.5 24.5t37 60.5t16.5 78t6 77q2 33 3 62.5t1 70.5t1 101.5t1 154.5v229v330q0 94 -2 149.5t-16 83t-45 35.5t-88 8q-43 0 -50.5 13.5t-7.5 36.5q0 29 9.5 35 t29.5 6q10 0 43 -1t76 -2.5t94 -2.5t99 -1q98 0 182 3.5t119 3.5q16 0 20 -7.5t4 -23.5q0 -23 -4 -38t-24 -19q-55 -6 -84 -21.5t-42.5 -42.5t-15.5 -65.5t-2 -92.5q0 -33 -1 -109.5t-2 -162.5t-1 -162v-104q-2 -123 -5 -213t-15.5 -161t-38 -129t-72.5 -116 q-35 -45 -84 -89t-108.5 -80t-124 -58.5t-129.5 -22.5q-10 0 -39 2t-59.5 12.5t-55.5 32t-25 58.5z" />
<glyph unicode="K" horiz-adv-x="1517" d="M90 39q0 27 4 32t33 9q35 6 58.5 14t38 28.5t20.5 54.5t8 89q2 66 3 143.5t1 157.5v158v145q0 117 -3 186.5t-15 104.5q-10 35 -36 43t-91 19q-12 4 -14.5 12t-2.5 31q0 27 7.5 32t33.5 5q35 0 96.5 -2.5t147.5 -2.5q41 0 90 1t92 1q45 0 80 1.5t47 1.5q16 0 20.5 -8.5 t4.5 -32.5q0 -25 -6.5 -33t-40.5 -12q-70 -6 -90.5 -34t-26.5 -98q-2 -18 -3 -66t-2 -108.5t-2 -123t-1 -107.5q33 31 75.5 69.5t85.5 78.5t85 79t75 70q63 61 97 97t50.5 57.5t19.5 32t3 18.5q0 18 -20.5 27.5t-79.5 9.5q-29 0 -37 5t-8 33q0 35 7 40.5t21 5.5 q72 0 140.5 -2.5t140.5 -2.5q14 0 48 1t71 1q39 0 71.5 1.5t45.5 1.5q16 0 23 -5.5t7 -33.5q0 -29 -9 -36t-42 -16q-23 -6 -42 -12t-45 -20.5t-62.5 -40t-93 -68.5t-136.5 -108.5t-192 -157.5q74 -96 145.5 -189.5t132 -171t105.5 -136t67 -83.5q35 -41 59.5 -67.5t48 -43 t47 -24.5t56.5 -12q12 -2 13.5 -12.5t1.5 -32.5q0 -35 -33 -35q-6 0 -35 1t-72 1t-96 1t-109 1q-41 0 -84 -1t-81 -1q-37 0 -67 -1t-44 -1q-23 0 -23 47q0 23 6.5 31t34.5 8q29 2 54.5 7t25.5 30q0 8 -3 17t-11 22.5t-24.5 35t-43.5 56.5q-72 96 -139 184t-145 197l-84 -68 q0 -170 1 -265t9 -143t27.5 -61.5t54.5 -15.5q16 -2 33 -2h30q16 0 17.5 -9.5t1.5 -27.5q0 -23 -2 -33t-19 -10q-16 0 -49 1t-74 1t-86 1t-88 1q-37 0 -82 -1t-88 -1q-41 0 -74.5 -1t-48.5 -1q-12 0 -14 12.5t-2 28.5z" />
<glyph unicode="L" horiz-adv-x="1214" d="M68 39q0 29 7 33t42 8q82 8 105.5 55t27.5 131q2 51 3 115.5t2 131.5t1 132v121v82q0 49 -1 98t-2 94t-3 74q-4 72 -34 86t-93 19q-25 4 -29 10t-4 35t6 34t35 5q41 0 108.5 -2.5t155.5 -2.5q41 0 89 1t91 1q45 0 81 1.5t55 1.5q20 0 20 -29q0 -37 -6 -46t-41 -11 q-45 -2 -71.5 -12.5t-41 -29t-18.5 -45t-6 -61.5q-4 -74 -4 -258q0 -182 2 -502q0 -61 3 -98t14 -57.5t36 -26.5t68 -6q133 0 209.5 8t118.5 27.5t60.5 52.5t37.5 84q16 47 23 74.5t24 27.5q12 0 31.5 -3t27.5 -11q6 -4 6 -41q0 -18 -6 -55t-13 -79t-15.5 -81t-12.5 -57 q-8 -37 -16 -54.5t-27 -17.5q-20 0 -61 1t-113 3t-177.5 3t-254.5 1q-84 0 -149.5 -1t-116.5 -3q-53 -2 -89 -3t-63 -1q-12 0 -17 7t-5 36z" />
<glyph unicode="M" horiz-adv-x="2009" d="M55 43q0 23 4 28t23 9q41 2 72.5 9t53 24.5t36 51.5t20.5 89q4 35 9.5 105.5t9.5 155.5t8 175t6 167t4 130t2 64q0 57 -9 88.5t-30.5 49t-54.5 24t-80 10.5q-12 2 -18.5 7t-6.5 23q0 29 4.5 40.5t30.5 11.5q12 0 38 -1t56 -1q31 0 65 -1.5t62 -1.5q53 0 98.5 2.5 t86.5 2.5q29 0 38 -15.5t25 -56.5q25 -66 52.5 -129.5t61.5 -136t76 -158.5t97 -195q8 -16 27.5 -53t40 -79t39 -79.5t26.5 -52.5l334 641q23 43 57.5 117t57.5 154q8 29 12 36t20 7q70 -2 137.5 -3.5t137.5 -1.5q31 2 61 3q33 0 64 2q16 0 19 -8.5t3 -30.5q0 -31 -5 -39 t-36 -13q-51 -6 -79.5 -15t-42 -33.5t-15.5 -73t-2 -136.5v-90q0 -61 1 -141t2 -168t2 -166t3 -135t4 -76q6 -61 39 -79.5t99 -20.5q29 -2 35 -11.5t6 -27.5q0 -29 -2.5 -37t-16.5 -8q-20 0 -56 1t-81 3q-43 0 -89 1t-87 1q-35 0 -77 -1t-87 -1q-45 -2 -86 -3t-70 -1 q-12 0 -14 8t-2 37q0 23 8 30t37 9q57 6 89 15t47 44t17.5 107.5t2.5 202.5v77v74t-1 78t-1 94q-1 31 -1 57q0 52 3 83q4 46 8 87q-16 -51 -32.5 -92t-46.5 -99t-77 -147.5t-125 -236.5q-72 -137 -116 -228.5t-66 -144.5q-4 -12 -19.5 -18t-33.5 -10q-35 -10 -53.5 -15.5 t-22.5 -5.5q-10 0 -17.5 17.5t-15.5 37.5q-14 37 -39.5 94.5t-55.5 123t-61.5 132l-58.5 123.5q-57 119 -94 197t-59.5 131t-37 92t-24.5 80q2 -43 3 -79t1 -64q0 -25 -1 -82t-1 -121q0 -63 -1 -120.5t-1 -78.5v-77q0 -47 2 -96.5t7 -93.5t14 -68q16 -39 48.5 -51.5 t112.5 -16.5q23 -2 29 -14.5t6 -30.5q0 -25 -3 -33t-26 -8q-14 0 -48.5 1t-75.5 3q-39 0 -73 1t-48 1q-16 0 -60.5 -1t-91.5 -1q-47 -2 -88 -3t-57 -1t-18.5 8t-2.5 39z" />
<glyph unicode="N" horiz-adv-x="1669" d="M45 29q0 25 2 37t19 14q47 4 77.5 11t51 28.5t31 61.5t16.5 112q2 27 5 88t6 139t5 162t4 155.5t3 120t1 56.5q0 57 -9 95t-30.5 60.5t-55.5 32.5t-83 15q-12 2 -20.5 8t-8.5 32q0 29 8.5 38.5t24.5 9.5q27 0 82 -4.5t102 -4.5q51 0 97.5 4.5t81.5 4.5q16 0 30.5 -2.5 t22.5 -18.5q29 -53 99.5 -133t172.5 -188q20 -20 60.5 -63.5t91.5 -95.5t106.5 -109.5t105.5 -110t89 -93t57 -59.5v420q0 31 -1 75t-3 89t-7 85t-13 60q-12 35 -46 47.5t-120 16.5q-20 2 -23.5 8t-3.5 37q0 16 6 25.5t27 9.5q14 0 53 -1t80 -1q43 0 80 -1.5t51 -1.5t52 1.5 t79 1.5t78 1t49 1q16 0 19.5 -7.5t3.5 -35.5q0 -25 -2 -31t-17 -8q-47 -6 -80.5 -13.5t-57.5 -28t-36 -59.5t-16 -108q-2 -35 -5 -125t-7 -200.5t-5.5 -228.5t-1.5 -208v-47t1 -59.5t2 -60.5t1 -48v-12q0 -10 -20.5 -19.5t-75.5 -34.5q-10 -4 -15 0t-13 15q-45 55 -82 99 t-81 91t-100.5 105.5t-138.5 144.5q-16 16 -67.5 71.5t-115 124t-125 136t-97.5 106.5l-36 36t-54 61q-2 -33 -3.5 -75t-1.5 -85v-82v-60q0 -195 1 -305t9.5 -167.5t26 -76t47.5 -24.5q8 -2 26.5 -3t40 -2t41 -3t25.5 -4q6 -4 7.5 -16.5t1.5 -22.5q0 -18 -4.5 -27.5 t-20.5 -9.5q-35 0 -117 2t-166 2q-14 0 -50 -1t-76 -1q-41 0 -76 -1t-47 -1q-10 0 -17.5 5t-7.5 26z" />
<glyph unicode="O" horiz-adv-x="1669" d="M88 653q0 125 36 224.5t96.5 174t139 127t164.5 85t174 48t166 15.5q170 0 303 -51t225.5 -140t140.5 -209t48 -257q0 -63 -14.5 -139t-49 -153t-92 -149.5t-142.5 -129t-201.5 -90.5t-270.5 -34q-193 0 -330 55.5t-224 148.5t-128 216t-41 258zM399 705 q0 -152 38 -266.5t102.5 -192.5t147.5 -118t175 -40q80 0 154 29.5t130 91t90 158t34 229.5q0 135 -35 248.5t-96.5 194.5t-146.5 127t-185 46q-76 0 -144.5 -24.5t-117.5 -69.5t-79 -105.5t-44 -119.5t-18.5 -110t-4.5 -78z" />
<glyph unicode="P" horiz-adv-x="1251" d="M76 39q0 29 10 34t39 9q63 8 89 34.5t34 100.5q6 47 7 146.5t1 205.5v123v99q0 59 -1 120.5t-3 115.5t-4 89q-4 37 -15.5 57.5t-28 29.5t-35.5 12.5t-40 3.5q-29 0 -41 4t-12 20q0 63 20 64q23 0 49.5 -1t59.5 -3q31 -2 66.5 -3.5t70.5 -1.5q43 0 96.5 1t106.5 4 q55 2 108.5 3t94.5 1q152 0 257 -34t171 -130q27 -39 45 -91.5t18 -123.5q0 -41 -8 -86t-30.5 -92.5t-65.5 -91.5t-111 -80q-66 -35 -135.5 -51.5t-177.5 -16.5q-63 0 -99.5 3t-70.5 7q2 -127 4 -216t8 -130q2 -25 6 -42t19.5 -29.5t47 -18.5t91.5 -6q18 0 23 -8.5t5 -28.5 q0 -25 -3 -35t-25 -10q-37 0 -126 2t-192 2q-41 0 -86 -1t-86 -1t-71.5 -1t-44.5 -1q-25 0 -30 13.5t-5 29.5zM543 606q20 -2 43.5 -3t52.5 -1q156 0 222.5 88t66.5 232q0 104 -29 161.5t-72 86t-92 34.5t-90 6q-66 0 -82 -7t-18 -34q0 -6 -1 -45t-1 -96v-121v-127v-108v-66 z" />
<glyph unicode="Q" horiz-adv-x="1669" d="M88 651q0 125 35 224.5t95.5 174t138 128t164.5 86t175 48t168 15.5q168 0 301 -50t225.5 -139t141.5 -209t49 -257q0 -72 -20.5 -168t-75.5 -191.5t-151.5 -176.5t-246.5 -124q55 -55 115 -110.5t121 -100.5t124.5 -72.5t125.5 -27.5q33 0 56.5 8t43.5 19q6 4 11.5 -2.5 t15.5 -30.5q10 -23 8 -34t-20 -19q-90 -39 -147.5 -47.5t-106.5 -8.5q-98 0 -190.5 34t-174.5 89t-153 124.5t-128 141.5q-145 4 -254.5 38t-187.5 88.5t-128 124t-78.5 143t-40 147.5t-11.5 135zM399 705q0 -152 38 -266.5t102.5 -192.5t147.5 -118t175 -40q82 0 157 31 t130 93t88 158.5t33 225.5q0 135 -35 247.5t-96.5 194.5t-146.5 128t-185 46q-76 0 -144.5 -24.5t-117.5 -69.5q-51 -47 -80 -107.5t-43 -121t-18.5 -110t-4.5 -74.5z" />
<glyph unicode="R" horiz-adv-x="1402" d="M76 39q0 23 8 30t43 11q43 6 66.5 23.5t36 42t15.5 55t3 63.5q2 59 4 133t3 150t1 147v135v76t-2 97.5t-5 93.5t-9 61q-14 39 -41 48t-93 16q-20 2 -23 8t-3 35t12 34t29 5l203 -3h60q124 0 226 6q126 8 183 9q106 0 186 -26.5t134 -73t81 -109.5t27 -135q0 -98 -34 -163 t-79 -105.5t-89 -60t-65 -28.5q27 -49 63 -108.5t73.5 -116.5t74.5 -107.5t66 -80.5q45 -49 82 -75t66.5 -38t52 -14t36.5 -2t18.5 -4.5t4.5 -28.5q0 -25 -3 -32t-22 -13q-23 -8 -64.5 -17.5t-94.5 -9.5q-84 0 -148.5 24.5t-112 58.5t-76 68t-42.5 52q-70 90 -126.5 191.5 t-94.5 199.5q-55 -4 -93 -4q-37 0 -82 2q2 -84 3 -135v-105q0 -82 4 -130t20 -72.5t49 -31.5t88 -7q20 0 25.5 -10.5t5.5 -34.5q0 -16 -2 -26.5t-18 -10.5h-52q-41 0 -92 1t-100 1h-76h-96t-87 -1t-71 -1h-41t-14 13.5t-2 29.5zM535 659q18 -4 38.5 -5t57.5 -1q51 0 100 5.5 t89 32t64.5 79.5t24.5 152q0 111 -31.5 170t-77.5 86.5t-96.5 33t-87.5 5.5q-57 0 -67 -13.5t-12 -52.5z" />
<glyph unicode="S" horiz-adv-x="1175" d="M76 377q0 33 21.5 46t49.5 13q18 0 24.5 -9t16.5 -50q18 -66 37 -110t54 -79q45 -47 119.5 -72.5t152.5 -25.5t126 22.5t74.5 54.5t36 66.5t9.5 61.5q0 82 -50.5 130t-128.5 83q-98 43 -161.5 71.5t-106.5 51t-71.5 45t-55.5 51.5q-29 29 -58.5 85t-29.5 142 q0 74 27.5 140.5t88 119t157 83t231.5 30.5q37 0 66.5 -2t58.5 -5t59.5 -7t71.5 -10q25 -6 45 -7q4 0 25 4q20 4 22 5q20 0 21 -19v-149q0 -53 5 -101.5t5 -62.5q0 -23 -27.5 -30t-42.5 -7q-18 0 -24 12.5t-19 59.5q-8 29 -22.5 64.5t-45 66t-84 52t-137.5 21.5 q-78 0 -120.5 -23.5t-64 -54t-26 -60.5t-4.5 -40q0 -45 18.5 -78.5t48.5 -59.5t64.5 -45.5t69.5 -33.5q94 -41 157.5 -69.5t108.5 -52t76 -46t60 -53.5q51 -55 67 -115.5t16 -107.5q0 -94 -43 -176t-116 -136q-47 -33 -123 -59.5t-213 -26.5q-27 0 -61.5 1t-71.5 4.5 t-71 7.5t-58 8q-41 6 -62.5 10t-34 6t-16.5 2h-10q-25 0 -35 -10q-12 -6 -17 -8t-16 -2q-18 0 -24 9t-13 50q-4 25 -8 75t-8 101.5t-7 94.5t-3 53z" />
<glyph unicode="T" horiz-adv-x="1366" d="M8 967l3 21q3 20 7.5 49.5t9.5 66.5t10 69.5t8 57t5 35.5q4 37 10.5 52t26.5 15q16 0 25.5 -6t29.5 -10q14 -4 50 -6t83.5 -4t101.5 -3t103 -1h90h64h63t123 1t153 2t152.5 3t124 6t64.5 10q10 4 21.5 6t17.5 2q23 0 22 -18q0 -4 -6 -29.5t-14 -58.5t-14.5 -65t-8.5 -48 q0 -12 -4 -34.5t-8 -46t-9 -43t-7 -27.5q-4 -14 -14.5 -17.5t-37.5 -3.5q-23 0 -34 4t-11 27q-2 57 -4 91t-7 52.5t-14 24.5t-28 12q-20 6 -63 10t-92.5 6t-96.5 2h-72v-346v-157v-150t1.5 -129t1.5 -92q2 -76 6 -119t22.5 -64.5t56 -26.5t107.5 -7q23 -2 27 -13.5t4 -27.5 q0 -23 -5 -33t-24 -10q-16 0 -45 1t-70 3q-43 0 -99 1t-134 1q-53 0 -101.5 -1t-91.5 -1q-43 -2 -80.5 -3t-70.5 -1q-12 0 -14.5 11t-2.5 34q0 16 3.5 26.5t17.5 12.5q51 4 86 9t57.5 19.5t34.5 41t17 75.5q2 31 4 106t3 161t1 163v115q0 27 -1 81t-2 114.5t-2 117t-1 88.5 q-131 -2 -207 -7t-119 -21.5t-62.5 -48t-33.5 -86.5q-12 -43 -18.5 -53.5t-28.5 -10.5q-33 0 -46.5 3t-13.5 20z" />
<glyph unicode="U" horiz-adv-x="1554" d="M47 1262q0 25 5 33t20 8q76 0 150.5 -2.5t152.5 -2.5q74 0 147.5 2.5t147.5 2.5q25 0 31 -6.5t6 -28.5q0 -35 -6.5 -42t-32.5 -9q-74 -6 -112 -18.5t-48 -65.5q-4 -25 -7 -92.5t-4 -146.5t-1 -153v-108q0 -84 3 -145.5t11 -108.5t23.5 -82t39.5 -61q43 -47 121 -69 t148 -22q20 0 69.5 4.5t104.5 24t104 59t72 109.5q8 27 13 61.5t8.5 102t4.5 181.5v84q0 91 -1 212q0 84 -6.5 130t-25 68.5t-52 27.5t-91.5 10q-29 4 -33.5 8t-4.5 33q2 33 11 38t29 5q23 0 89.5 -3.5t171.5 -3.5q57 0 114.5 3.5t96.5 3.5q16 0 21 -8.5t5 -30.5 q0 -31 -8 -37t-25 -10q-47 -6 -73.5 -22.5t-39 -53.5t-15.5 -101.5t-5 -165.5q-2 -135 -4 -228t-6 -159.5t-14.5 -114.5t-26.5 -96q-33 -92 -97.5 -150t-143 -92t-163.5 -46.5t-157 -12.5q-102 0 -193.5 18.5t-162 58.5t-118.5 102.5t-65 150.5q-6 31 -9 66t-4 95t-2 154.5 t-1 243.5v99v71q0 29 -1 49.5t-3 36.5q-4 35 -14.5 54.5t-28 28.5t-41 12.5t-51.5 5.5q-16 2 -19.5 9t-3.5 32z" />
<glyph unicode="V" horiz-adv-x="1402" d="M16 1262q0 23 4.5 32t20.5 9t49 -1.5t74 -1.5t87 -1t87 -1t85 1t81 1q39 0 65.5 1.5t34.5 1.5q10 0 15.5 -7.5t5.5 -31.5q0 -29 -6.5 -35t-34.5 -8q-43 -4 -75 -13.5t-32 -46.5q0 -12 10.5 -49t24.5 -79t28.5 -83t22.5 -61q23 -63 51.5 -142t57 -161t57 -161t53.5 -142 q72 166 142.5 331.5t136.5 331.5q8 20 19.5 49t21.5 58.5t17 57.5t7 46q0 35 -30.5 48.5t-114.5 13.5q-20 0 -25.5 5t-5.5 29q0 33 3 41.5t20 8.5q23 0 88 -2.5t149 -2.5q51 0 87 1t59 1q25 0 41 1.5t28 1.5q10 0 12.5 -7.5t2.5 -23.5q0 -29 -2 -37t-19 -12 q-33 -10 -52 -21.5t-43 -45.5t-57.5 -100.5t-92.5 -189.5q-8 -18 -33 -67t-57.5 -118t-70.5 -147.5t-74 -156.5t-68.5 -147.5t-53.5 -116.5q-14 -33 -21.5 -53.5t-12.5 -33t-8 -17.5t-7 -5q-16 -2 -39.5 -6t-46.5 -7t-40 -6t-24 -3q-10 0 -13 6t-11 30q-6 23 -24.5 75 t-45 121t-57.5 148.5t-61 159.5q-45 113 -76 192t-52.5 134t-36 90t-24.5 58.5t-17 40t-16 36.5q-23 49 -41 78t-35.5 44t-35 19.5t-37.5 6.5q-14 2 -16.5 10t-2.5 31z" />
<glyph unicode="W" horiz-adv-x="2009" d="M27 1264q0 23 3 31t15 8h49q37 0 76 -1.5t74 -1.5h53h82q43 0 80 1.5t63 1.5h37q12 0 18.5 -6.5t6.5 -32.5q0 -29 -7.5 -35t-35.5 -10q-51 -8 -74 -17.5t-23 -46.5q0 -10 1 -18.5t5.5 -20.5t12.5 -30.5t20 -49.5l310 -745l174 317l-185 469q-14 35 -24 59.5t-22.5 41 t-27 25.5t-34.5 14q-23 4 -23 24q0 29 3 45.5t22 16.5q14 0 49 -1.5t92 -1.5q57 -2 136 -3t177 -1q82 0 142.5 1t105.5 3q45 0 74 1.5t45 1.5q10 0 17.5 -4.5t7.5 -32.5q0 -29 -6.5 -38t-30.5 -16q-16 -4 -29.5 -12t-26 -21.5t-24.5 -34t-31 -48.5q-20 -33 -44.5 -75 t-50.5 -85t-50.5 -84t-44.5 -74l192 -493q61 135 131 282.5t138 292.5q12 23 31.5 65t38 86t32.5 83t14 55q0 25 -10 38t-28.5 19t-45 8.5t-57.5 4.5q-23 0 -26 8t-3 37q0 16 2 27.5t15 11.5q12 0 38.5 -1.5t63.5 -1.5q37 -2 84 -3t100 -1q39 0 65 1t42 3q16 0 24.5 1.5 t12.5 1.5q10 0 14 -7.5t4 -35.5q0 -29 -4 -36t-24 -10q-12 -2 -25.5 -6t-30 -19t-38 -45t-54.5 -85q-66 -111 -129 -235t-116.5 -233.5t-91.5 -192.5t-50 -111q-20 -47 -45 -105.5t-53 -134.5q-12 -43 -33 -45q-35 -6 -76 -12t-67 -6q-10 0 -16.5 7t-14.5 36l-174 462 q-59 -113 -114.5 -220t-106.5 -234q-8 -23 -16.5 -31t-39.5 -10q-27 -4 -55.5 -8t-38.5 -4q-16 0 -21.5 10t-21.5 53q-59 162 -124.5 318.5t-131.5 314.5q-84 197 -132 304.5t-75.5 159.5t-44 63.5t-37.5 15.5q-20 4 -24 11t-4 32zM1044 1171q0 -16 9.5 -46.5t23 -68.5 t30 -79t30.5 -76q18 31 37.5 68t36 71.5t26.5 66.5t10 52q0 23 -10 35t-25.5 18.5t-34 7.5t-34.5 1q-37 0 -68 -6.5t-31 -43.5z" />
<glyph unicode="X" horiz-adv-x="1478" d="M33 43q0 29 8 35t41 14q39 10 76 43t96 94q96 98 186 199.5t183 204.5q-23 31 -76 104.5t-112.5 155.5t-112 153.5t-72.5 98.5q-16 20 -27.5 32.5t-24 19.5t-28.5 11t-41 9q-20 4 -23.5 13t-3.5 32t2 32t19 9q14 0 44 -1.5t66 -1.5q37 0 78 -1t80 -1q137 0 216 2.5 t104 2.5q10 0 16 -5.5t6 -35.5q0 -31 -8 -36t-47 -9q-12 0 -26.5 -2.5t-27 -7.5t-20.5 -14t-8 -24q0 -14 11 -37.5t37 -63.5t68 -100.5t103 -146.5q23 25 53.5 62t61.5 73.5t56.5 68.5t37.5 48q37 45 51.5 67.5t14.5 37.5q0 27 -30 31.5t-59 7.5q-31 0 -38 6t-7 41 q0 25 5.5 32t21.5 7q39 0 100.5 -2.5t120.5 -2.5t116.5 2.5t80.5 2.5q16 0 18 -11.5t2 -34.5t-8 -29.5t-37 -17.5q-10 -4 -21.5 -9t-26.5 -15t-37.5 -29.5t-53.5 -50.5q-55 -53 -113.5 -114.5t-109.5 -116t-88 -94.5t-45 -50l213 -305q49 -68 77.5 -107.5t46 -64.5t27.5 -40 t23 -32q35 -47 66.5 -71.5t78.5 -28.5q16 -2 22.5 -7t6.5 -34t-5 -37t-16 -8q-45 0 -95 1t-116 1h-153q-61 0 -105.5 -1t-74.5 -1h-52t-25.5 10t-2.5 33q0 25 7 32t40 9q16 0 34.5 2t35 7t26.5 14.5t10 27.5q0 4 -1 10t-8 19.5t-22.5 37t-44.5 66.5q-18 29 -42.5 65 t-49 72.5t-49 73.5t-45.5 66q-113 -137 -173 -213t-88 -115t-33 -53.5t-5 -30.5q0 -23 18.5 -33t88.5 -14q29 -2 36 -6t7 -29q0 -51 -13 -51q-12 0 -50 1t-81 3q-43 0 -81 1t-52 1q-49 0 -84 -1t-57 -1q-25 -2 -40 -3t-28 -1q-16 0 -18 9t-2 38z" />
<glyph unicode="Y" horiz-adv-x="1327" d="M-18 1264q0 23 4 31t12 8q27 0 95.5 -2.5t170.5 -2.5q41 0 85 1t81 1t64.5 1.5t37.5 1.5q20 0 28.5 -5.5t8.5 -27.5q0 -29 -6 -40t-35 -11q-20 0 -44.5 -4.5t-24.5 -32.5q0 -23 18.5 -60t32.5 -61q14 -25 30.5 -50.5t41 -66.5t63.5 -102.5t98 -155.5l230 352q37 59 50 87 t13 44q0 31 -28.5 38t-57.5 10q-33 4 -40 7t-7 25q0 33 4 43.5t23 10.5q35 0 83 -2.5t126 -2.5q66 0 121 2.5t77 2.5q12 0 15.5 -8.5t3.5 -22.5q0 -29 -3 -39t-20 -14q-25 -8 -47 -19.5t-62 -52.5t-104.5 -124t-171.5 -230q-10 -16 -33.5 -48t-47 -66t-43 -61.5t-21.5 -33.5 q-4 -6 -4 -35v-70v-71q0 -47 1 -98.5t4 -96.5t7 -63q12 -53 53 -63.5t111 -10.5q10 0 12 -9.5t2 -31.5q0 -23 -3 -30t-19 -7q-39 0 -123 2t-174 2q-29 0 -76 -1t-96 -1t-95.5 -1t-72.5 -1q-10 0 -11 45q0 23 7.5 28t38.5 9q57 6 87.5 17.5t45 50t16.5 118.5t2 221 q0 18 -1 30.5t-6 27t-15.5 32t-28.5 46.5q-78 127 -158 249.5t-170 243.5q-25 35 -41 54.5t-30.5 29.5t-30 14.5t-39.5 10.5q-10 2 -12 9t-2 30z" />
<glyph unicode="Z" horiz-adv-x="1327" d="M47 27q0 29 2 38t12 21q20 20 57.5 68.5t85.5 111t102 135t106.5 143t99.5 135t80 109.5q18 25 58 82.5t85 121t84 119.5t55 77h-65t-108.5 -1t-121 -3t-102.5 -6q-68 -6 -109.5 -19.5t-70.5 -39t-48.5 -65.5t-39.5 -100q-8 -20 -19.5 -23t-29.5 -3q-23 0 -34 6t-11 24 q0 14 7 56.5t16 89.5t17.5 90t12.5 59q6 23 11 37.5t28 14.5q113 0 225.5 -2.5t224.5 -2.5q141 0 284.5 2t297.5 3q29 0 29 -33q0 -29 -4 -40t-15 -24q-55 -68 -148 -190.5t-204 -273t-228.5 -316t-219.5 -319.5q199 4 355.5 9t231.5 34q53 18 82 62t60 140q6 23 14 35 t31 12q35 0 48 -4t13 -18q0 -29 -11 -98.5t-36 -174.5q-10 -41 -16.5 -62t-12.5 -31.5t-14 -12.5t-20 -2q-29 0 -90.5 1t-141.5 1t-170 1t-174 1q-199 0 -334 -2t-180 -2q-29 0 -33 3t-4 26z" />
<glyph unicode="[" horiz-adv-x="757" d="M180 -455q0 29 1 100.5t2 150.5t3 149.5t2 97.5q2 129 3.5 211t1.5 133v86v64v321q0 162 -5 322q0 14 -1 51t-1 76q0 41 -1 76.5t-1 50.5q0 12 3 14t20 2q8 0 28.5 -1t43 -3t42 -3t27.5 -1q59 -4 117 -4h104l129 2q10 0 14.5 -6.5t4.5 -28.5q0 -33 -5 -38t-26 -7 q-12 0 -47 -1t-72 -3t-67.5 -5t-36.5 -5q-10 -4 -14.5 -19.5t-4.5 -54.5q-2 -51 -4 -137t-3 -186.5t-1 -207.5q0 -106 -1 -199t-1 -167v-103v-79v-115q0 -63 1 -133t2 -129.5t3 -103.5t4 -58q4 -25 22.5 -31t68.5 -10q10 0 36.5 -1t54 -3t50 -3t26.5 -1q6 0 7.5 -6.5 t1.5 -34.5q0 -27 -6.5 -32t-16.5 -5q-8 0 -27.5 1t-42.5 1q-20 0 -38.5 1t-26.5 1h-39t-56.5 -1t-66.5 -3t-67 -4q-16 0 -38 -2t-41.5 -3t-33.5 -2t-16 -1q-10 0 -12.5 4t-2.5 26z" />
<glyph unicode="\" horiz-adv-x="909" d="M41 1448h178q72 -236 147.5 -465t155.5 -461q66 -184 113 -314t81 -223.5t57.5 -157t42 -113.5t35.5 -95t40 -102h-178q-16 55 -43 139t-58.5 179t-64.5 194.5t-61.5 187.5t-52 154.5t-34.5 97.5q-53 147 -92 256t-68.5 190.5t-52 145t-45 123t-46 122t-54.5 142.5z" />
<glyph unicode="]" horiz-adv-x="757" d="M43 1397q0 27 2 35t16 8l189 -2q43 0 108.5 2t122.5 6q10 0 37 2t35 2q14 0 18 -2t4 -14q0 -4 -1 -30t-1 -56q0 -31 -1 -59.5t-1 -41.5q-2 -78 -3 -160.5t-2 -169t-1 -172.5v-161q0 -37 1 -137.5t2 -232.5t3 -280.5t7 -279.5v-109q0 -23 -2.5 -26.5t-12.5 -3.5l-13 1 t-31.5 2t-38 3t-34.5 2q-68 4 -133 6t-108 2q-8 0 -27.5 -1t-42.5 -1q-20 0 -39.5 -1t-25.5 -1q-10 0 -16.5 5t-6.5 32q0 29 3 36t26 7q16 0 50 2t68.5 4t64.5 5t40 9q12 8 15 43t5 64q2 37 3.5 115.5t1.5 164.5v170v131v82t-1 178.5t-2.5 227.5t-2.5 231.5t-3 187t-4 97.5 q-2 12 -7 19.5t-20.5 10.5t-43 5t-74.5 4q-6 0 -23.5 1t-38 2t-36 2t-17.5 1q-8 6 -8 33z" />
<glyph unicode="^" horiz-adv-x="974" d="M-59 541l563 823h16l514 -823h-127l-305 483l-328 -483h-333z" />
<glyph unicode="_" horiz-adv-x="1024" d="M0 -154h1024v-102h-1024v102z" />
<glyph unicode="`" horiz-adv-x="1024" d="M158 1284q0 16 11 26.5t50 18.5q47 12 87 18.5t48 6.5q16 0 32.5 -15.5t59.5 -74.5q18 -25 40 -55.5t45.5 -62.5t45 -61.5t39.5 -54.5q0 -2 10.5 -15.5t10.5 -15.5q0 -4 -16 -4h-25q-18 0 -29.5 1t-24 6.5t-28.5 15.5t-43 29q-16 12 -61 40.5t-93.5 60.5t-87.5 57.5 t-43 29.5q-29 27 -28 49z" />
<glyph unicode="a" horiz-adv-x="1024" d="M57 190q0 45 7.5 78t22.5 54.5t39 36t56 24.5q109 35 209.5 50.5t188.5 25.5q0 80 -2.5 131t-14.5 80.5t-39.5 41t-79.5 11.5q-4 0 -22.5 -1t-39 -4t-36.5 -10.5t-16 -21.5q0 -6 3 -21.5t3 -19.5q0 -31 -17.5 -40t-50.5 -17q-47 -12 -89 -17.5t-50 -5.5q-29 0 -34 16.5 t-5 20.5q0 31 37 80t100.5 94t147.5 78t178 33q16 0 42 -2t54.5 -8.5t58 -18.5t54.5 -31q41 -31 58.5 -76.5t17.5 -113.5q0 -23 -2 -74t-3.5 -108.5t-3.5 -108.5t-2 -70q0 -78 7.5 -105.5t52.5 -27.5q35 0 70.5 10.5t64.5 24.5l10 -6v-63q0 -12 -2 -19.5t-8 -13.5 t-20.5 -12.5t-40.5 -18.5q-25 -12 -57 -24.5t-66.5 -22.5t-68.5 -17.5t-60 -7.5q-37 0 -60.5 11.5t-38 26t-21.5 28.5t-9 20q-23 -10 -54.5 -24.5t-72.5 -27.5t-90.5 -22.5t-102.5 -9.5q-100 0 -151.5 55.5t-51.5 159.5zM315 256q0 -72 22.5 -102.5t88.5 -30.5q37 0 76 9 t71 24l2 153q0 29 -5 48.5t-40 19.5q-16 0 -64 -8.5t-106 -36.5q-29 -14 -37 -30.5t-8 -45.5z" />
<glyph unicode="b" horiz-adv-x="1214" d="M2 1311q0 29 6 36t27 11q25 6 83 21.5t120.5 30.5t116 27.5t65.5 12.5q4 0 13 -3t9 -15q0 -2 -1 -13.5t-3 -26t-3 -27.5t-1 -19q-10 -100 -14 -228.5t-6 -306.5q51 18 94 31.5t83 24t78 15.5t79 5q86 0 157.5 -24.5t123.5 -74t81 -122t29 -168.5q0 -92 -24.5 -168 t-69 -135.5t-104.5 -103.5t-134 -73q-39 -14 -105.5 -28.5t-189.5 -14.5q-137 0 -225 12.5t-142 22.5q-12 4 -14 7t-2 12q0 20 4 47.5t6 50.5q2 33 3 65.5t2 91t2 155t4 257.5l-3 226v120q0 49 -1 81t-4 51.5t-7 33.5q-12 39 -38.5 47.5t-67.5 12.5q-20 4 -23.5 10t-3.5 33z M410 475q0 -72 1 -136.5t5 -94.5q6 -53 31.5 -84t56.5 -46.5t60.5 -20.5t45.5 -5q59 0 101.5 20.5t69 51t41 68.5t21.5 74t8 64.5t1 41.5q0 59 -11.5 119.5t-40 109.5t-79.5 80t-133 31q-57 0 -100 -9.5t-76 -19.5q0 -35 -1 -102.5t-1 -141.5z" />
<glyph unicode="c" horiz-adv-x="909" d="M76 365q0 123 45 220t119.5 163.5t172 102.5t201.5 36q55 0 101.5 -10.5t81 -26.5t54 -40t19.5 -50q0 -20 -13 -44t-32.5 -43.5t-41 -31.5t-38.5 -12q-16 0 -28 7t-41 30q-47 39 -92 49t-82 10q-23 0 -49.5 -5t-44.5 -22q-23 -18 -35.5 -46.5t-18.5 -59.5t-7 -56.5 t-1 -37.5q0 -23 3 -54.5t10.5 -67.5t22.5 -73t40 -67q33 -41 78 -58.5t98 -17.5q92 0 143.5 30.5t73.5 49.5h16l25 -76q4 -8 4 -23q0 -6 -29.5 -33.5t-83 -56t-126 -52.5t-156.5 -24q-98 0 -171 30t-122 82t-72.5 124t-23.5 154z" />
<glyph unicode="d" horiz-adv-x="1214" d="M76 360q0 111 42 205t116.5 162t178 106.5t228.5 38.5q41 0 69.5 -3t57.5 -9v154q0 82 -5 126t-18.5 64.5t-37 24.5t-60.5 4q-10 0 -12 12t-2 25q0 31 4 38t33 17q18 8 73.5 29.5t115 44t110.5 40t61 17.5q20 0 21 -18q0 -12 -2 -26.5t-4.5 -43.5t-6.5 -77t-6 -129 t-4 -198.5t-2 -285.5q0 -182 2 -317.5t6 -186.5q4 -47 18.5 -61.5t41.5 -14.5q57 0 92 10.5t35 0.5v-35q0 -25 -4.5 -32t-26.5 -15q-25 -8 -74 -21.5t-103.5 -27t-104.5 -23.5t-77 -10t-41 8t-21 22.5t-8 35t-1 46.5q-51 -23 -133 -52.5t-193 -29.5q-23 0 -50.5 2.5 t-58 10.5t-61.5 21.5t-57 35.5q-72 57 -101.5 145.5t-29.5 169.5zM362 469q0 -25 4.5 -83t29 -117.5t78.5 -105.5t153 -46q49 0 80.5 9t56.5 19l2 502q-2 10 -16.5 27.5t-41 34t-64.5 28t-85 11.5q-61 0 -100 -26t-60.5 -66t-29 -89t-7.5 -98z" />
<glyph unicode="e" horiz-adv-x="948" d="M76 383q0 125 39 219t103.5 157.5t147.5 95.5t171 32q137 0 233 -73t115 -196q2 -12 3 -16t9 -10q6 -4 9 -13.5t3 -50.5q0 -20 -8 -25t-45 -11q-102 -16 -164.5 -26.5t-113 -18t-100.5 -16.5t-126 -21q12 -74 40 -125.5t65 -82t80 -44t86 -13.5q55 0 109 14.5t99 47.5h13 l18 -31q4 -6 9.5 -15t5.5 -14q0 -10 -32 -37.5t-89.5 -57t-135 -53.5t-169.5 -24q-100 0 -171 33t-116 89.5t-66.5 130t-21.5 155.5zM342 494q29 6 65.5 13t70.5 15t58 14l23 5q37 10 51.5 24.5t14.5 36.5q0 14 -6.5 43t-21.5 57.5t-42 50t-66 21.5q-31 0 -58.5 -17.5 t-49 -52t-32.5 -86.5q-8 -38 -8 -87q0 -18 1 -37z" />
<glyph unicode="f" horiz-adv-x="757" d="M49 37q0 25 2 33t17 10q39 4 61.5 11t34.5 25.5t17 55.5t7 102q2 63 3.5 134t2.5 134.5t1 112.5v74l-111 -2q-12 0 -16.5 6t-4.5 25q0 25 2.5 37t14.5 18l117 45q2 61 6 120.5t24.5 116t63.5 114t123 116.5q53 39 107 63.5t103.5 38t90.5 18.5t67 5q41 0 85 -7t81 -24.5 t60.5 -44t23.5 -63.5q0 -25 -18.5 -49.5t-44 -44t-51 -31.5t-39.5 -12q-25 0 -42.5 17t-45.5 42q-10 10 -40 26.5t-96 16.5q-70 0 -107.5 -21.5t-56 -69.5t-22.5 -127t-4 -194l270 2q23 0 29 -10v-57q0 -41 -4 -57.5t-27 -16.5l-270 4q0 -23 -1 -69t-1 -103v-117 q0 -59 1 -113.5t2 -93t3 -53.5q4 -37 14.5 -56.5t29.5 -28.5t50 -10t76 -1q35 0 40 -6t5 -39t-20.5 -38t-55.5 -5q-18 0 -42.5 1t-57.5 3q-33 0 -73 1t-89 1q-35 0 -74 -1t-73 -1q-35 -2 -66 -3t-49 -1q-23 0 -28 6t-5 35z" />
<glyph unicode="g" d="M35 -326q0 33 1 54.5t6 36t16.5 26.5t31.5 27q20 14 37.5 24.5t40 21.5t52.5 24.5t77 33.5q-23 6 -45.5 15.5t-46.5 29.5q-23 18 -39 45t-16 66q0 29 7 46t26.5 31.5t55 29t93.5 34.5q-117 33 -183.5 105.5t-66.5 195.5q0 70 26.5 135.5t81 116.5t138.5 83t198 32 q86 0 131 -13.5t68 -21.5q72 10 146.5 11t148.5 1q23 0 27 -21.5t4 -54.5q0 -43 -7.5 -55t-29.5 -12h-146q18 -29 34 -61.5t16 -92.5q0 -86 -41 -148.5t-99.5 -103.5t-123 -64.5t-113.5 -35.5q-8 -2 -34 -9t-54.5 -14.5t-52 -13.5t-25.5 -8q-14 -4 -15 -20q0 -18 16.5 -31 t44.5 -20t63.5 -10t74.5 -5q100 -6 188.5 -14.5t154 -33t103 -72.5t37.5 -132q0 -78 -53 -147.5t-141 -123t-205 -84t-242 -30.5q-29 0 -74.5 3t-94 13.5t-93.5 26.5t-73 45q-20 20 -25.5 47t-5.5 92zM246 -285q0 -41 27.5 -66.5t67.5 -41t86 -21.5t83 -6q70 0 129 14.5 t100 39t64.5 57t23.5 69.5q0 33 -17 53.5t-41 32t-48.5 15.5t-38.5 6t-52 5t-80 6t-80 6t-52 5q-76 -41 -124 -75.5t-48 -98.5zM334 612q0 -16 2 -41.5t10 -56.5t24.5 -64.5t45.5 -66.5q35 -41 68.5 -54.5t62.5 -21.5q16 8 37.5 20.5t41 34t33 54.5t13.5 82q0 45 -12.5 97 t-37 95t-61.5 72t-86 29q-10 0 -32.5 -4.5t-47 -21.5t-43 -53t-18.5 -100z" />
<glyph unicode="h" horiz-adv-x="1251" d="M43 39q0 33 7 39t38 10q33 2 51.5 18.5t27.5 44t12 66.5t3 88q2 66 3 123t1 113v110v119v96q0 68 -2 140.5t-4 134t-8 82.5q-10 35 -31.5 41t-62.5 8q-23 2 -28 7t-5 30q0 27 4 33t27 16q20 8 72.5 24.5t110.5 33t107.5 28.5t61.5 12q29 0 34 -10t5 -23q0 -4 -2 -22.5 t-3 -42t-3 -44t-2 -28.5q-2 -49 -4 -112.5t-3 -131t-1 -139.5v-135q27 14 69.5 35.5t94 41t109 33t114.5 13.5q12 0 39.5 -3t59.5 -14.5t64.5 -35t57.5 -62.5q6 -12 12 -26.5t10 -40t6 -64.5t2 -96v-365q2 -35 5.5 -53t13.5 -28.5t32.5 -13.5t61.5 -7q16 -2 20.5 -13.5 t4.5 -27.5q0 -29 -8.5 -36t-34.5 -7q-14 0 -50 1t-75 1t-74 1t-47 1t-45 -1t-68 -1t-65.5 -1t-42.5 -1q-25 0 -29 8t-4 37t5 34t34 11q27 6 47 14.5t31 34.5q6 18 10 49t6 66t2 67v58q0 86 -3 148.5t-20.5 104.5t-54.5 62.5t-106 20.5q-53 0 -97 -11.5t-85 -25.5h-2 q0 -20 1 -61.5t1 -94.5v-108q0 -55 1 -106.5t2 -91.5t3 -58q4 -49 28.5 -59.5t59.5 -10.5q27 -2 32 -11t5 -34t-5.5 -34t-27.5 -9q-14 0 -47 1t-70 1t-68.5 1t-44.5 1q-14 0 -48.5 -1t-73.5 -1t-73 -1t-46 -1q-25 0 -30 8t-5 33z" />
<glyph unicode="i" horiz-adv-x="645" d="M37 39q0 29 5 36t36 11q57 8 80.5 32.5t31.5 84.5q6 41 7.5 134t1.5 202q0 51 -2 83.5t-12.5 52t-30 30t-52.5 16.5q-31 4 -36 9t-5 32q0 31 5.5 37t31.5 14l254 74q29 8 53.5 13t43.5 5q12 0 22 -4t10 -18l-12 -140q-2 -33 -3 -63.5t-2 -69.5t0 -88v-112v-66t0.5 -88 t3.5 -82t7 -49q10 -29 41 -34t90 -9q23 -2 27 -12.5t4 -28.5q0 -23 -7 -34t-30 -11q-68 0 -136.5 3t-135.5 3q-66 0 -129.5 -3t-128.5 -3q-16 0 -24.5 7t-8.5 36zM197 1223q0 33 15 60.5t38.5 48t50.5 32.5t51 12q25 0 51.5 -11t48 -31.5t35 -46t13.5 -54.5 q0 -31 -14.5 -59.5t-36 -50t-48 -34t-53.5 -12.5q-25 0 -51.5 11.5t-49 31t-36.5 46t-14 57.5z" />
<glyph unicode="j" horiz-adv-x="606" d="M-86 -453q0 49 42 81t85 32q18 0 31.5 -5t31.5 -20q33 -27 43.5 -31.5t20.5 -4.5q20 0 26.5 27.5t6.5 117.5q0 66 1 140.5t1 150.5v153v144q0 106 -2 165.5t-5 91.5t-6.5 42t-7.5 18q-12 23 -36.5 29t-69.5 10q-16 0 -19.5 7t-3.5 34t6.5 33t34.5 16q16 6 56 21.5 t85.5 33t83 32t48.5 18.5q20 8 47.5 16t44.5 8q14 0 17 -7t3 -17q0 -39 -2 -91.5t-4 -91.5q-4 -154 -4 -233v-123v-242t-1 -146t-2 -82t-3 -48q-12 -111 -66.5 -183.5t-121 -116.5t-129 -61.5t-89.5 -17.5q-10 0 -33.5 2t-48 12.5t-43 30.5t-18.5 55zM203 1235q0 33 15 60.5 t39 49t51.5 34t51.5 12.5q25 0 50.5 -12.5t47 -33t36 -47t14.5 -53.5q0 -31 -14.5 -59.5t-36 -50t-49 -33.5t-54.5 -12q-25 0 -51.5 11t-49 30.5t-36.5 46t-14 57.5z" />
<glyph unicode="k" horiz-adv-x="1175" d="M39 49q0 20 9 24.5t44 10.5q33 4 51.5 15.5t26.5 40t10 84t4 147.5q2 66 3 145.5t1 161.5v162v139q0 63 -1 104t-1 47q-2 66 -17 98t-85 32q-25 0 -34 4t-9 26q0 25 5 38t36 24q27 8 75 25.5t101 32.5t100.5 27.5t69.5 12.5q16 0 25.5 -3t9.5 -15q0 -4 -2 -27t-3 -51.5 t-3 -54t-2 -35.5q-4 -98 -4 -244v-352v-197q57 43 120.5 96.5t122.5 104.5q39 35 57.5 52t18.5 32q0 23 -26.5 26.5t-77.5 8.5q-14 2 -16.5 16t-2.5 31q0 23 11.5 25.5t35.5 2.5q16 0 44 -1t59 -1t60.5 -1t51.5 -1q63 0 111.5 2t85.5 2q16 0 19 -8t3 -24q0 -14 -2 -24.5 t-12 -14.5q-29 -8 -52.5 -16.5t-66.5 -33.5q-74 -41 -145.5 -86t-142.5 -92q10 -14 40.5 -52t71.5 -87t86 -103.5t87 -102.5t76 -83t48 -43q6 -4 28.5 -12t26.5 -14q4 -4 5.5 -17.5t1.5 -27.5q0 -27 -25 -27q-16 0 -44 1t-60 1q-31 0 -63 1t-56 1q-23 0 -55.5 -1t-67.5 -1 q-33 0 -61.5 -1t-41.5 -1q-16 0 -19 8t-3 23q0 33 4 40t33 9q16 0 28.5 4t12.5 16q0 16 -37 60l-229 264l-43 -33q1 -18 -1 -55q-1 -18 -1 -38q1 -20 1 -40q2 -41 2.5 -77t4.5 -50q8 -31 27.5 -38t54.5 -11q29 -2 35 -7t6 -34t-8.5 -35t-32.5 -6q-14 0 -49 1t-74 1t-74 1 t-47 1q-76 0 -142.5 -2t-91.5 -2q-16 0 -18 8t-2 43z" />
<glyph unicode="l" horiz-adv-x="645" d="M33 41q0 18 7 26.5t38 12.5q63 8 80.5 40t21.5 60q4 35 5 165t3 388v146q0 127 -1 203.5t-5 111.5q-4 47 -30.5 58.5t-85.5 21.5q-16 2 -21.5 10t-5.5 23q0 25 9 34t46 19q20 6 70.5 21.5t106 30.5t104.5 27.5t69 12.5q10 0 18.5 -4t8.5 -27q0 -29 -4 -75t-4 -74 q-2 -53 -3 -135t-2 -172.5t-1 -178.5v-149v-238q0 -92 1 -147t3 -83t6 -44q4 -23 30.5 -35t104.5 -12q33 0 39 -5t6 -36q0 -18 -3 -28.5t-21 -10.5q-27 0 -94.5 2t-190.5 2q-98 0 -175 -2t-102 -2q-18 0 -23 9t-5 34z" />
<glyph unicode="m" horiz-adv-x="1820" d="M51 41q0 31 6 37t45 12q29 4 50.5 20.5t29.5 69.5q2 14 3 49t2 73t1 73v53v61q0 35 -1 67t-4 58.5t-7 38.5q-10 35 -37.5 41t-62.5 6q-16 0 -20.5 9.5t-4.5 27.5q0 16 1 25.5t7.5 15.5t17.5 12.5t34 14.5t68.5 25.5t94 34t89 29.5t57.5 13q35 0 41 -8t6 -20q0 -29 -5 -67 t-9 -67q84 47 141 76t99 44.5t72 20.5t56 5q59 0 98 -16.5t63 -40t35 -47t15 -35.5q20 12 61.5 35.5t91.5 47t105.5 40t106.5 16.5q84 0 135 -32t78.5 -76t36 -90t8.5 -75v-376q0 -59 2 -91t12 -47.5t32.5 -18.5t63.5 -3q31 0 36 -7t5 -38q0 -23 -4 -31t-18 -8q-8 0 -36 1 t-69 1q-39 0 -87 1t-97 1q-70 0 -122 -2t-91 -2q-12 0 -15 9t-3 26q0 31 5 38t34 13t45 18.5t24 52.5t10 115.5t2 210.5q0 123 -37.5 178.5t-142.5 55.5q-35 0 -71.5 -7.5t-59.5 -17.5l-16 -8v-471q0 -43 4 -67.5t15 -38t28.5 -18.5t44.5 -5q31 0 38 -5t7 -38q0 -25 -6 -33 t-19 -8q-16 0 -82.5 2t-187.5 2q-72 0 -137.5 -2t-83.5 -2q-10 0 -12 14.5t-2 30.5q0 29 6 34t41 13q25 6 40 13.5t22 34t10 80.5t3 155q0 90 -3 153.5t-18 103.5t-50 58.5t-97 18.5q-20 0 -44.5 -4.5t-46 -10.5t-39 -14t-21.5 -14q-6 -6 -7 -15.5t-1 -40.5v-458 q0 -39 21.5 -48.5t62.5 -15.5q31 -4 39 -7t8 -18q0 -39 -3 -51t-20 -12q-18 0 -51 1t-70 1q-35 0 -68.5 1t-53.5 1q-25 0 -58 -1t-67 -1q-35 0 -68 -1t-55 -1q-18 0 -21.5 7t-3.5 36z" />
<glyph unicode="n" horiz-adv-x="1251" d="M45 35q0 29 6 37t39 12q47 6 67.5 28.5t24.5 69.5q4 31 5 103.5t1 185.5q0 66 -2 108t-11 67.5t-26.5 35.5t-48.5 12q-37 2 -46 7.5t-9 33.5q0 23 9 30t44 21q29 10 68 24.5l78 29t74.5 28t60.5 19.5q27 8 53 8q8 0 18.5 -2t10.5 -19q0 -6 -2 -23t-4 -38.5t-4 -41 t-2 -28.5q23 14 66.5 39t98 48.5t114 41t112.5 17.5q12 0 37.5 -2t55.5 -12.5t58.5 -30t50.5 -53.5q35 -51 40 -123t5 -144v-219q0 -86 5 -135q2 -31 8 -47.5t20.5 -24.5t39 -12t61.5 -6q25 -2 29.5 -10.5t4.5 -30.5q0 -23 -5 -32t-29 -9q-66 0 -128.5 2t-127.5 2 q-59 0 -121 -2t-121 -2q-18 0 -21.5 9t-3.5 28q0 29 4.5 34t26.5 11q45 10 60.5 27.5t23.5 66.5q2 18 3 57t2 83t1 85v68q0 35 -3 77t-18.5 78.5t-51 61.5t-99.5 25q-45 0 -100 -12.5t-82 -24.5q-10 -4 -14.5 -11.5t-4.5 -42.5v-92v-133t1.5 -130t3.5 -83q2 -20 5 -38.5 t13 -33t32.5 -22.5t63.5 -8q23 0 29 -6t6 -35q0 -23 -3 -31t-26 -8q-59 0 -118.5 2t-118.5 2q-100 0 -166 -2t-100 -2q-16 0 -19.5 7t-3.5 30z" />
<glyph unicode="o" horiz-adv-x="1175" d="M76 436q0 84 32.5 165t99 144.5t169 102.5t241.5 39q141 0 234.5 -44t148 -109.5t77 -142.5t22.5 -142q0 -109 -41 -197t-115 -149.5t-175 -94.5t-222 -33q-59 0 -140 17.5t-161 73.5q-29 18 -59.5 47.5t-55.5 72.5t-40 104.5t-15 145.5zM371 514q0 -47 9 -118.5 t34.5 -140.5t74 -118t127.5 -49q70 0 109 35t56.5 81t20.5 89t3 61q0 63 -12.5 137t-42 136.5t-77.5 104.5t-120 42q-68 0 -105.5 -36t-54 -82t-19.5 -88t-3 -54z" />
<glyph unicode="p" horiz-adv-x="1214" d="M35 707q0 29 6 36t29 17q31 14 69.5 32.5t78.5 38t79 38t72 30.5q35 14 61 14q29 0 29 -18q0 -6 -1 -20.5t-3 -31t-4 -29.5t-2 -19q78 41 159.5 66.5t169.5 25.5q72 0 137.5 -29t114.5 -82t79 -128t30 -169q0 -82 -31 -169t-96.5 -158.5t-169 -117.5t-248.5 -46 q-53 0 -87 5t-69 11q0 -47 1 -107.5t2 -115.5t2 -98t1 -52q2 -25 8.5 -43t19.5 -31.5t39 -19.5t69 -6q33 0 38 -5t5 -36q0 -27 -2.5 -35t-16.5 -8q-51 0 -123.5 2t-154.5 2q-90 0 -163 -2t-106 -2q-18 0 -18 39q0 27 8 33t43 10q29 4 46.5 14.5t26.5 23.5t12 27.5t5 26.5 q2 23 4 98.5t3 164.5t1 171v115v92q0 66 -1 138.5t-3 134t-6 79.5q-8 41 -33.5 49.5t-83.5 12.5q-16 2 -21 5t-5 26zM438 246q0 -16 4 -26.5t19 -20.5q29 -18 62.5 -28.5t64 -14.5t53.5 -5t27 -1q37 0 73.5 9t69.5 40q41 41 51 97t10 95q0 8 -1 36t-9 65.5t-24.5 78.5 t-47 77t-76.5 58.5t-114 22.5q-57 0 -92 -11.5t-64 -23.5q0 -18 -1 -64t-2 -107.5t-2 -134.5t-1 -142z" />
<glyph unicode="q" horiz-adv-x="1175" d="M76 373q0 104 35.5 197.5t106.5 164t174.5 111.5t236.5 41q53 0 125.5 -8.5t160.5 -36.5q55 27 74 33t27 6q39 0 39 -21q0 -23 -2 -44t-4 -50q-2 -35 -3.5 -87t-1.5 -110v-110v-92v-394q0 -150 2.5 -233.5t6.5 -117.5t10 -46q12 -23 28.5 -30t69.5 -17q12 -4 15.5 -11 t3.5 -32q0 -23 -5.5 -32t-31.5 -9q-35 0 -91.5 2t-148.5 2q-121 0 -177 -2t-87 -2q-14 0 -20.5 7t-6.5 34q0 29 8.5 35t43.5 10q59 10 83.5 44t28.5 116l6 375q-63 -29 -145 -60t-184 -31q-80 0 -159 25t-132 92q-27 33 -43.5 70t-25.5 73.5t-13 72.5t-4 65zM362 473 q0 -31 5.5 -88t32 -114.5t82 -99.5t155.5 -42q47 0 85.5 11.5t61.5 19.5v155q0 66 -1 113t-3 81t-4 64q-2 41 -12 77t-31.5 63.5t-57.5 44t-89 16.5q-74 0 -118 -27.5t-67.5 -71.5t-31 -97.5t-7.5 -104.5z" />
<glyph unicode="r" horiz-adv-x="872" d="M57 33q0 31 4.5 37t32.5 12q35 8 57.5 21.5t28.5 60.5q2 25 4 66.5t3 85.5t1 81v56v51q0 33 -2 64.5t-7 58t-13 37.5q-8 10 -22.5 15t-55.5 9q-12 0 -17 6t-5 37q0 10 2 16.5t10 11.5t23.5 12t39.5 17q10 4 34 13.5t52.5 22t57 25.5t51.5 25q37 20 54.5 25.5t41.5 5.5 q29 0 29 -18q0 -8 -2 -33t-4 -53.5t-4 -54t-2 -35.5q25 18 65.5 50t83.5 60.5t83 50t64 21.5q29 0 51.5 -15.5t39 -38t25.5 -49t9 -49.5q0 -41 -21.5 -74.5t-48 -57t-51 -37t-30.5 -13.5q-10 0 -15.5 9.5t-9.5 19.5q-23 47 -39 69.5t-61 22.5q-33 0 -76 -18.5t-61 -34.5 q-2 -2 -3 -15.5t-2 -31t-1 -31.5v-21q0 -160 2 -247.5t13 -131t35.5 -52.5t69.5 -9q59 -2 73.5 -9t14.5 -32q0 -33 -7 -41t-29 -8q-37 0 -115 2t-193 2q-47 0 -111.5 -2t-117.5 -2q-29 0 -29 35z" />
<glyph unicode="s" horiz-adv-x="872" d="M88 272q0 6 2 13.5t19 11.5l51 6q8 0 14 -6t16 -35q6 -20 21.5 -52t44.5 -62.5t72 -52t108 -21.5q74 0 105 43q18 27 18 63q0 27 -8 44.5t-32.5 36t-68.5 40t-118 55.5q-45 20 -87 42t-74 49.5t-51.5 66.5t-19.5 92q0 43 16.5 92.5t58.5 91t113.5 69.5t182.5 28 q12 0 44 -2t67 -6t59.5 -6.5t32.5 -2.5q6 0 22 4q4 0 9.5 1.5t7.5 1.5q10 0 14 -7.5t8 -42.5q2 -16 6 -45.5t8.5 -60.5t6.5 -56.5t2 -35.5t-6.5 -18.5t-44.5 -12.5q-25 -2 -32 2t-16 18q-43 86 -86 128t-122 42q-41 0 -65 -12t-36 -28.5t-15 -32t-3 -23.5q0 -25 11 -45 t35.5 -38.5t64.5 -37t98 -41.5q49 -18 96 -40.5t85 -53t61.5 -74t23.5 -102.5q0 -74 -27.5 -119t-48.5 -65q-18 -18 -42.5 -37t-61.5 -32t-87.5 -22.5t-119.5 -9.5q-33 0 -94.5 5.5t-130.5 15.5q-4 2 -15.5 3t-21.5 1q-4 0 -18.5 -2t-18.5 -2q-10 0 -15.5 6t-5.5 25 q0 41 1 77.5t-1 55.5q-2 33 -7 59.5t-5 52.5z" />
<glyph unicode="t" horiz-adv-x="720" d="M43 760q0 23 2 36t12 19q20 12 54 38t70 54.5t70 58t54 50.5q31 31 43 38t41 7q23 0 32 -3t9 -18q0 -16 -7 -66t-9 -110h293q16 0 20 -3t4 -15v-103q0 -14 -7 -16t-32 -2h-282q0 -49 -1 -114.5t-1 -131.5v-119q0 -53 2 -81q0 -18 3 -43t16 -46.5t41 -37t77 -15.5 q41 0 74.5 11.5t74.5 29.5h27v-53q0 -27 -5 -35t-38 -22q-117 -53 -194.5 -73t-129.5 -20q-43 0 -84 13.5t-63 34.5q-29 25 -47.5 71.5t-18.5 153.5q0 29 1 97.5t3.5 145t3.5 144t1 94.5h-93q-12 0 -14 8t-2 23z" />
<glyph unicode="u" horiz-adv-x="1214" d="M39 772q0 25 4 30t33 13q25 6 76 19.5t105 26.5t100 22.5t63 9.5q18 0 21 -9.5t3 -17.5q0 -16 -1 -35.5t-5 -82.5q-4 -66 -4 -152v-152q0 -72 4 -129t20.5 -99t48.5 -64.5t87 -22.5q18 0 46 3t54.5 9t45 14.5t22.5 20.5q2 8 3 37t1 72v96v106v131q0 37 -2 63t-11.5 43 t-30 24.5t-56.5 7.5q-47 0 -57.5 4t-10.5 33t6 37t47 12q27 2 66 7t80 11t77.5 11.5t61.5 9.5q35 6 57.5 10t32.5 4q20 0 21 -27q0 -6 -1.5 -29.5t-3.5 -49t-4 -50t-2 -34.5q-2 -35 -4 -91.5t-3 -123t-2 -136t-1 -127.5q0 -49 13.5 -67.5t45.5 -18.5q6 0 20.5 2t32 4.5 t32 4.5t20.5 2q18 0 18 -35q0 -29 -3 -35t-19 -12q-53 -16 -117.5 -32.5t-123 -29t-101.5 -20.5t-53 -8q-23 0 -27 15t-4 34v22q0 12 2 35q-29 -14 -70 -33.5t-88 -37t-97 -30t-97 -12.5q-23 0 -53.5 6.5t-61.5 20.5t-58.5 40t-43.5 64q-16 35 -20.5 82.5t-4.5 137.5l2 297 q0 37 -4 58t-14.5 31.5t-29 13.5t-48.5 3q-23 0 -29 5t-6 38z" />
<glyph unicode="v" horiz-adv-x="985" d="M-10 831q0 25 5 29t15 4q14 0 48 -1t73 -1t73 -1t46 -1t45 1t67 1q35 0 67 1t44 1q16 0 21.5 -5t5.5 -38q0 -27 -7.5 -33t-23.5 -8q-43 -4 -60.5 -11t-17.5 -34q0 -16 7.5 -43.5t29.5 -87.5q6 -16 26.5 -68.5t43 -110.5t43 -109.5t24.5 -63.5q10 23 33 76t48.5 113.5 t47 112.5t29.5 73q14 35 23.5 62.5t9.5 45.5q0 29 -23.5 36t-64.5 11q-23 2 -29 9.5t-6 21.5q0 35 5 43t21 8q12 0 40 -1t59 -1t57.5 -1t36.5 -1q8 0 26.5 1t39.5 1q23 0 42 1t25 1q16 0 22.5 -7t6.5 -38q0 -29 -19 -39q-29 -16 -50 -36.5t-50 -66.5t-73 -130t-117 -232 q-16 -35 -41 -85l-48.5 -97t-40 -83t-18.5 -38q-2 -6 -29 -12q-41 -6 -73.5 -10t-40.5 -4t-11.5 4t-11.5 24q-27 61 -59.5 137t-66.5 156t-66.5 157t-57.5 138q-23 57 -39 89t-30.5 50.5t-28.5 26.5t-35 16q-14 6 -16 13.5t-2 33.5z" />
<glyph unicode="w" horiz-adv-x="1478" d="M10 807q0 29 4 43t27 14q12 0 45 -1t70 -1t69.5 -1t44.5 -1q53 0 107.5 2t107.5 2q25 0 31 -11t6 -32q0 -20 -5 -30.5t-34 -12.5q-18 0 -45.5 -8t-27.5 -45q0 -10 6 -34.5t15 -53.5t18.5 -55.5t15.5 -40.5q25 -72 49.5 -142.5t50.5 -142.5l158 340q-10 29 -19.5 53.5 t-19.5 55.5q-20 51 -40.5 63t-49.5 16q-10 4 -10 15v26q0 23 7 31t23 8q14 0 47 -1t70 -1t70 -1t45 -1t42 1t62 1q33 0 61.5 1t41.5 1q20 0 26 -12t6 -37q0 -18 -4 -26.5t-30 -8.5q-41 -2 -67 -8t-26 -37q0 -10 8.5 -44t23 -81t30.5 -101t31.5 -104.5t29 -90.5t19.5 -58 q14 33 44 103.5t60.5 144.5t53 136t22.5 83q0 35 -20.5 43t-45.5 12q-37 4 -43 9.5t-6 37.5q0 25 6.5 32t18.5 7q45 0 104.5 -2t94.5 -2t70.5 2t45.5 2q14 0 17.5 -11t3.5 -26q0 -16 -2 -28.5t-17 -16.5q-23 -8 -41 -22.5t-50 -65.5t-82 -155.5t-136 -294.5 q-6 -12 -19.5 -45t-27.5 -68t-27.5 -66.5t-17.5 -44.5q-4 -10 -13.5 -15t-27.5 -9q-10 -4 -28.5 -7t-36 -5t-33 -4.5t-19.5 -2.5q-10 0 -18 7.5t-19 42.5q-33 104 -54 170.5t-35.5 112.5t-27 82t-26.5 79q-10 -23 -31.5 -64.5t-48 -98t-57.5 -122t-62 -135.5 q-14 -33 -20 -39t-35 -10q-33 -6 -67.5 -13t-57.5 -7q-10 0 -14 9t-17 46q-27 80 -56.5 169t-60 175t-60 165t-54.5 138t-44.5 74.5t-35.5 19.5q-23 6 -30 11.5t-7 17.5z" />
<glyph unicode="x" horiz-adv-x="1024" d="M12 29q0 25 3 36t24 17q10 2 19.5 5t21.5 11t28.5 22.5t41.5 39.5q61 59 122.5 119.5t122.5 121.5l-182 271q-23 33 -38 52t-30.5 30.5t-34 17.5t-47.5 16q-10 4 -13 9.5t-3 21.5q0 35 6 40t29 5q29 0 86 -2t115 -2q104 0 156.5 2t80.5 2q18 0 22.5 -8t4.5 -49 q0 -16 -4 -20.5t-25 -4.5q-23 -2 -38 -5t-15 -19q0 -10 14.5 -37t33.5 -56.5t39.5 -57t31.5 -42.5q14 14 39.5 41t51 55.5t44 54t18.5 38.5q0 20 -22.5 24t-65.5 6q-16 0 -21 5.5t-5 33.5q0 25 4 33t20 8q23 0 72 -2t96 -2q49 0 90 2t58 2q23 0 27.5 -9t4.5 -34 q0 -23 -5 -29t-27 -16q-23 -10 -44.5 -26.5t-68.5 -57.5q-16 -14 -29.5 -27.5t-36 -35t-57.5 -55t-92 -89.5q6 -8 24.5 -35.5t44 -64.5t53 -77t51 -74.5t42 -60.5t22.5 -32q29 -37 50.5 -48t58.5 -15q16 -2 20.5 -9.5t4.5 -33.5q0 -37 -21 -37q-10 0 -35.5 1t-60.5 1 q-33 0 -70 1t-67 1q-104 0 -156.5 -2t-87.5 -2q-20 0 -25.5 6t-5.5 25q0 35 6 42t29 7q31 0 47 4t16 20q0 12 -10 31t-16 31l-100 155q-18 -23 -42 -47t-46.5 -48.5t-40 -44t-25.5 -29.5q-18 -27 -19 -39q0 -20 24 -24.5t50 -4.5q35 0 41 -6t6 -39q0 -27 -5 -33t-27 -6 q-43 0 -80 2t-86 2q-41 0 -73 -2t-65 -2q-27 0 -38 4t-11 27z" />
<glyph unicode="y" horiz-adv-x="985" d="M-18 821q0 33 8 38t24 5q14 0 31.5 -1t42.5 -1t60.5 -1t84.5 -1q90 0 149.5 2t80.5 2q18 0 21 -7t3 -30q0 -31 -3 -37t-25 -8q-39 -4 -59.5 -11t-20.5 -36q0 -10 5 -30.5t13.5 -44t16.5 -46t12 -34.5q35 -92 68.5 -182.5t62.5 -166.5l143 324q10 23 22.5 51.5t23 55 t17.5 47t7 30.5q0 20 -16.5 26.5t-79.5 16.5q-18 4 -23.5 8.5t-5.5 30.5q0 31 6 37t19 6q49 0 97 -2t83 -2q14 0 35.5 1t42.5 1q23 0 41 1t28 1q20 0 23.5 -8t3.5 -37q0 -23 -6 -30t-35 -19q-29 -14 -51.5 -47t-59.5 -98q-123 -215 -241.5 -446.5t-241.5 -506.5 q-31 -66 -53.5 -109.5t-48 -70.5t-58 -38t-84.5 -11q-10 0 -25.5 1t-30.5 7t-25.5 18.5t-10.5 36.5q0 41 21.5 60.5t77.5 48.5q39 20 83 73.5t80.5 111t60 102.5t23.5 51q0 4 -7 23.5t-16 43t-18.5 45t-13.5 31.5q-35 84 -61.5 147.5t-50 122t-49 122t-58.5 149.5 q-35 84 -59.5 109.5t-49.5 29.5q-20 4 -27 10.5t-7 34.5z" />
<glyph unicode="z" horiz-adv-x="948" d="M47 31v28t2 16.5t6 11.5t13 13q0 2 59 72t156 195q55 70 94 122t71.5 96t63.5 88t72 99h-72q-43 0 -90 -3t-89 -11t-65 -23q-31 -18 -48 -50t-40 -83q-10 -18 -13 -23.5t-13 -5.5q-2 0 -13.5 1t-25 4.5t-24.5 8.5t-11 15q0 6 7 28.5t7 28.5q12 53 20.5 96.5t18.5 98.5 q2 14 5 19.5t16 5.5q12 0 28.5 -4.5t28.5 -8.5q12 -2 54 -3t91 -1h95h65q90 0 174 1t146 1q29 0 43 -5t14 -32q0 -12 -2 -22t-8 -21.5t-18.5 -28t-33.5 -42.5q-27 -35 -51 -66t-58 -75t-83 -109.5t-123 -167.5q-8 -12 -29.5 -42t-45 -62.5t-44 -61.5t-28.5 -39 q117 2 190.5 6t120.5 20.5t74.5 50.5t52.5 97q10 29 16 38t23 9l43 -4q16 -2 19 -7t3 -13q0 -6 -6 -32t-15 -60.5t-22.5 -77.5t-27.5 -82q-4 -16 -11.5 -31.5t-17.5 -15.5q-6 0 -23.5 3t-21.5 3q-47 4 -91 5t-112 1h-301q-59 0 -114.5 -2t-75.5 -2q-18 0 -21.5 5t-3.5 30z " />
<glyph unicode="{" horiz-adv-x="757" d="M39 477q0 31 2 38t18 7q76 0 118 16.5t61.5 57.5t23.5 110.5t4 176.5q0 23 1 42t1 48v74v122q0 100 32 157.5t86 85.5t127 34t155 6h22q18 0 21 -4q4 -4 4 -10v-29q0 -29 -5 -34t-24 -5q-53 -2 -87 -6t-54.5 -23.5t-27.5 -61.5t-7 -118v-442q-4 -104 -46 -159.5 t-145 -76.5q68 -14 107 -40.5t58.5 -65.5t23.5 -86t4 -103l-2 -366q0 -68 6 -111t24.5 -67.5t49.5 -34.5t80 -10h30q8 0 13 -2q4 -2 5 -15.5t1 -23.5v-19q0 -14 -4 -18t-21 -4h-18q-59 0 -117.5 2t-109 15t-91.5 41t-65 81q-10 20 -15.5 41.5t-8.5 58.5t-3 101v166v63t-1 87 t-2 83t-3 53q-6 45 -26.5 72t-48 39t-59.5 15t-58 3q-23 2 -26 6.5t-3 32.5z" />
<glyph unicode="|" horiz-adv-x="974" d="M389 -512v2048h197v-2048h-197z" />
<glyph unicode="}" horiz-adv-x="757" d="M39 -426q0 16 2 20q4 4 33 5q51 0 83.5 7t53 29.5t29 67.5t8.5 119v436q2 33 8 67.5t25.5 65.5t56.5 55.5t100 36.5q-72 14 -110.5 43t-56 72t-20.5 99.5t-3 125.5v78v129t-1 123t-1 66q-2 55 -11.5 84.5t-30 44t-54 17.5t-84.5 5q-14 0 -18.5 6t-4.5 33v29t4 10 q0 2 9.5 3t21.5 1h22h17q39 0 81 -1t81.5 -9t77.5 -24.5t71 -47.5q23 -23 35 -48.5t18 -66.5t7 -101t1 -150l3 -185q0 -78 4 -133t23.5 -92t59 -54.5t109.5 -17.5q23 0 27 -6t4 -33q0 -29 -3 -36t-26 -9q-74 -2 -114.5 -18.5t-59 -51t-21.5 -89t-3 -134.5v-311 q0 -35 -3.5 -78t-18.5 -85t-48 -77.5t-94 -54.5q-20 -6 -41 -10t-47.5 -7t-64.5 -4t-93 -1q-27 0 -33 1t-8 5q-2 8 -2 16v12v23z" />
<glyph unicode="~" horiz-adv-x="1298" d="M268 1200q12 25 35 61.5t54.5 71.5t73.5 60.5t93 25.5q29 0 71 -12t120 -39q55 -16 80.5 -20.5t38.5 -4.5q49 0 86.5 26t66.5 61l45 -29q-10 -18 -31.5 -54t-54.5 -73t-77 -63.5t-97 -26.5q-8 0 -18.5 1t-26.5 4t-40.5 10t-61.5 22q-55 20 -90 30.5t-76 10.5 q-61 0 -99 -37l-25.5 -25.5t-23.5 -25.5z" />
<glyph unicode="&#xa1;" horiz-adv-x="757" d="M188 -387q0 23 7.5 61.5t29.5 120.5q41 162 69 328t48 332q4 27 6 33t14 8l41 2q12 0 15.5 -10.5t7.5 -55.5q8 -92 17.5 -177t18.5 -155.5t16 -126t14 -88.5q12 -76 19 -118.5t10 -67.5t4 -39t1 -29q0 -51 -23.5 -70.5t-64.5 -25.5q-4 0 -25.5 -4t-48 -8t-54 -7t-46.5 -3 q-29 0 -43 10t-22.5 24.5t-9.5 32t-1 33.5zM219 725q0 31 16.5 60.5t41 52t53 36t53.5 13.5q29 0 57.5 -14.5t52 -37t39 -51t15.5 -57.5q0 -31 -15.5 -60.5t-40 -54t-54 -40t-58.5 -15.5t-57.5 16.5t-51 41t-37 54t-14.5 56.5z" />
<glyph unicode="&#xa2;" d="M141 596q0 92 29 176t83 151.5t133 115.5t181 67l-2 205q0 10 9.5 12t33.5 2q39 0 39 -8q0 -12 -1 -42t-1 -63q0 -31 -1 -58.5t-1 -37.5q70 4 124 -5t92 -27.5t57.5 -43t19.5 -51.5q0 -20 -13.5 -42.5t-33 -42t-41 -32t-37.5 -12.5t-28.5 7t-41.5 30q-31 27 -54 36 t-46 15v-557q90 -4 144.5 20.5t95.5 59.5h16l25 -72q4 -20 4 -26q0 -4 -18.5 -22.5t-53.5 -42t-88 -48t-121 -41.5q0 -12 1 -45t1 -70t1 -68.5t1 -43.5q0 -10 -43 -10h-28q-12 0 -13 14q0 8 1 37.5t1 64.5t1 67t1 44q-111 -6 -191.5 22.5t-132.5 82t-78 126t-26 156.5z M399 727q0 -133 48.5 -211t119.5 -113v553q-25 0 -54.5 -6t-55 -28.5t-42 -68.5t-16.5 -126z" />
<glyph unicode="&#xa3;" d="M84 573q0 53 2 66.5t12 13.5h135q-10 29 -23 79t-13 110q0 100 41 189t109.5 155.5t158.5 105.5t188 39q74 0 124 -22.5t81 -53t43 -64.5t12 -58q0 -33 -16 -55.5t-41 -37t-52.5 -21.5t-47.5 -7q-33 0 -45.5 19.5t-32.5 68.5q-4 8 -12.5 22.5t-24.5 28.5t-41 24.5 t-59 10.5q-41 0 -70 -15.5t-46 -40t-24.5 -54t-7.5 -60.5q0 -23 2 -39t8.5 -39t17.5 -54.5t30 -84.5q16 -47 25 -85t13 -61l218 6q14 0 14 -16l-2 -53q0 -25 -1 -33t-9 -8h-199q4 -16 4 -35v-27q0 -86 -24.5 -137t-53.5 -92q20 -2 42 -5t49.5 -10t64.5 -22.5t86 -42.5 q39 -20 63.5 -32.5t39 -18.5t23.5 -8t19 -2q18 0 37 9t19 28q0 12 -8.5 25.5t-18.5 26.5t-18.5 26.5t-8.5 25.5q0 31 26 55.5t64 24.5q25 0 42.5 -11.5t28.5 -27.5t15.5 -34.5t4.5 -35.5q0 -47 -20.5 -97t-59.5 -90t-96.5 -65.5t-129.5 -25.5q-33 0 -62.5 5t-65 16.5 t-78.5 29.5t-103 43q-41 16 -61.5 23.5t-34.5 11.5q-20 -23 -56 -50.5t-94 -27.5q-29 0 -56.5 19.5t-27.5 60.5q0 49 32 81t75 50t85 26.5t62 12.5q2 29 -1 54.5t-12 57t-25.5 74.5t-41.5 107h-182q-8 0 -9 5t-1 23z" />
<glyph unicode="&#xa4;" horiz-adv-x="1298" d="M223 293q0 4 12.5 16.5l22.5 22.5l113 110q-25 37 -39.5 70t-20.5 60.5t-7 47t-1 29.5q0 23 8 79t60 128l-113 111l-35 39q0 2 10.5 13t22.5 23.5t23.5 22.5t13.5 10t18.5 -15.5t20.5 -19.5q25 -25 39 -40t25.5 -25t21.5 -21.5t24 -25.5q23 16 74 41.5t133 25.5 q115 0 207 -67l111 112l39 35q2 0 13 -10t23.5 -22.5t22.5 -23.5t10 -13l-23 -24q-22 -24 -49.5 -51.5l-50 -50l-24.5 -24.5q23 -29 45 -82t22 -125t-22.5 -123t-44.5 -84q8 -8 32.5 -31.5t50 -50t45.5 -46.5l19 -21q0 -2 -9 -13.5t-21.5 -23.5t-23.5 -22.5t-15 -10.5 t-16.5 12.5l-22.5 22.5q-25 25 -39.5 40t-25.5 25.5t-21.5 20.5t-24.5 27q-37 -25 -70.5 -39.5t-61.5 -20.5t-47.5 -7t-27.5 -1q-41 0 -94 13.5t-113 54.5q-6 -6 -29.5 -30t-49 -50.5t-47 -47t-23.5 -20.5t-13.5 9.5t-23.5 21.5t-22.5 23.5t-10.5 15.5zM469 649 q0 -39 14.5 -71.5t39 -57t57 -38t69.5 -13.5t70 13.5t57.5 38t38.5 57t14 71.5q0 74 -52 127t-128 53t-128 -52t-52 -128z" />
<glyph unicode="&#xa5;" d="M-41 1266q0 37 14 37q20 0 83 -2.5t157 -2.5q111 0 159 3.5t64 1.5q18 -2 26.5 -6.5t8.5 -26.5q0 -33 -5 -42t-28 -9q-14 0 -34.5 -5.5t-20.5 -31.5q0 -12 13.5 -47t34 -82t45 -101.5t49 -105.5t44 -94t31.5 -66q39 68 74 132.5t63 121.5q12 23 26.5 54.5t29 63.5 t23.5 59.5t9 45.5q0 29 -16 39t-51 15q-29 4 -36 7t-7 25q0 31 3 42.5t19 11.5q29 0 68 -2.5t110 -2.5q59 0 108.5 2.5t63.5 2.5q12 0 20.5 -5.5t8.5 -27.5q0 -27 -2 -37t-18 -14q-16 -6 -32.5 -14.5t-36 -26t-45.5 -49t-58 -87.5q-10 -16 -28.5 -47.5t-37 -65.5t-36 -63.5 t-23.5 -44.5h196q10 0 11.5 -9t1.5 -32t-1 -36t-6 -15h-258l-79 -137h333q8 0 9.5 -11.5t1.5 -45.5q0 -23 -2 -29t-11 -6h-344v-97q0 -55 2 -110t6.5 -101.5t12.5 -64.5q16 -35 53 -41t84 -8q16 -2 19 -6t3 -25q0 -33 -2 -41t-18 -8q-43 0 -96 1t-109 1h-108h-97 q-43 0 -87 -1t-93 -1q-6 0 -7 12.5t-1 30.5q0 27 6 31t33 8q68 8 100.5 27.5t40.5 85.5q2 25 3 65.5t2 84.5t1 85v72h-336q-10 0 -10 22q0 43 2 56.5t13 13.5h305l-74 137h-231q-8 0 -11.5 3t-3.5 20q0 41 2 55t13 14h186q-18 37 -43 89.5t-52.5 104.5t-54 96t-47.5 67 q-23 23 -37 31t-51 18q-8 2 -9 12t-1 27z" />
<glyph unicode="&#xa6;" horiz-adv-x="974" d="M389 -358v716h197v-716h-197zM389 666v716h197v-716h-197z" />
<glyph unicode="&#xa7;" d="M123 393q0 51 17.5 96.5t42 83t53 67.5t51.5 52l-23.5 23.5t-30 39t-24.5 55.5t-10 73q0 88 41 167.5t107.5 140t151.5 96.5t173 36q113 0 174 -49t61 -111q0 -29 -17.5 -51t-40 -36.5t-44 -21.5t-29.5 -7q-14 0 -25.5 7t-50.5 42q-12 10 -43.5 23.5t-83.5 13.5 q-18 0 -47.5 -3.5t-59.5 -16.5t-50.5 -39.5t-20.5 -72.5q0 -35 12.5 -60.5t44 -54t89 -63.5t147.5 -88q49 -29 96 -60.5t84 -70.5t59.5 -86t22.5 -108q0 -49 -14 -91.5t-36.5 -79t-48 -67t-50.5 -55.5q39 -31 59.5 -65t29.5 -64.5t11 -54t2 -31.5q0 -66 -34.5 -141.5 t-98 -140t-154 -107.5t-202.5 -43q-66 0 -113 15t-77.5 36.5t-46 47t-15.5 46.5q0 27 15.5 51.5t37 43t45 29.5t39.5 11q10 0 17.5 -1t15.5 -6t20.5 -14.5t32.5 -23.5q12 -10 41 -22.5t94 -12.5q14 0 45 3t62.5 15.5t55.5 38t24 70.5q0 35 -13.5 61.5t-45.5 53.5t-84 57.5 t-130 75.5q-80 47 -139 87t-97 80t-56.5 84t-18.5 97zM315 512q0 -37 15.5 -65.5t41 -52t57.5 -43t63 -38.5l223 -131q12 16 27.5 41t15.5 66q0 59 -41 103t-133 97q-47 27 -109.5 66t-109.5 68q-14 -16 -32 -43t-18 -68z" />
<glyph unicode="&#xa8;" horiz-adv-x="1024" d="M201 1135q0 51 42 85.5t89 34.5t82 -37.5t35 -84.5q0 -49 -38 -85t-83 -36q-47 0 -87 36.5t-40 86.5zM575 1135q0 53 42.5 86.5t89.5 33.5t81.5 -36.5t34.5 -85.5t-37.5 -85t-83.5 -36q-47 0 -87 35.5t-40 87.5z" />
<glyph unicode="&#xa9;" horiz-adv-x="1521" d="M82 649q0 141 54 264t147.5 213.5t216.5 142.5t262 52t263 -53.5t216 -144.5t145.5 -213t53.5 -261t-53.5 -261t-144.5 -213t-215 -144.5t-265 -53.5q-139 0 -263 52.5t-216.5 142.5t-146.5 213t-54 264zM199 649q0 -121 46 -225.5t122.5 -181t179 -119.5t215.5 -43 t214 43t178 119.5t123 180t46 226.5q0 119 -44 222.5t-121 180t-178 122t-218 45.5t-219.5 -45.5t-179 -122t-120.5 -181t-44 -221.5zM344 649q0 61 22.5 128t80 123t153.5 92t242 36q12 0 39.5 -2t57.5 -3t55.5 -3t31.5 -2q4 0 16.5 4t16.5 4q18 0 24.5 -4t6.5 -12 t-3.5 -32t-5.5 -30q0 -8 -2 -31.5t-5 -49t-5 -46t-2 -22.5q-4 -6 -10 -7t-33 -1q-16 0 -20.5 7t-10.5 38q-4 20 -10 40.5t-24.5 35t-54.5 23.5t-99 9q-39 0 -83 -8t-82 -37t-62.5 -84t-24.5 -147q0 -82 20.5 -141.5t55.5 -97.5t83 -56.5t101 -18.5q86 0 131 35t66 78 q10 29 15 35t15 6q8 0 30 -4t22 -21q0 -4 -5.5 -27.5t-12.5 -51t-13 -52t-8 -28.5q-4 -6 -32 -14.5t-68 -14.5t-85 -10t-82 -4q-117 0 -199.5 30.5t-137 81.5t-80 117.5t-25.5 138.5z" />
<glyph unicode="&#xaa;" horiz-adv-x="872" d="M123 643q0 31 7 55.5t40 43t100.5 34t186.5 27.5q0 43 -1 70.5t-8.5 44t-22.5 22.5t-44 6q-6 0 -16.5 -1t-20.5 -2t-18.5 -4t-8.5 -7t1 -18.5t-1 -18.5q-4 -23 -57 -31q-29 -6 -50.5 -9t-29.5 -3q-23 0 -28 12.5t-5 16.5q0 20 25 50t66 57.5t95 47t113 19.5 q74 0 114 -17.5t58.5 -42t21.5 -50t3 -42.5q0 -10 -1 -39.5t-2 -63.5t-2 -66t-1 -44q0 -49 3 -60.5t26 -11.5q18 0 33.5 5.5t33.5 15.5l15 -6v-41q0 -14 -6.5 -22.5t-34.5 -22.5q-12 -6 -31 -13.5t-41.5 -13.5t-46 -10t-41.5 -4q-29 0 -52.5 11t-33.5 36q-23 -10 -76 -28.5 t-121 -18.5q-141 0 -141 137zM311 680q0 -45 12.5 -59.5t45.5 -14.5q27 0 50 6t34 11v88q0 16 -2 23t-15 7q-39 0 -82 -16q-33 -12 -38 -21.5t-5 -23.5z" />
<glyph unicode="&#xab;" horiz-adv-x="1136" d="M53 449q0 8 4 17t25 21q45 31 79 55.5t71.5 53.5t83.5 67.5t116 100.5q16 14 38 34.5t38 35.5q4 2 7 4t7 2t15.5 -5.5t23.5 -12.5t21.5 -15t9.5 -16t-61.5 -98t-196.5 -244q31 -33 75 -88.5t85 -110.5t69.5 -98t28.5 -52q0 -8 -8.5 -15t-19.5 -13t-21.5 -10.5t-14.5 -4.5 q-10 0 -26.5 14.5t-26.5 22.5q-92 86 -190.5 161t-200.5 146q-20 14 -25.5 25.5t-5.5 22.5zM547 449q0 8 4 17t24 21q45 31 79 55.5t72 53.5t84 67.5t116 100.5q16 14 37.5 34.5t37.5 35.5q4 2 7.5 4t7.5 2t15 -5.5t23.5 -12.5t21.5 -15t9 -16t-61.5 -98t-196.5 -244 q31 -33 75 -88.5t85 -110.5t69.5 -98t28.5 -52q0 -8 -9 -16t-20.5 -14.5t-22.5 -9.5t-13 -3q-8 0 -24.5 14.5t-26.5 22.5q-92 86 -190.5 161t-200.5 146q-20 14 -25.5 25.5t-5.5 22.5z" />
<glyph unicode="&#xac;" d="M102 717v137h859v-520h-320v383h-539z" />
<glyph unicode="&#xad;" horiz-adv-x="645" d="M82 365v190h481v-190h-481z" />
<glyph unicode="&#xae;" horiz-adv-x="1521" d="M82 649q0 141 54 264t147.5 213.5t216.5 142.5t262 52t263 -53.5t216 -144.5t145.5 -213t53.5 -261t-53.5 -261t-144.5 -213t-215 -144.5t-265 -53.5q-139 0 -263 52.5t-216.5 142.5t-146.5 213t-54 264zM199 649q0 -121 46 -225.5t122.5 -181t179 -119.5t215.5 -43 t214 43t178 119.5t123 180t46 226.5q0 119 -44 222.5t-121 180t-178 122t-218 45.5t-219.5 -45.5t-179 -122t-120.5 -181t-44 -221.5zM387 317q0 23 6 26t35 7q41 4 49 34t10 60q0 16 1 47t2.5 66t1.5 68v51q0 100 -1.5 156.5t-6.5 83t-15 32.5t-31 8q-12 0 -26.5 1t-16.5 4 q-4 4 -5 11t-1 13q0 23 7 27t28 4h117q14 0 52 1t79 2t77.5 2t51.5 1q16 0 61 -3t91 -21.5t82 -57.5t36 -113q0 -53 -19.5 -89t-45 -58.5t-51 -33.5t-35.5 -15q12 -29 31.5 -72t44 -86t52 -78t56.5 -45q2 0 10 -2t17.5 -3t17.5 -3l8 -2q14 0 14 -16q0 -18 -3 -24.5 t-11 -10.5q-16 -10 -34.5 -12.5t-32.5 -2.5q-111 0 -189 88.5t-143 235.5q-45 -4 -88 0v-61q0 -33 1 -65t3 -56.5t6 -36.5q6 -23 21.5 -26t56.5 -5q14 0 20 -3t6 -26q0 -20 -5 -23t-15 -3h-311q-45 -2 -55.5 1t-10.5 23zM672 664q43 -2 78.5 -1t63.5 13t43 40.5t15 84.5 q0 57 -17 89t-42 46t-54.5 16t-53.5 2q-23 0 -27 -4t-4 -26q0 -20 -1 -54t-1 -73v-74v-59z" />
<glyph unicode="&#xaf;" horiz-adv-x="1024" d="M184 1065v119q-2 16 2 19t17 3l311 -2h297q25 2 29 -1t4 -13v-119q2 -16 -2 -19t-15 -3l-313 2h-297q-25 -2 -29 1t-4 13z" />
<glyph unicode="&#xb0;" d="M227 1028q0 61 22.5 114.5t62.5 93.5t95.5 62.5t122.5 22.5q68 0 124.5 -22.5t96.5 -62.5t62.5 -93t22.5 -115q0 -61 -22.5 -115.5t-62.5 -94.5t-96.5 -62.5t-124.5 -22.5t-123 22.5t-95 62.5t-62.5 94.5t-22.5 115.5zM379 1028q0 -76 46 -120t105 -44t105.5 43t46.5 121 q0 74 -45 118t-107 44q-63 0 -107 -45t-44 -117z" />
<glyph unicode="&#xb1;" d="M72 18v117q0 16 3 19.5t21 3.5l434 -2h103h121q61 0 117.5 1t93.5 1q18 0 21 -2t3 -17v-116q2 -16 -2 -19.5t-20 -3.5h-76h-111h-131h-129h-108h-70h-244q-20 0 -23 2t-3 16zM72 618v72q0 29 1 42t2 18.5t3 5.5q4 2 18.5 1t20.5 -1h336v368q0 10 3 12.5t15 2.5h72 q29 0 42 -1t18 -2t5 -3v-377h252l107 2q16 0 19 -2t3 -17v-116q2 -16 -1 -19.5t-19 -3.5h-361v-252v-24v-35v-35v-23q0 -12 -16 -12h-74t-41 1t-19 2t-5 3v375h-336q-31 -2 -38 0t-7 18z" />
<glyph unicode="&#xb2;" horiz-adv-x="757" d="M76 545q0 16 5 25.5t23 27.5q8 8 35 36t62 64.5t71.5 77.5t63.5 72q14 16 33.5 40.5t37 54.5t30 63.5t12.5 70.5q0 61 -37 88t-72 27q-41 0 -67.5 -10.5t-43 -23.5t-23.5 -26.5t-9 -17.5q-4 -14 -11.5 -29.5t-17.5 -15.5q-6 0 -17.5 2t-22.5 6t-19.5 11.5t-8.5 17.5 q0 16 15.5 51t51.5 69t94 59.5t142 25.5q127 0 188.5 -60.5t61.5 -142.5q0 -80 -43 -141.5t-118 -126.5q-12 -10 -43 -34t-65 -50.5t-63.5 -50t-39.5 -31.5h165q59 0 88 3t37.5 7t14.5 14q4 8 14 33t14 31q6 12 19 12q14 0 32.5 -5t18.5 -15q0 -4 -5 -30t-12.5 -57.5 t-13.5 -60t-8 -37.5q-8 -31 -15 -40t-36 -9h-107h-120h-127h-121q-43 -4 -43 25z" />
<glyph unicode="&#xb3;" horiz-adv-x="757" d="M72 618q0 35 35.5 57.5t66.5 22.5q29 0 40 -13t30 -48q16 -31 37.5 -42t50.5 -11q41 0 64.5 16t34.5 40t14.5 49.5t3.5 43.5t-3.5 44t-14.5 48.5t-32.5 39t-58.5 16.5q-47 0 -72.5 -14.5t-42.5 -14.5q-8 0 -28 47q-6 14 41 33q172 68 172 174q0 10 -3.5 27.5t-12.5 33 t-27.5 26.5t-47.5 11q-8 0 -22 -2t-29.5 -7t-30 -15.5t-22.5 -24.5q-14 -27 -19.5 -33t-17.5 -6q-18 0 -38.5 13.5t-20.5 25.5q0 8 17.5 33.5t52 53.5t90 48.5t133.5 20.5q57 0 97 -14.5t64.5 -37t36 -49t11.5 -49.5q0 -43 -38 -95t-126 -87q20 0 57 -4t72 -22.5t61.5 -56.5 t26.5 -108q0 -66 -30 -118t-81 -87.5t-119.5 -55t-146.5 -19.5q-70 0 -114 13.5t-68.5 30.5t-33.5 35.5t-9 30.5z" />
<glyph unicode="&#xb4;" horiz-adv-x="1024" d="M385 999l15 21q14 22 37.5 54t51 71t54 74.5t47 64.5t31.5 41q16 20 27.5 24.5t19.5 4.5q6 0 29.5 -4t51 -9.5t52 -11.5t37.5 -10q27 -10 26 -35q0 -27 -23.5 -45t-56.5 -41q-31 -20 -68.5 -45t-76.5 -50.5t-77 -50t-68 -42.5q-18 -10 -28.5 -12.5t-45.5 -2.5h-23 q-12 0 -12 4z" />
<glyph unicode="&#xb5;" horiz-adv-x="1214" d="M39 772q0 25 4 30t33 13q25 6 76 19.5t105 26.5t100 22.5t63 9.5q18 0 21 -9.5t3 -17.5q0 -16 -1 -35.5t-5 -82.5q-4 -66 -4 -152v-152q0 -72 4 -129t20.5 -99t48.5 -64.5t87 -22.5q18 0 46 3t54.5 9t45 14.5t22.5 20.5l4 49v393q0 37 -2 63t-11.5 43t-30 24.5t-56.5 7.5 q-47 0 -57.5 4t-10.5 33t6 37t47 12q27 2 66 7t78 11t73.5 10t53.5 9q35 4 61.5 10t40.5 6q23 0 23 -27q0 -6 -1.5 -29.5t-3.5 -49t-4 -50t-2 -34.5q-2 -35 -4 -91.5t-3 -123t-2 -136t-1 -127.5q0 -49 13.5 -67.5t45.5 -18.5q6 0 20.5 2t32 4.5t32 4.5t20.5 2q18 0 18 -35 q0 -29 -3 -35t-19 -12q-53 -16 -117.5 -32.5t-123 -29t-101.5 -20.5t-53 -8q-23 0 -27 15t-4 34v22q0 12 2 35q-33 -16 -75 -35.5t-88 -37t-95 -29t-98 -11.5q-45 0 -60.5 10.5t-26.5 22.5q2 -27 11.5 -96.5t18.5 -144t16.5 -136t7.5 -73.5q0 -63 -43 -84q-8 -4 -31 -9.5 t-47.5 -9.5t-47 -7t-30.5 -3q-31 0 -40 26.5t-9 55.5q0 14 4 51t10 78t11.5 77t5.5 50q10 102 12 194.5t2 176.5l-2 516q-4 41 -26.5 49t-80.5 10q-12 2 -17 8t-5 35z" />
<glyph unicode="&#xb6;" horiz-adv-x="1478" d="M141 647q0 113 36 211t109.5 172t187.5 116t269 42q18 0 65.5 -2t100 -3t97.5 -3t63 -2q-2 59 -4 123.5t-6 103.5h112q-4 -86 -6 -149.5t-2 -79.5q59 0 92 1t50.5 6t22.5 13t7 25q4 33 13.5 61.5t56.5 28.5q31 0 57.5 -19.5t26.5 -58.5q0 -8 -3 -22.5t-12.5 -31 t-28 -31.5t-48.5 -26q-33 -10 -83 -12t-151 -6q-2 -143 -2 -287v-285q0 -33 1 -109.5t2 -161.5t2 -160.5t1 -104.5q0 -82 -3 -166t-19 -158q-8 -33 -24.5 -65.5t-42 -59t-62.5 -43t-84 -16.5q-66 0 -109 36t-43 97q0 55 37 86t82 31q23 0 37 -6t25 -13q20 -16 27 -19t18 -3 q29 0 39 28.5t14 71.5q6 53 8 128t2 161q-14 0 -53 -2t-82 -3t-83 -2t-56 -1q-152 0 -273 41t-206 116.5t-130 180t-45 231.5zM815 451q0 -96 2 -181q2 -41 6 -63.5t27.5 -33.5t74 -13t142.5 0v944q-41 2 -79 1t-64 -1q-29 -2 -59.5 -7t-39.5 -34q-4 -12 -6 -71.5t-3 -131.5 t-1 -137v-92v-180z" />
<glyph unicode="&#xb7;" horiz-adv-x="530" d="M102 426q0 31 15.5 60.5t40 54t54.5 40t58 15.5q29 0 57.5 -16.5t51 -41t37 -54t14.5 -56.5q0 -33 -16.5 -61.5t-41 -51t-53 -36t-53.5 -13.5q-29 0 -58.5 14.5t-53 38t-38 51t-14.5 56.5z" />
<glyph unicode="&#xb8;" horiz-adv-x="1024" d="M375 -399q0 12 5 27.5t14 30.5t21.5 25.5t24.5 10.5t29.5 -7t46.5 -28q18 -14 29.5 -18t21.5 -4q35 0 35 32q0 29 -21.5 47.5t-68.5 46.5q-49 27 -59.5 35t-10.5 19q0 14 10.5 29.5t36.5 46.5q29 35 45.5 55t27.5 33.5t17.5 21.5t16.5 19h82q-33 -47 -51.5 -75t-18.5 -32 q0 -14 37 -35q12 -8 28.5 -18t31 -27.5t24.5 -41t10 -56.5t-18.5 -72t-51 -71.5t-79.5 -55t-103 -22.5q-35 0 -56 9t-33.5 23.5t-17.5 27.5t-5 24z" />
<glyph unicode="&#xb9;" horiz-adv-x="757" d="M143 557q0 16 10.5 19.5t55.5 7.5q29 4 53.5 12t32.5 45q8 39 8 86v143v68v74t-1 61.5t-3 36.5q-6 29 -25 29q-39 0 -65.5 -11.5t-42.5 -11.5q-12 0 -14 11.5t-2 23.5q0 18 6 23.5t28 15.5q66 27 107 45t74 37q20 10 46.5 25.5t32.5 15.5q4 0 13.5 -2t19.5 -7.5 t18.5 -11.5t8.5 -14q0 -27 -1 -89.5t-2 -131t-2 -129.5t-1 -84v-103q0 -39 1 -64.5t3 -38.5t4 -22q8 -23 35.5 -27.5t97.5 -10.5q10 0 11 -10.5t1 -20.5q0 -16 -2 -22.5t-16 -6.5q-33 0 -100.5 2t-135.5 2q-29 0 -63.5 -1t-67.5 -1t-61.5 -1t-42.5 -1t-16.5 8.5t-2.5 30.5z " />
<glyph unicode="&#xba;" horiz-adv-x="872" d="M115 784q0 51 21.5 100.5t63.5 87.5t105.5 60.5t149.5 22.5q88 0 146 -27t92 -65.5t48.5 -86t14.5 -85.5q0 -66 -27 -119.5t-73 -90t-110.5 -56t-137.5 -19.5q-27 0 -76 7t-97.5 36t-84 84t-35.5 151zM324 829q0 -29 5 -69.5t18 -79.5t39 -66.5t67 -27.5q33 0 51 17.5 t27.5 42t11.5 50t2 39.5q0 39 -7.5 81t-22.5 78t-39.5 58.5t-61.5 22.5q-33 0 -51.5 -19.5t-26.5 -44t-10 -48.5t-2 -34z" />
<glyph unicode="&#xbb;" horiz-adv-x="1136" d="M53 104q0 10 62.5 100t193.5 242q-29 33 -72.5 88.5t-84.5 110.5t-70 99t-29 53q0 8 9.5 16t21.5 14.5t22 9.5l11 3q10 0 26.5 -14.5t26.5 -22.5q92 -86 189.5 -162t201.5 -147q18 -12 24.5 -22.5t6.5 -22.5q0 -8 -4 -17.5t-25 -23.5q-49 -33 -84 -56.5t-70.5 -51.5 t-80.5 -66.5t-117 -100.5q-16 -14 -37.5 -34.5t-38.5 -35.5q-6 -6 -12 -6q-4 0 -15.5 5.5t-23.5 12.5t-21.5 15t-9.5 14zM547 104q0 10 62.5 100t193.5 242q-29 33 -73 88.5t-85 110.5t-69.5 99t-28.5 53q0 8 9 16t21.5 14.5t22.5 9.5l10 3q10 0 26.5 -14.5t27.5 -22.5 q92 -86 189 -162t202 -147q18 -12 24 -22.5t6 -22.5q0 -8 -4 -17.5t-24 -23.5q-49 -33 -84 -56.5t-71 -51.5t-81 -66.5t-116 -100.5q-16 -14 -38 -34.5t-38 -35.5q-6 -6 -13 -6q-4 0 -15 5.5t-23.5 12.5t-21.5 15t-9 14z" />
<glyph unicode="&#xbc;" horiz-adv-x="1669" d="M143 557q0 16 10.5 19.5t55.5 7.5q29 4 53.5 12t32.5 45q8 39 8 86v143v68v74t-1 61.5t-3 36.5q-6 29 -25 29q-39 0 -65.5 -11.5t-42.5 -11.5q-12 0 -14 11.5t-2 23.5q0 18 6 23.5t28 15.5q66 27 107 45t74 37q20 10 46.5 25.5t32.5 15.5q4 0 13.5 -2t19.5 -7.5 t18.5 -11.5t8.5 -14q0 -27 -1 -89.5t-2 -131t-2 -129.5t-1 -84v-103q0 -39 1 -64.5t3 -38.5t4 -22q8 -23 35.5 -27.5t97.5 -10.5q10 0 11 -10.5t1 -20.5q0 -16 -2 -22.5t-16 -6.5q-33 0 -100.5 2t-135.5 2q-29 0 -63.5 -1t-67.5 -1t-61.5 -1t-42.5 -1t-16.5 8.5t-2.5 30.5z M494 0q14 25 45.5 87.5t73.5 147t91.5 185t98.5 203t96 200t85 175t62.5 129t28.5 61.5q8 20 14.5 32.5t10.5 23.5t9 23.5t13 30.5h123q-16 -25 -33.5 -59.5t-38 -73.5t-40 -78.5t-37.5 -76.5q-39 -80 -86 -177.5t-95.5 -196.5t-93.5 -192.5t-80 -167.5q-35 -70 -56 -112.5 t-33.5 -71.5t-19.5 -49t-16 -43h-122zM928 213q0 43 1 54.5t9 19.5q49 53 110.5 123.5t118.5 136.5q39 45 90.5 106.5t90.5 104.5q14 16 23 24.5t22 8.5l86 -5q10 -2 15 -5t5 -15v-35q0 -23 -1 -49.5t-2 -49t-1 -30.5v-295h107q10 2 12 -4t2 -22q0 -20 -2 -38t-2 -34 q0 -12 -4 -15.5t-17 -3.5l-96 3l2 -170q0 -10 -2 -17.5t-14 -7.5h-170q-12 0 -13 20l2 175h-172t-170 -3q-18 0 -24 3.5t-6 19.5zM1065 307h43h68h71h53v123t1.5 79t3.5 54.5t4 46.5q-61 -88 -125 -163.5t-119 -139.5z" />
<glyph unicode="&#xbd;" horiz-adv-x="1669" d="M109 557q0 16 10 19.5t55 7.5q29 4 53.5 12t32.5 45q8 39 8 86v143v68v74t-1 61.5t-3 36.5q-6 29 -24 29q-39 0 -66 -11.5t-43 -11.5q-12 0 -14 11.5t-2 23.5q0 18 6 23.5t29 15.5q66 27 106.5 45t73.5 37q20 10 46.5 25.5t33.5 15.5q4 0 13 -2t19.5 -7.5t18.5 -11.5 t8 -14q0 -27 -1 -89.5t-2 -131t-2 -129.5t-1 -84v-103q0 -39 1 -64.5t3 -38.5t4 -22q8 -23 36 -27.5t97 -10.5q10 0 11 -10.5t1 -20.5q0 -16 -2 -22.5t-16 -6.5q-33 0 -100.5 2t-135.5 2q-29 0 -63.5 -1t-67.5 -1t-61.5 -1t-42.5 -1t-16 8.5t-2 30.5zM465 0q12 23 44 85 t76 151.5t96 196t105.5 216t104.5 215t91 191.5t67.5 144t33.5 75q4 6 5.5 12t5.5 12h123q-31 -53 -72 -135t-78 -153l-354 -734q-35 -70 -56.5 -112.5t-34 -71.5t-19.5 -49t-15 -43h-123zM985 23q0 16 5 25t24 28q8 8 34.5 35.5t61.5 64.5t72 78t63 72q14 16 33.5 40.5 t37 54.5t30 63.5t12.5 70.5q0 61 -37 88t-72 27q-41 0 -67.5 -10.5t-43 -23.5t-23.5 -26.5t-9 -17.5q-4 -14 -11.5 -29.5t-17.5 -15.5q-6 0 -17 2t-22.5 6t-19.5 11t-8 18q0 16 15 51t51 68.5t94.5 59t142.5 25.5q127 0 188.5 -60t61.5 -142q0 -80 -43 -141.5t-119 -127.5 q-12 -10 -43 -33.5t-64.5 -50t-63.5 -50t-40 -31.5h166q59 0 88 3t37 7t14 14q4 8 14.5 32.5t14.5 31.5q6 12 18 12q14 0 32.5 -5t18.5 -16q0 -4 -5 -29.5t-12 -57t-13.5 -60.5t-8.5 -37q-8 -31 -15 -40t-36 -9h-106h-121h-127h-121q-43 -4 -43 25z" />
<glyph unicode="&#xbe;" horiz-adv-x="1669" d="M72 618q0 35 35.5 57.5t66.5 22.5q29 0 40 -13t30 -48q16 -31 37.5 -42t50.5 -11q41 0 64.5 16t34.5 40t14.5 49.5t3.5 43.5t-3.5 44t-14.5 48.5t-32.5 39t-58.5 16.5q-47 0 -72.5 -14.5t-42.5 -14.5q-8 0 -28 47q-6 14 41 33q172 68 172 174q0 10 -3.5 27.5t-12.5 33 t-27.5 26.5t-47.5 11q-8 0 -22 -2t-29.5 -7t-30 -15.5t-22.5 -24.5q-14 -27 -19.5 -33t-17.5 -6q-18 0 -38.5 13.5t-20.5 25.5q0 8 17.5 33.5t52 53.5t90 48.5t133.5 20.5q57 0 97 -14.5t64.5 -37t36 -49t11.5 -49.5q0 -43 -38 -95t-126 -87q20 0 57 -4t72 -22.5t61.5 -56.5 t26.5 -108q0 -66 -30 -118t-81 -87.5t-119.5 -55t-146.5 -19.5q-70 0 -114 13.5t-68.5 30.5t-33.5 35.5t-9 30.5zM494 0q10 20 40.5 80.5t74.5 147.5t95.5 193.5t105.5 216.5t105.5 217.5t94.5 197.5t72.5 154.5t39.5 90.5h123q-14 -25 -32.5 -59.5t-38 -73.5t-40 -78.5 t-38.5 -76.5q-37 -78 -85 -175.5t-96.5 -197.5t-94.5 -194.5t-79 -166.5q-35 -70 -55 -112.5t-32.5 -71.5t-20.5 -49t-17 -43h-122zM928 213q0 43 1 54.5t9 19.5q49 53 110.5 123.5t118.5 136.5q39 45 90.5 106.5t90.5 104.5q14 16 23 24.5t22 8.5l86 -5q10 -2 15 -5t5 -15 v-35q0 -23 -1 -49.5t-2 -49t-1 -30.5v-295h107q10 2 12 -4t2 -22q0 -20 -2 -38t-2 -34q0 -12 -4 -15.5t-17 -3.5l-96 3l2 -170q0 -10 -2 -17.5t-14 -7.5h-170q-12 0 -13 20l2 175h-172t-170 -3q-18 0 -24 3.5t-6 19.5zM1065 307h43h68h71h53v123t1.5 79t3.5 54.5t4 46.5 q-70 -98 -130.5 -170.5t-113.5 -132.5z" />
<glyph unicode="&#xbf;" horiz-adv-x="872" d="M70 20q0 61 25.5 105.5t60 73t70.5 45t59 24.5q59 23 99 38.5t64.5 26.5t39 19t22.5 17q10 10 13 28.5t3 65.5q0 14 1 17t5 3q6 2 13 2h37q10 0 14 -4t8 -24q14 -61 21.5 -96t11.5 -54.5t5 -30t1 -22.5q0 -37 -11 -62.5t-37 -47t-69 -45t-104 -54.5q-59 -29 -95 -47 t-56.5 -35.5t-27.5 -35t-7 -44.5q0 -53 39.5 -95t105.5 -42q35 0 73 8t64 19q37 16 58.5 25t36 14.5t23.5 6.5t19 1q20 0 38 -14.5t30 -36t19.5 -46t7.5 -47.5q0 -53 -29 -80.5t-64.5 -42t-69.5 -16.5t-44 -2q-86 0 -155 29.5t-121 76t-90 103.5t-61.5 110.5t-34.5 98.5 t-11 67zM383 725q0 31 16.5 60.5t41 52t53 36t53.5 13.5q29 0 58.5 -14.5t53 -38t38 -52t14.5 -55.5q0 -31 -15.5 -60.5t-40 -54t-55.5 -40t-59 -15.5q-29 0 -56.5 16.5t-50 41t-37 54t-14.5 56.5z" />
<glyph unicode="&#xc0;" horiz-adv-x="1441" d="M2 29q0 20 3 33.5t20 17.5q31 6 53 25.5t50 62.5t64.5 116.5t94.5 190.5q25 51 66.5 140.5t87.5 187.5t88 193.5t67 160.5q16 41 25.5 66.5t15.5 40t10 19.5t12 7q86 14 118 18.5t48 4.5q12 0 18.5 -11.5t10.5 -29.5q16 -53 40 -117.5t51.5 -134.5t56 -140.5t55.5 -136.5 q39 -98 67.5 -167.5t53 -128t48 -113.5t54.5 -125q29 -66 58.5 -91.5t82.5 -35.5q16 -2 18.5 -13.5t2.5 -29.5q0 -23 -2 -33t-19 -10q-72 0 -139.5 2t-138.5 2q-57 0 -125 -2t-141 -2q-25 0 -30 8t-5 25q0 27 3 38t23 13q47 4 81 16.5t34 53.5q0 12 -12.5 52t-29.5 87 t-33.5 91t-24.5 66q-41 0 -107.5 1.5t-136.5 1.5t-132.5 -1.5t-94.5 -1.5q-12 -35 -28.5 -78.5t-32 -85.5t-26 -77t-10.5 -53q0 -43 40 -56.5t85 -15.5q35 -2 40 -7t5 -38q0 -16 -3 -27.5t-19 -11.5q-66 2 -128.5 3t-127.5 1q-43 -2 -96.5 -3t-77.5 -1q-16 0 -23.5 5 t-7.5 28zM324 1724q0 10 7 18.5t42 16.5q12 2 34.5 6t46 8.5t45 7.5t33.5 3q27 0 42.5 -9.5t56.5 -54.5q27 -29 59.5 -64.5t64 -69.5t58.5 -61.5t39 -39.5l22.5 -22.5t12.5 -14.5q0 -6 -7.5 -7t-11.5 -1q-47 0 -63.5 2t-42.5 14q-12 4 -44 21.5t-73 40t-87 47t-86 47 t-67.5 39t-33.5 20.5q-16 10 -31.5 23.5t-15.5 29.5zM449 537q199 -6 399 0q-29 74 -59.5 151.5t-57 146t-47.5 121.5t-29 80q-23 -51 -50 -116.5t-55 -133t-54.5 -133t-46.5 -116.5z" />
<glyph unicode="&#xc1;" horiz-adv-x="1441" d="M2 29q0 20 3 33.5t20 17.5q31 6 53 25.5t50 62.5t64.5 116.5t94.5 190.5q25 51 66.5 140.5t87.5 187.5t88 193.5t67 160.5q16 41 25.5 66.5t15.5 40t10 19.5t12 7q86 14 118 18.5t48 4.5q12 0 18.5 -11.5t10.5 -29.5q16 -53 40 -117.5t51.5 -134.5t56 -140.5t55.5 -136.5 q39 -98 67.5 -167.5t53 -128t48 -113.5t54.5 -125q29 -66 58.5 -91.5t82.5 -35.5q16 -2 18.5 -13.5t2.5 -29.5q0 -23 -2 -33t-19 -10q-72 0 -139.5 2t-138.5 2q-57 0 -125 -2t-141 -2q-25 0 -30 8t-5 25q0 27 3 38t23 13q47 4 81 16.5t34 53.5q0 12 -12.5 52t-29.5 87 t-33.5 91t-24.5 66q-41 0 -107.5 1.5t-136.5 1.5t-132.5 -1.5t-94.5 -1.5q-12 -35 -28.5 -78.5t-32 -85.5t-26 -77t-10.5 -53q0 -43 40 -56.5t85 -15.5q35 -2 40 -7t5 -38q0 -16 -3 -27.5t-19 -11.5q-66 2 -128.5 3t-127.5 1q-43 -2 -96.5 -3t-77.5 -1q-16 0 -23.5 5 t-7.5 28zM449 537q199 -6 399 0q-29 74 -59.5 151.5t-57 146t-47.5 121.5t-29 80q-23 -51 -50 -116.5t-55 -133t-54.5 -133t-46.5 -116.5zM612 1446q0 4 5.5 9t25.5 26q27 27 59.5 61.5t65.5 70.5t65.5 70.5t59.5 63.5q23 23 34 30t40 7q12 0 36.5 -3t49 -8.5t47 -9.5 t33.5 -6q14 -4 28.5 -10t14.5 -21q0 -25 -30 -45t-48 -30q-96 -53 -152.5 -84t-91.5 -50.5t-54.5 -29.5t-37.5 -19q-35 -18 -52.5 -24t-33.5 -6h-14t-21.5 1t-20 2t-8.5 5z" />
<glyph unicode="&#xc2;" horiz-adv-x="1441" d="M2 29q0 20 3 33.5t20 17.5q31 6 53 25.5t50 62.5t64.5 116.5t94.5 190.5q25 51 66.5 140.5t87.5 187.5t88 193.5t67 160.5q16 41 25.5 66.5t15.5 40t10 19.5t12 7q86 14 118 18.5t48 4.5q12 0 18.5 -11.5t10.5 -29.5q16 -53 40 -117.5t51.5 -134.5t56 -140.5t55.5 -136.5 q39 -98 67.5 -167.5t53 -128t48 -113.5t54.5 -125q29 -66 58.5 -91.5t82.5 -35.5q16 -2 18.5 -13.5t2.5 -29.5q0 -23 -2 -33t-19 -10q-72 0 -139.5 2t-138.5 2q-57 0 -125 -2t-141 -2q-25 0 -30 8t-5 25q0 27 3 38t23 13q47 4 81 16.5t34 53.5q0 12 -12.5 52t-29.5 87 t-33.5 91t-24.5 66q-41 0 -107.5 1.5t-136.5 1.5t-132.5 -1.5t-94.5 -1.5q-12 -35 -28.5 -78.5t-32 -85.5t-26 -77t-10.5 -53q0 -43 40 -56.5t85 -15.5q35 -2 40 -7t5 -38q0 -16 -3 -27.5t-19 -11.5q-66 2 -128.5 3t-127.5 1q-43 -2 -96.5 -3t-77.5 -1q-16 0 -23.5 5 t-7.5 28zM377 1495q0 4 8 14.5t19.5 22.5t21.5 23.5t16 17.5q41 45 86 96t82 98q35 43 58.5 58.5t58.5 15.5q18 0 32.5 -4t28 -14.5t28.5 -27.5t40 -46q10 -12 31.5 -36.5t46 -51.5t48.5 -50.5t36 -35.5q4 -4 14 -13.5t19.5 -19.5t16.5 -19.5t7 -13.5t-6 -12t-14 -17.5 t-17.5 -15.5t-13.5 -6t-18.5 7.5t-32 17.5t-32.5 19t-21 14q-12 8 -42 26.5t-62 40t-59.5 39t-35.5 23.5q-18 -16 -62.5 -49t-90.5 -67t-85 -58.5t-49 -24.5q-14 0 -35.5 20.5t-21.5 28.5zM449 537q199 -6 399 0q-29 74 -59.5 151.5t-57 146t-47.5 121.5t-29 80 q-23 -51 -50 -116.5t-55 -133t-54.5 -133t-46.5 -116.5z" />
<glyph unicode="&#xc3;" horiz-adv-x="1441" d="M2 29q0 20 3 33.5t20 17.5q31 6 53 25.5t50 62.5t64.5 116.5t94.5 190.5q25 51 66.5 140.5t87.5 187.5t88 193.5t67 160.5q16 41 25.5 66.5t15.5 40t10 19.5t12 7q86 14 118 18.5t48 4.5q12 0 18.5 -11.5t10.5 -29.5q16 -53 40 -117.5t51.5 -134.5t56 -140.5t55.5 -136.5 q39 -98 67.5 -167.5t53 -128t48 -113.5t54.5 -125q29 -66 58.5 -91.5t82.5 -35.5q16 -2 18.5 -13.5t2.5 -29.5q0 -23 -2 -33t-19 -10q-72 0 -139.5 2t-138.5 2q-57 0 -125 -2t-141 -2q-25 0 -30 8t-5 25q0 27 3 38t23 13q47 4 81 16.5t34 53.5q0 12 -12.5 52t-29.5 87 t-33.5 91t-24.5 66q-41 0 -107.5 1.5t-136.5 1.5t-132.5 -1.5t-94.5 -1.5q-12 -35 -28.5 -78.5t-32 -85.5t-26 -77t-10.5 -53q0 -43 40 -56.5t85 -15.5q35 -2 40 -7t5 -38q0 -16 -3 -27.5t-19 -11.5q-66 2 -128.5 3t-127.5 1q-43 -2 -96.5 -3t-77.5 -1q-16 0 -23.5 5 t-7.5 28zM328 1520q0 2 16 36.5t49 76.5t83 77t116 35q25 0 44 -3t42.5 -11.5t51.5 -20.5t69 -31q53 -23 83.5 -34t71.5 -11t64.5 15.5t52.5 50.5q12 16 16 16l11 -4l20 -8t19.5 -10t9.5 -8q0 -4 -18.5 -37t-47.5 -68q-35 -43 -65.5 -67.5t-56 -37t-48 -14.5t-37.5 -2 q-49 0 -91 15.5t-95 42.5q-35 18 -79 35.5t-95 17.5q-45 0 -66.5 -17.5t-37.5 -40.5q-4 -4 -11.5 -15t-11.5 -11l-17 7q-18 7 -22 11q-4 2 -12 6.5t-8 8.5zM449 537q199 -6 399 0q-29 74 -59.5 151.5t-57 146t-47.5 121.5t-29 80q-23 -51 -50 -116.5t-55 -133t-54.5 -133 t-46.5 -116.5z" />
<glyph unicode="&#xc4;" horiz-adv-x="1441" d="M2 29q0 20 3 33.5t20 17.5q31 6 53 25.5t50 62.5t64.5 116.5t94.5 190.5q25 51 66.5 140.5t87.5 187.5t88 193.5t67 160.5q16 41 25.5 66.5t15.5 40t10 19.5t12 7q86 14 118 18.5t48 4.5q12 0 18.5 -11.5t10.5 -29.5q16 -53 40 -117.5t51.5 -134.5t56 -140.5t55.5 -136.5 q39 -98 67.5 -167.5t53 -128t48 -113.5t54.5 -125q29 -66 58.5 -91.5t82.5 -35.5q16 -2 18.5 -13.5t2.5 -29.5q0 -23 -2 -33t-19 -10q-72 0 -139.5 2t-138.5 2q-57 0 -125 -2t-141 -2q-25 0 -30 8t-5 25q0 27 3 38t23 13q47 4 81 16.5t34 53.5q0 12 -12.5 52t-29.5 87 t-33.5 91t-24.5 66q-41 0 -107.5 1.5t-136.5 1.5t-132.5 -1.5t-94.5 -1.5q-12 -35 -28.5 -78.5t-32 -85.5t-26 -77t-10.5 -53q0 -43 40 -56.5t85 -15.5q35 -2 40 -7t5 -38q0 -16 -3 -27.5t-19 -11.5q-66 2 -128.5 3t-127.5 1q-43 -2 -96.5 -3t-77.5 -1q-16 0 -23.5 5 t-7.5 28zM391 1573q0 27 11.5 49.5t30 39.5t40.5 26.5t45 9.5q20 0 42 -10.5t40 -26.5t29.5 -39t11.5 -49q0 -27 -12.5 -49.5t-30.5 -39t-39.5 -25.5t-42.5 -9q-20 0 -42.5 9t-41 25.5t-30 39t-11.5 49.5zM449 537q199 -6 399 0q-29 74 -59.5 151.5t-57 146t-47.5 121.5 t-29 80q-23 -51 -50 -116.5t-55 -133t-54.5 -133t-46.5 -116.5zM817 1573q0 27 11.5 49.5t30 39.5t40.5 26.5t45 9.5q43 0 83 -37t40 -88q0 -27 -11.5 -49.5t-29.5 -39t-40.5 -25.5t-43.5 -9q-20 0 -42.5 9t-41 25.5t-30 39t-11.5 49.5z" />
<glyph unicode="&#xc5;" horiz-adv-x="1441" d="M2 29q0 20 3 33.5t20 17.5q31 6 53 25.5t50 62.5t64.5 116.5t94.5 190.5q25 51 66.5 140.5t87.5 187.5t88 193.5t67 160.5q16 41 25.5 66.5t15.5 40t10 19.5t12 7q86 14 118 18.5t48 4.5q12 0 18.5 -11.5t10.5 -29.5q16 -53 40 -117.5t51.5 -134.5t56 -140.5t55.5 -136.5 q39 -98 67.5 -167.5t53 -128t48 -113.5t54.5 -125q29 -66 58.5 -91.5t82.5 -35.5q16 -2 18.5 -13.5t2.5 -29.5q0 -23 -2 -33t-19 -10q-72 0 -139.5 2t-138.5 2q-57 0 -125 -2t-141 -2q-25 0 -30 8t-5 25q0 27 3 38t23 13q47 4 81 16.5t34 53.5q0 12 -12.5 52t-29.5 87 t-33.5 91t-24.5 66q-41 0 -107.5 1.5t-136.5 1.5t-132.5 -1.5t-94.5 -1.5q-12 -35 -28.5 -78.5t-32 -85.5t-26 -77t-10.5 -53q0 -43 40 -56.5t85 -15.5q35 -2 40 -7t5 -38q0 -16 -3 -27.5t-19 -11.5q-66 2 -128.5 3t-127.5 1q-43 -2 -96.5 -3t-77.5 -1q-16 0 -23.5 5 t-7.5 28zM449 537q199 -6 399 0q-29 74 -59.5 151.5t-57 146t-47.5 121.5t-29 80q-23 -51 -50 -116.5t-55 -133t-54.5 -133t-46.5 -116.5zM494 1620q0 45 19 83t53 64.5t78 41t93 14.5t94.5 -14.5t78 -40t52 -63.5t19.5 -85t-19.5 -85t-53.5 -63.5t-78 -39t-93 -13.5 t-93 13.5t-78 40t-53 63.5t-19 84zM633 1620q0 -20 6 -43t18.5 -41t31.5 -30.5t48 -12.5q53 0 79 40t26 87t-25.5 88t-79.5 41q-53 0 -78.5 -42t-25.5 -87z" />
<glyph unicode="&#xc6;" horiz-adv-x="2009" d="M-23 27q0 27 3.5 37t23.5 16q27 8 46.5 19.5t41 33t48 57t67.5 91.5q78 104 148.5 199t138 189.5t136 190.5t140.5 199q45 63 59.5 86.5t14.5 40.5q0 23 -18.5 27t-55.5 8q-16 0 -20.5 6t-4.5 33q0 20 4.5 31.5t20.5 11.5q31 0 116 -1.5t195 -1.5q111 0 235 -1t230 -1 q20 0 67.5 1t100.5 1t100.5 1.5t65.5 1.5q16 0 19.5 -4.5t3.5 -12.5t-3.5 -37.5t-6.5 -64.5t-7 -67t-4 -44q-2 -29 -5 -66.5t-5 -39.5q-4 -4 -19.5 -5t-27.5 -1q-27 0 -33 5t-8 19q-10 66 -20.5 107t-45.5 63.5t-103.5 30.5t-193.5 8q-66 0 -101.5 -3t-53 -13.5t-20.5 -33 t-3 -59.5v-358q147 0 231.5 3t127.5 15.5t55 34t18 58.5q2 20 4 31.5t7.5 16.5t14.5 6t25 1q29 0 35 -6t6 -19q0 -8 -1 -27.5t-1 -43.5q0 -25 -1 -51.5t-1 -47.5q0 -14 1 -47t1 -69q0 -37 1 -72t1 -49q0 -12 -6 -16.5t-32 -4.5q-29 0 -36 5.5t-10 21.5q-8 57 -20 88t-59 45 q-53 16 -133 18.5t-228 2.5v-398q0 -27 4 -47t21.5 -33.5t52.5 -20.5t94 -7q113 0 182.5 9t113.5 34.5t69.5 69.5t54.5 114q14 35 23.5 42t42.5 -3q14 -4 28.5 -9t9.5 -22q-10 -53 -19 -94t-18.5 -77t-17.5 -70.5t-18 -73.5q-4 -16 -12.5 -28.5t-36.5 -10.5q-92 2 -179.5 3 t-173.5 1q-86 2 -168 2h-161q-72 0 -130.5 -1t-101.5 -1q-41 -2 -66.5 -3t-35.5 -1q-18 0 -21.5 13.5t-3.5 29.5t7.5 25.5t39.5 13.5q47 4 74 18.5t40 53t16 109.5t3 192v55h-430q-43 -68 -90 -139.5t-82 -130.5q-20 -35 -28.5 -58.5t-8.5 -42.5q0 -35 30 -43t75 -12 q18 -2 29.5 -3t15.5 -5t5 -13.5t1 -23.5q0 -39 -27 -39q-35 0 -111.5 2t-154.5 2q-61 0 -98 -2t-78 -2q-18 0 -22.5 9t-4.5 22zM592 606h364q0 29 -1 105.5t-1 162.5t-1 164t-1 111l-82 -123q-35 -51 -61.5 -93t-57 -88t-68.5 -102.5t-91 -136.5z" />
<glyph unicode="&#xc7;" horiz-adv-x="1402" d="M88 641q0 29 4 81t22.5 116.5t57.5 137.5t111 140q45 43 101 81t132 66.5t175.5 46t228.5 17.5q59 0 110 -3t111 -7q20 -2 49 -5t49 -3q10 0 17.5 3l17.5 7q4 4 12 4h10q29 0 33 -5t4 -11q0 -4 -3 -34t-7 -64.5t-8 -67.5t-4 -45q0 -10 -2 -36t-4 -54.5t-4.5 -52 t-4.5 -27.5q-4 -8 -12 -10.5t-31 -2.5q-29 0 -37 4.5t-12 30.5q-4 35 -12 79t-23 67q-23 37 -62.5 57t-84.5 30.5t-89 12.5t-73 2q-141 0 -221 -39t-125 -96q-43 -57 -75.5 -146.5t-32.5 -238.5q0 -154 37.5 -264.5t101 -183t148.5 -106.5t179 -34q20 0 65.5 4t96.5 23.5 t102.5 62.5t86.5 123q20 47 26 57.5t17 10.5q2 0 13 -1t24.5 -4.5t23.5 -10.5t10 -17l-9 -44t-21.5 -97.5t-23.5 -99.5t-17 -52q-4 -4 -35 -13.5t-78 -18.5t-108.5 -18.5t-129.5 -15.5q-2 -2 -9 -12t-15 -22.5t-15.5 -24.5t-7.5 -16q0 -12 41 -37q16 -10 35 -22.5t33 -29 t23.5 -41t9.5 -59.5q0 -37 -20.5 -78t-55.5 -75.5t-85 -58t-108 -23.5q-37 0 -59.5 10t-36.5 24.5t-19 30t-5 25.5q0 12 6 29.5t15 33t22.5 26.5t25.5 11q18 0 42 -13t38 -24q23 -16 34 -20t21 -4q37 0 37 35q0 31 -23.5 51t-70.5 49q-53 29 -64.5 37t-11.5 20q0 16 17 39 q23 29 52.5 66t57.5 71q-147 2 -258.5 34t-192.5 83t-135.5 119t-86 141.5t-45 147t-13.5 141.5z" />
<glyph unicode="&#xc8;" horiz-adv-x="1290" d="M76 35q0 29 8 35t45 10q78 6 96.5 43t22.5 92q2 37 4 98.5t3 130t1 134.5v112v178q0 74 -1 123t-3 78t-4 49q-6 66 -38 83.5t-91 19.5q-25 0 -29 5t-4 36t6 36t35 5t94.5 -1.5t138.5 -1.5q74 -2 139.5 -3t90.5 -1q78 0 152.5 1t146.5 3q72 0 140.5 1.5t127.5 1.5 q18 0 21.5 -10.5t3.5 -26.5q0 -18 -7.5 -60.5t-11.5 -111.5q-2 -25 -5 -56.5t-3 -52.5q0 -16 -9 -20t-36 -4q-25 0 -33 5t-10 19q-8 66 -18.5 107t-42 63.5t-94 30.5t-177.5 8h-43q-27 0 -54.5 -2t-51 -6t-29.5 -12q-10 -10 -12 -37t-2 -50q-2 -86 -2 -180t2 -180 q141 0 222 3t122 15.5t53 34t16 58.5q6 41 12.5 48t39.5 7q14 0 26.5 -5t12.5 -16q0 -12 -1.5 -37.5t-1.5 -54.5q0 -27 -1 -52.5t-1 -33.5q0 -12 1 -45t1 -69q0 -35 1.5 -66t1.5 -43q0 -20 -8.5 -25.5t-28.5 -5.5q-18 0 -29.5 3t-13.5 24q-8 57 -19.5 88t-58.5 45 q-27 8 -57.5 12t-72.5 6.5t-95 2.5h-125v-84q0 -55 1 -117t2 -117t3 -80q2 -27 6 -47t19.5 -33.5t47 -20.5t91.5 -7q123 0 192.5 12t110.5 42t63.5 79t50.5 125q4 12 21.5 13t34.5 -5q16 -4 26.5 -12.5t10.5 -18.5q0 -23 -20.5 -114t-55.5 -209q-4 -12 -13.5 -21.5 t-25.5 -9.5q-25 0 -102.5 1t-176.5 3q-98 0 -197.5 1t-168.5 1q-63 0 -116.5 -1t-98.5 -1q-45 -2 -80 -3t-64 -1q-18 0 -21 6t-3 33zM248 1724q0 10 8 18.5t41 16.5q47 10 95.5 17.5t64.5 7.5q27 0 42 -9.5t56 -54.5q18 -20 48 -52t60.5 -64.5t59.5 -63.5t49 -51q2 0 8 -6 t13.5 -14.5t12.5 -14.5l5 -6q0 -6 -7 -7t-11 -1q-47 0 -63.5 2t-43.5 14q-8 4 -40 20.5t-75 39t-91 49t-91 51t-75.5 44t-43.5 28.5q-6 6 -14 15t-8 21z" />
<glyph unicode="&#xc9;" horiz-adv-x="1290" d="M76 35q0 29 8 35t45 10q78 6 96.5 43t22.5 92q2 37 4 98.5t3 130t1 134.5v112v178q0 74 -1 123t-3 78t-4 49q-6 66 -38 83.5t-91 19.5q-25 0 -29 5t-4 36t6 36t35 5t94.5 -1.5t138.5 -1.5q74 -2 139.5 -3t90.5 -1q78 0 152.5 1t146.5 3q72 0 140.5 1.5t127.5 1.5 q18 0 21.5 -10.5t3.5 -26.5q0 -18 -7.5 -60.5t-11.5 -111.5q-2 -25 -5 -56.5t-3 -52.5q0 -16 -9 -20t-36 -4q-25 0 -33 5t-10 19q-8 66 -18.5 107t-42 63.5t-94 30.5t-177.5 8h-43q-27 0 -54.5 -2t-51 -6t-29.5 -12q-10 -10 -12 -37t-2 -50q-2 -86 -2 -180t2 -180 q141 0 222 3t122 15.5t53 34t16 58.5q6 41 12.5 48t39.5 7q14 0 26.5 -5t12.5 -16q0 -12 -1.5 -37.5t-1.5 -54.5q0 -27 -1 -52.5t-1 -33.5q0 -12 1 -45t1 -69q0 -35 1.5 -66t1.5 -43q0 -20 -8.5 -25.5t-28.5 -5.5q-18 0 -29.5 3t-13.5 24q-8 57 -19.5 88t-58.5 45 q-27 8 -57.5 12t-72.5 6.5t-95 2.5h-125v-84q0 -55 1 -117t2 -117t3 -80q2 -27 6 -47t19.5 -33.5t47 -20.5t91.5 -7q123 0 192.5 12t110.5 42t63.5 79t50.5 125q4 12 21.5 13t34.5 -5q16 -4 26.5 -12.5t10.5 -18.5q0 -23 -20.5 -114t-55.5 -209q-4 -12 -13.5 -21.5 t-25.5 -9.5q-25 0 -102.5 1t-176.5 3q-98 0 -197.5 1t-168.5 1q-63 0 -116.5 -1t-98.5 -1q-45 -2 -80 -3t-64 -1q-18 0 -21 6t-3 33zM537 1446q0 4 5 9t25 26q27 27 59.5 61.5t65.5 70.5t66 70.5t59 63.5q23 23 34 30t40 7q12 0 35.5 -3t49 -8.5t48.5 -9.5t33 -6 q12 -4 27.5 -10t15.5 -21q0 -25 -30 -45t-48 -30q-96 -53 -152.5 -84t-91.5 -50.5t-54 -29.5t-38 -19q-35 -20 -53.5 -25t-32.5 -5h-16q-10 0 -20.5 1t-18.5 2t-8 5z" />
<glyph unicode="&#xca;" horiz-adv-x="1290" d="M76 35q0 29 8 35t45 10q78 6 96.5 43t22.5 92q2 37 4 98.5t3 130t1 134.5v112v178q0 74 -1 123t-3 78t-4 49q-6 66 -38 83.5t-91 19.5q-25 0 -29 5t-4 36t6 36t35 5t94.5 -1.5t138.5 -1.5q74 -2 139.5 -3t90.5 -1q78 0 152.5 1t146.5 3q72 0 140.5 1.5t127.5 1.5 q18 0 21.5 -10.5t3.5 -26.5q0 -18 -7.5 -60.5t-11.5 -111.5q-2 -25 -5 -56.5t-3 -52.5q0 -16 -9 -20t-36 -4q-25 0 -33 5t-10 19q-8 66 -18.5 107t-42 63.5t-94 30.5t-177.5 8h-43q-27 0 -54.5 -2t-51 -6t-29.5 -12q-10 -10 -12 -37t-2 -50q-2 -86 -2 -180t2 -180 q141 0 222 3t122 15.5t53 34t16 58.5q6 41 12.5 48t39.5 7q14 0 26.5 -5t12.5 -16q0 -12 -1.5 -37.5t-1.5 -54.5q0 -27 -1 -52.5t-1 -33.5q0 -12 1 -45t1 -69q0 -35 1.5 -66t1.5 -43q0 -20 -8.5 -25.5t-28.5 -5.5q-18 0 -29.5 3t-13.5 24q-8 57 -19.5 88t-58.5 45 q-27 8 -57.5 12t-72.5 6.5t-95 2.5h-125v-84q0 -55 1 -117t2 -117t3 -80q2 -27 6 -47t19.5 -33.5t47 -20.5t91.5 -7q123 0 192.5 12t110.5 42t63.5 79t50.5 125q4 12 21.5 13t34.5 -5q16 -4 26.5 -12.5t10.5 -18.5q0 -23 -20.5 -114t-55.5 -209q-4 -12 -13.5 -21.5 t-25.5 -9.5q-25 0 -102.5 1t-176.5 3q-98 0 -197.5 1t-168.5 1q-63 0 -116.5 -1t-98.5 -1q-45 -2 -80 -3t-64 -1q-18 0 -21 6t-3 33zM307 1466q0 4 8.5 14.5t19.5 23t21.5 23.5t16.5 17q55 59 96 107.5t72 87.5q35 43 58.5 58t55.5 15q20 0 33.5 -4t27 -14t29 -27.5 t39.5 -46.5q12 -14 34 -38.5t46.5 -50t48 -49t35.5 -36.5q4 -4 14.5 -13t19.5 -19.5t16.5 -19.5t7.5 -13t-6.5 -12.5t-14.5 -16.5t-16 -15t-15 -7q-10 0 -47 22.5t-131 81.5q-33 20 -74 47t-51 33q-14 -12 -57 -44t-90 -66t-88 -60.5t-51 -26.5q-14 0 -36 20.5t-22 28.5z " />
<glyph unicode="&#xcb;" horiz-adv-x="1290" d="M76 35q0 29 8 35t45 10q78 6 96.5 43t22.5 92q2 37 4 98.5t3 130t1 134.5v112v178q0 74 -1 123t-3 78t-4 49q-6 66 -38 83.5t-91 19.5q-25 0 -29 5t-4 36t6 36t35 5t94.5 -1.5t138.5 -1.5q74 -2 139.5 -3t90.5 -1q78 0 152.5 1t146.5 3q72 0 140.5 1.5t127.5 1.5 q18 0 21.5 -10.5t3.5 -26.5q0 -18 -7.5 -60.5t-11.5 -111.5q-2 -25 -5 -56.5t-3 -52.5q0 -16 -9 -20t-36 -4q-25 0 -33 5t-10 19q-8 66 -18.5 107t-42 63.5t-94 30.5t-177.5 8h-43q-27 0 -54.5 -2t-51 -6t-29.5 -12q-10 -10 -12 -37t-2 -50q-2 -86 -2 -180t2 -180 q141 0 222 3t122 15.5t53 34t16 58.5q6 41 12.5 48t39.5 7q14 0 26.5 -5t12.5 -16q0 -12 -1.5 -37.5t-1.5 -54.5q0 -27 -1 -52.5t-1 -33.5q0 -12 1 -45t1 -69q0 -35 1.5 -66t1.5 -43q0 -20 -8.5 -25.5t-28.5 -5.5q-18 0 -29.5 3t-13.5 24q-8 57 -19.5 88t-58.5 45 q-27 8 -57.5 12t-72.5 6.5t-95 2.5h-125v-84q0 -55 1 -117t2 -117t3 -80q2 -27 6 -47t19.5 -33.5t47 -20.5t91.5 -7q123 0 192.5 12t110.5 42t63.5 79t50.5 125q4 12 21.5 13t34.5 -5q16 -4 26.5 -12.5t10.5 -18.5q0 -23 -20.5 -114t-55.5 -209q-4 -12 -13.5 -21.5 t-25.5 -9.5q-25 0 -102.5 1t-176.5 3q-98 0 -197.5 1t-168.5 1q-63 0 -116.5 -1t-98.5 -1q-45 -2 -80 -3t-64 -1q-18 0 -21 6t-3 33zM322 1573q0 53 41 89t86 36q43 0 82.5 -37t39.5 -88q0 -27 -11 -49.5t-29.5 -39t-41 -25.5t-43.5 -9q-43 0 -83.5 36t-40.5 87zM764 1573 q0 53 41 89t86 36q20 0 41.5 -10.5t40 -26.5t30 -39t11.5 -49q0 -27 -12.5 -49.5t-31 -39t-40 -25.5t-41.5 -9q-43 0 -84 36t-41 87z" />
<glyph unicode="&#xcc;" horiz-adv-x="796" d="M45 41q0 27 10.5 32t50.5 9q41 2 68 14.5t43 34t22.5 55t8.5 80.5q2 55 4 129t3 152t1 151v133v76t-2 95.5t-5 91.5t-9 61q-6 20 -15.5 31.5t-27 17.5t-46 8t-75.5 7q-23 2 -27 9t-4 36t6 35t29 6q37 0 123 -2.5t192 -2.5q39 0 81 1.5t81 1.5q41 0 75 1t56 1h39 q16 0 20.5 -7.5t4.5 -21.5q0 -39 -6.5 -47t-40.5 -12q-80 -4 -113 -29t-43 -101q-4 -25 -5 -75.5t-2 -109t-1 -116.5v-90q0 -199 2 -332t10 -190q8 -43 26.5 -67.5t82.5 -28.5h63q16 0 19.5 -6t3.5 -29q0 -29 -2.5 -37t-18.5 -8q-23 0 -66 1t-96 1t-108.5 1t-102.5 1 q-86 0 -154.5 -2t-131.5 -2q-10 0 -16.5 7t-6.5 36zM57 1724q0 10 8.5 18.5t40.5 16.5q12 2 35 6t47.5 8.5t46 7.5t31.5 3q27 0 42.5 -9.5t56.5 -54.5q27 -31 59.5 -64.5t62 -66.5t55 -59.5t42.5 -42.5q4 -2 20.5 -19.5t16.5 -19.5q0 -6 -7.5 -7t-11.5 -1q-47 0 -63.5 2 t-42.5 14q-12 4 -44 21.5t-73 40t-87 47t-86 47t-67.5 39t-34.5 20.5q-16 10 -31.5 23.5t-15.5 29.5z" />
<glyph unicode="&#xcd;" horiz-adv-x="796" d="M45 41q0 27 10.5 32t50.5 9q41 2 68 14.5t43 34t22.5 55t8.5 80.5q2 55 4 129t3 152t1 151v133v76t-2 95.5t-5 91.5t-9 61q-6 20 -15.5 31.5t-27 17.5t-46 8t-75.5 7q-23 2 -27 9t-4 36t6 35t29 6q37 0 123 -2.5t192 -2.5q39 0 81 1.5t81 1.5q41 0 75 1t56 1h39 q16 0 20.5 -7.5t4.5 -21.5q0 -39 -6.5 -47t-40.5 -12q-80 -4 -113 -29t-43 -101q-4 -25 -5 -75.5t-2 -109t-1 -116.5v-90q0 -199 2 -332t10 -190q8 -43 26.5 -67.5t82.5 -28.5h63q16 0 19.5 -6t3.5 -29q0 -29 -2.5 -37t-18.5 -8q-23 0 -66 1t-96 1t-108.5 1t-102.5 1 q-86 0 -154.5 -2t-131.5 -2q-10 0 -16.5 7t-6.5 36zM233 1446q0 4 4.5 9t24.5 26q27 27 59.5 61.5t66.5 70.5t65.5 70.5t58.5 63.5q23 23 34 30t40 7q12 0 36.5 -3t50 -8.5t48 -9.5t33.5 -6q14 -4 27.5 -10t13.5 -21q0 -25 -29 -45t-47 -30q-96 -53 -153.5 -84t-91.5 -50.5 t-53.5 -29.5t-37.5 -19q-35 -18 -53.5 -24t-34.5 -6h-14t-20.5 1t-19 2t-8.5 5z" />
<glyph unicode="&#xce;" horiz-adv-x="796" d="M45 41q0 27 10.5 32t50.5 9q41 2 68 14.5t43 34t22.5 55t8.5 80.5q2 55 4 129t3 152t1 151v133v76t-2 95.5t-5 91.5t-9 61q-6 20 -15.5 31.5t-27 17.5t-46 8t-75.5 7q-23 2 -27 9t-4 36t6 35t29 6q37 0 123 -2.5t192 -2.5q39 0 81 1.5t81 1.5q41 0 75 1t56 1h39 q16 0 20.5 -7.5t4.5 -21.5q0 -39 -6.5 -47t-40.5 -12q-80 -4 -113 -29t-43 -101q-4 -25 -5 -75.5t-2 -109t-1 -116.5v-90q0 -199 2 -332t10 -190q8 -43 26.5 -67.5t82.5 -28.5h63q16 0 19.5 -6t3.5 -29q0 -29 -2.5 -37t-18.5 -8q-23 0 -66 1t-96 1t-108.5 1t-102.5 1 q-86 0 -154.5 -2t-131.5 -2q-10 0 -16.5 7t-6.5 36zM72 1466q0 4 8 14.5t18.5 23t20.5 23.5t14 17q39 43 81 95.5t77 99.5q33 43 54.5 58t51.5 15q18 0 31.5 -4t26 -14t27 -27.5t36.5 -46.5q10 -12 30.5 -36.5t43 -51t44 -50t34.5 -36.5l13 -13t18.5 -19.5t16.5 -19.5t7 -13 t-6 -12.5t-14.5 -17.5t-17.5 -15t-13 -6t-13.5 4t-27 15t-48 31.5t-77.5 53.5l-115 80q-14 -12 -54 -45t-83 -67t-80 -59.5t-47 -25.5q-14 0 -35.5 20.5t-21.5 28.5z" />
<glyph unicode="&#xcf;" horiz-adv-x="796" d="M45 41q0 27 10.5 32t50.5 9q41 2 68 14.5t43 34t22.5 55t8.5 80.5q2 55 4 129t3 152t1 151v133v76t-2 95.5t-5 91.5t-9 61q-6 20 -15.5 31.5t-27 17.5t-46 8t-75.5 7q-23 2 -27 9t-4 36t6 35t29 6q37 0 123 -2.5t192 -2.5q39 0 81 1.5t81 1.5q41 0 75 1t56 1h39 q16 0 20.5 -7.5t4.5 -21.5q0 -39 -6.5 -47t-40.5 -12q-80 -4 -113 -29t-43 -101q-4 -25 -5 -75.5t-2 -109t-1 -116.5v-90q0 -199 2 -332t10 -190q8 -43 26.5 -67.5t82.5 -28.5h63q16 0 19.5 -6t3.5 -29q0 -29 -2.5 -37t-18.5 -8q-23 0 -66 1t-96 1t-108.5 1t-102.5 1 q-86 0 -154.5 -2t-131.5 -2q-10 0 -16.5 7t-6.5 36zM74 1573q0 27 11 49.5t29.5 39.5t41 26.5t45.5 9.5q20 0 42.5 -10.5t41 -26.5t30 -40t11.5 -48q0 -27 -12.5 -49.5t-31 -39t-41 -25.5t-42.5 -9t-43 9t-41.5 25.5t-29.5 39t-11 49.5zM471 1573q0 53 41 89t86 36 q43 0 83 -37t40 -88q0 -27 -11.5 -49.5t-29.5 -39t-41 -25.5t-43 -9q-43 0 -84 36t-41 87z" />
<glyph unicode="&#xd0;" horiz-adv-x="1630" d="M66 35q0 29 4 35t30 10q53 8 89 23.5t49 74.5q4 23 7 48.5t5 71.5t3 120t1 190h-180q-4 2 -4 35v62q0 12 2 15t12 3t34.5 -1t51.5 -1t50.5 -1t33.5 -1l2 110v121t-1 78t-3 51.5t-4 38.5q-4 35 -13.5 54.5t-27 29.5t-42 13.5t-61.5 7.5q-20 2 -23 8t-3 35q0 18 1 31.5 t17 13.5q25 0 86.5 -4t188.5 -4q35 0 88 1t115.5 2t128 3t124.5 2q162 0 294 -39t226.5 -116t144.5 -194.5t50 -273.5q0 -127 -28.5 -224t-73.5 -168t-100.5 -118t-107.5 -76.5t-95 -45t-64 -19.5q-100 -27 -200.5 -34t-196.5 -7q-35 0 -83 1t-97 1q-47 0 -90.5 1t-69.5 1 q-29 0 -66 -1t-73 -1h-68h-41q-16 0 -19 10t-3 27zM543 485q0 -66 2 -128t5 -112t9 -73q10 -43 58.5 -58.5t115.5 -15.5q236 0 367 148.5t131 423.5q0 45 -6 106.5t-25.5 124t-55.5 122.5t-95 103q-43 31 -118 58.5t-212 27.5q-55 0 -88 -7t-50.5 -20.5t-23.5 -32.5t-8 -44 q-2 -18 -3 -72.5t-2 -116t-1 -118.5v-82h352q16 0 18 -8v-64q0 -29 -1 -35t-11 -6l-358 2v-123z" />
<glyph unicode="&#xd1;" horiz-adv-x="1669" d="M45 29q0 25 2 37t19 14q47 4 77.5 11t51 28.5t31 61.5t16.5 112q2 27 5 88t6 139t5 162t4 155.5t3 120t1 56.5q0 57 -9 95t-30.5 60.5t-55.5 32.5t-83 15q-12 2 -20.5 8t-8.5 32q0 29 8.5 38.5t24.5 9.5q27 0 82 -4.5t102 -4.5q51 0 97.5 4.5t81.5 4.5q16 0 30.5 -2.5 t22.5 -18.5q29 -53 99.5 -133t172.5 -188q20 -20 60.5 -63.5t91.5 -95.5t106.5 -109.5t105.5 -110t89 -93t57 -59.5v420q0 31 -1 75t-3 89t-7 85t-13 60q-12 35 -46 47.5t-120 16.5q-20 2 -23.5 8t-3.5 37q0 16 6 25.5t27 9.5q14 0 53 -1t80 -1q43 0 80 -1.5t51 -1.5t52 1.5 t79 1.5t78 1t49 1q16 0 19.5 -7.5t3.5 -35.5q0 -25 -2 -31t-17 -8q-47 -6 -80.5 -13.5t-57.5 -28t-36 -59.5t-16 -108q-2 -35 -5 -125t-6.5 -200.5t-5.5 -228.5t-2 -208v-47t1 -59.5t2 -60.5t1 -48v-12q0 -10 -20.5 -19.5t-75.5 -34.5q-10 -4 -15 0t-13 15q-45 55 -82 99 t-81 91t-100.5 105.5t-138.5 144.5q-16 16 -67.5 71.5t-115 124t-125 136t-97.5 106.5l-36 36t-54 61q-2 -33 -3.5 -75t-1.5 -85v-82v-60q0 -195 1 -305t9.5 -167.5t26 -76t47.5 -24.5q8 -2 26.5 -3t40 -2t41 -3t25.5 -4q6 -4 7.5 -16.5t1.5 -22.5q0 -18 -4.5 -27.5 t-20.5 -9.5q-35 0 -117 2t-166 2q-14 0 -50 -1t-76 -1q-41 0 -76 -1t-47 -1q-10 0 -17.5 5t-7.5 26zM442 1520q0 2 16.5 36.5t49.5 76.5t83 77t116 35q25 0 44 -3t42.5 -11.5t51 -20.5t68.5 -31q53 -23 84 -34t72 -11t64.5 15.5t52.5 50.5q12 16 16 16q16 -6 38 -16t22 -14 t-18.5 -37t-47.5 -68q-35 -43 -65.5 -67.5t-56 -37t-48 -14.5t-37.5 -2q-49 0 -91 15.5t-95 42.5q-35 18 -79 35.5t-95 17.5q-45 0 -66.5 -17.5t-38.5 -40.5q-4 -4 -11 -15t-11 -11l-33 16z" />
<glyph unicode="&#xd2;" horiz-adv-x="1669" d="M88 653q0 125 36 224.5t96.5 174t139 127t164.5 85t174 48t166 15.5q170 0 303 -51t225.5 -140t140.5 -209t48 -257q0 -63 -14.5 -139t-49 -153t-92 -149.5t-142.5 -129t-201.5 -90.5t-270.5 -34q-193 0 -330 55.5t-224 148.5t-128 216t-41 258zM399 705 q0 -152 38 -266.5t102.5 -192.5t147.5 -118t175 -40q80 0 154 29.5t130 91t90 158t34 229.5q0 135 -35 248.5t-96.5 194.5t-146.5 127t-185 46q-76 0 -144.5 -24.5t-117.5 -69.5t-79 -105.5t-44 -119.5t-18.5 -110t-4.5 -78zM438 1724q0 10 7.5 18.5t41.5 16.5q14 2 37 6 t46.5 8.5t44 7.5t32.5 3t21.5 -1t18.5 -7.5t22.5 -18.5t35.5 -37q29 -33 64 -69.5t66.5 -70.5t56 -59.5t37.5 -37.5q8 -10 19 -21.5t11 -13.5q0 -6 -7 -7t-11 -1h-37t-25.5 2t-20.5 5t-21 9q-12 4 -44 21.5t-74 40t-87 47t-85 47t-69 39t-35 20.5q-16 10 -30.5 23.5 t-14.5 29.5z" />
<glyph unicode="&#xd3;" horiz-adv-x="1669" d="M88 653q0 125 36 224.5t96.5 174t139 127t164.5 85t174 48t166 15.5q170 0 303 -51t225.5 -140t140.5 -209t48 -257q0 -63 -14.5 -139t-49 -153t-92 -149.5t-142.5 -129t-201.5 -90.5t-270.5 -34q-193 0 -330 55.5t-224 148.5t-128 216t-41 258zM399 705 q0 -152 38 -266.5t102.5 -192.5t147.5 -118t175 -40q80 0 154 29.5t130 91t90 158t34 229.5q0 135 -35 248.5t-96.5 194.5t-146.5 127t-185 46q-76 0 -144.5 -24.5t-117.5 -69.5t-79 -105.5t-44 -119.5t-18.5 -110t-4.5 -78zM727 1446q0 4 17.5 21.5l21.5 21.5 q25 27 56.5 59.5t63.5 68.5t63.5 69.5t58.5 60.5q23 23 33.5 30t37.5 7q12 0 37 -4t51.5 -8.5t48 -8.5t31.5 -6q14 -4 27.5 -10t13.5 -21q0 -25 -28.5 -45t-47.5 -30q-96 -53 -152 -84t-90 -49.5t-53.5 -28.5t-39.5 -21q-41 -23 -58.5 -26.5t-30.5 -3.5h-14t-20.5 1t-18.5 2 t-8 5z" />
<glyph unicode="&#xd4;" horiz-adv-x="1669" d="M88 653q0 125 36 224.5t96.5 174t139 127t164.5 85t174 48t166 15.5q170 0 303 -51t225.5 -140t140.5 -209t48 -257q0 -63 -14.5 -139t-49 -153t-92 -149.5t-142.5 -129t-201.5 -90.5t-270.5 -34q-193 0 -330 55.5t-224 148.5t-128 216t-41 258zM399 705 q0 -152 38 -266.5t102.5 -192.5t147.5 -118t175 -40q80 0 154 29.5t130 91t90 158t34 229.5q0 135 -35 248.5t-96.5 194.5t-146.5 127t-185 46q-76 0 -144.5 -24.5t-117.5 -69.5t-79 -105.5t-44 -119.5t-18.5 -110t-4.5 -78zM485 1466q0 4 8.5 14.5t19.5 23t21.5 23.5 t16.5 17q55 59 96 107.5t72 87.5q35 43 58.5 58t56.5 15q18 0 32.5 -4t27.5 -14t28.5 -27.5t40.5 -46.5q12 -14 33.5 -38.5t46 -50t48 -49t35.5 -36.5q4 -4 14.5 -13t19.5 -19.5t16.5 -19.5t7.5 -13t-6.5 -12.5t-14.5 -16.5t-17 -15t-13 -7q-10 0 -47 22.5t-132 81.5 q-33 20 -74 47t-51 33q-14 -12 -57 -44t-90 -66t-88 -60.5t-51 -26.5q-14 0 -36 20.5t-22 28.5z" />
<glyph unicode="&#xd5;" horiz-adv-x="1669" d="M88 653q0 125 36 224.5t96.5 174t139 127t164.5 85t174 48t166 15.5q170 0 303 -51t225.5 -140t140.5 -209t48 -257q0 -63 -14.5 -139t-49 -153t-92 -149.5t-142.5 -129t-201.5 -90.5t-270.5 -34q-193 0 -330 55.5t-224 148.5t-128 216t-41 258zM399 705 q0 -152 38 -266.5t102.5 -192.5t147.5 -118t175 -40q80 0 154 29.5t130 91t90 158t34 229.5q0 135 -35 248.5t-96.5 194.5t-146.5 127t-185 46q-76 0 -144.5 -24.5t-117.5 -69.5t-79 -105.5t-44 -119.5t-18.5 -110t-4.5 -78zM426 1520q0 2 16.5 36.5t49 76.5t82.5 77t116 35 q23 0 42.5 -3t42 -10.5t51 -20.5t69.5 -32q53 -25 85 -35t71 -10q41 0 64.5 15.5t51.5 50.5q12 16 19 16q2 0 14 -6t27.5 -13t15.5 -11t-18.5 -37t-46.5 -68q-33 -43 -64 -67.5t-57.5 -37t-48 -14.5t-37.5 -2q-49 0 -91 15.5t-96 42.5q-35 18 -77.5 35.5t-96.5 17.5 q-41 0 -59.5 -12.5t-28.5 -22.5q-2 -4 -8 -11t-12 -16.5t-12 -15.5l-5 -6q-2 0 -19 8t-22 10q-4 2 -11 6.5t-7 8.5z" />
<glyph unicode="&#xd6;" horiz-adv-x="1669" d="M88 653q0 125 36 224.5t96.5 174t139 127t164.5 85t174 48t166 15.5q170 0 303 -51t225.5 -140t140.5 -209t48 -257q0 -63 -14.5 -139t-49 -153t-92 -149.5t-142.5 -129t-201.5 -90.5t-270.5 -34q-193 0 -330 55.5t-224 148.5t-128 216t-41 258zM399 705 q0 -152 38 -266.5t102.5 -192.5t147.5 -118t175 -40q80 0 154 29.5t130 91t90 158t34 229.5q0 135 -35 248.5t-96.5 194.5t-146.5 127t-185 46q-76 0 -144.5 -24.5t-117.5 -69.5t-79 -105.5t-44 -119.5t-18.5 -110t-4.5 -78zM487 1573q0 27 11.5 49.5t30 39.5t40.5 26.5 t45 9.5q43 0 83 -37t40 -88q0 -27 -11 -49.5t-29.5 -39t-41 -25.5t-43.5 -9q-20 0 -42.5 9t-41 25.5t-30 39t-11.5 49.5zM930 1573q0 53 41 89t86 36q20 0 42.5 -10.5t41 -26.5t30 -40t11.5 -48q0 -27 -12.5 -49.5t-31 -39t-41 -25.5t-42.5 -9t-43 9t-41.5 26.5t-29.5 40 t-11 47.5z" />
<glyph unicode="&#xd7;" d="M129 356q0 4 12.5 15.5t18.5 15.5q27 27 60.5 61.5t69.5 70.5t69.5 70t62.5 60q-16 14 -58 57.5t-87.5 87.5t-80 79.5t-36.5 37.5q-6 4 -18.5 16.5t-12.5 16.5q0 2 16.5 19.5t36 37t37 35t19.5 15.5l7 -7q7 -6 15 -14t16 -15l7 -7l247 -248q27 25 59 57.5t65.5 66.5 t66.5 65.5t57 58.5l8 7l15 15t15 14l7 7q2 0 19.5 -15.5t38 -35t36 -37t15.5 -19.5q0 -4 -12.5 -16.5l-16.5 -16.5q-29 -27 -62.5 -60.5l-69.5 -69.5t-69.5 -70.5t-60.5 -61.5l262 -262q4 -4 16.5 -15.5t12.5 -15.5q0 -2 -15.5 -19.5t-36 -36.5t-38 -34.5t-19.5 -15.5l-7 6 q-7 6 -16 14.5t-16.5 16.5t-9.5 10l-244 244q-25 -27 -57.5 -58.5t-66 -65.5t-65.5 -67t-58 -57l-9.5 -9.5l-14.5 -14.5t-14 -13l-7 -6q-2 0 -19.5 15.5t-37 34.5t-36 36.5t-16.5 19.5z" />
<glyph unicode="&#xd8;" horiz-adv-x="1669" d="M88 651q0 127 36 226.5t96.5 174t139 128t164.5 86t173 47t163 14.5q102 0 199.5 -20.5t187.5 -67.5l109 141q8 10 30 11h91q41 0 28 -15l-162 -196q117 -92 177.5 -226.5t60.5 -281.5q0 -106 -38 -228t-127 -226.5t-235.5 -173.5t-363.5 -69q-25 0 -67.5 2.5t-97 10.5 t-113 23.5t-113.5 43.5q-8 -10 -27.5 -34.5t-40 -51t-37 -48t-18.5 -23.5q-4 -4 -27.5 -5.5t-42.5 -1.5h-28q-25 0 -34 2.5t-9 6.5l170 213q-18 14 -47 38.5t-64 69.5q-57 78 -95 185.5t-38 244.5zM389 692q0 -37 3 -83t14.5 -98t33 -108.5t58.5 -111.5q8 10 42.5 55 t85 110.5t111 142.5t118.5 152.5t109.5 143.5t86.5 111l57 79q-16 16 -42 39t-62.5 43.5t-86 35t-110.5 14.5q-29 0 -70 -5.5t-87 -23t-91 -50t-82 -87.5q-27 -39 -43 -86t-26.5 -95.5t-14.5 -94.5t-4 -83zM567 207q20 -18 46 -40t62 -40t81 -30.5t104 -12.5q86 0 163 30.5 t133 94t90 160t34 227.5q0 106 -24.5 207.5t-79.5 193.5z" />
<glyph unicode="&#xd9;" horiz-adv-x="1554" d="M47 1262q0 25 5 33t20 8q76 0 150.5 -2.5t152.5 -2.5q74 0 147.5 2.5t147.5 2.5q25 0 31 -6.5t6 -28.5q0 -35 -6.5 -42t-32.5 -9q-74 -6 -112 -18.5t-48 -65.5q-4 -25 -7 -92.5t-4 -146.5t-1 -153v-108q0 -84 3 -145.5t11 -108.5t23.5 -82t39.5 -61q43 -47 121 -69 t148 -22q20 0 69.5 4.5t104.5 24t104 59t72 109.5q8 27 13 61.5t8.5 102t4.5 181.5t-1 296q0 84 -6.5 130t-25 68.5t-52 27.5t-91.5 10q-29 4 -33.5 8t-4.5 33q2 33 11 38t29 5q23 0 89.5 -3.5t171.5 -3.5q57 0 114.5 3.5t96.5 3.5q16 0 21 -8.5t5 -30.5q0 -31 -8 -37 t-25 -10q-47 -6 -73.5 -22.5t-39 -53.5t-15.5 -101.5t-5 -165.5q-2 -135 -4 -228t-6 -159.5t-14.5 -114.5t-26.5 -96q-33 -92 -97.5 -150t-143 -92t-163.5 -46.5t-157 -12.5q-102 0 -193.5 18.5t-162 58.5t-118.5 102.5t-65 150.5q-6 31 -9 66t-4 95t-2 154.5t-1 243.5v99 v71q0 29 -1 49.5t-3 36.5q-4 35 -14.5 54.5t-28 28.5t-41 12.5t-51.5 5.5q-16 2 -19.5 9t-3.5 32zM381 1724q0 10 8 18.5t39 14.5q4 2 25.5 6t47 8.5t51.5 8.5t38 4t21.5 -1t19.5 -7.5t22.5 -19.5t34.5 -36q18 -20 48 -52t60.5 -64.5t59.5 -63.5t49 -51q2 0 8.5 -6 t13.5 -14.5t12 -14.5l5 -6q0 -6 -8 -7t-10 -1h-39t-25.5 2t-21 5t-21.5 9q-8 4 -39.5 20.5t-74.5 39t-91.5 49t-91.5 51t-75.5 44t-43.5 28.5q-8 6 -15 16t-7 20z" />
<glyph unicode="&#xda;" horiz-adv-x="1554" d="M47 1262q0 25 5 33t20 8q76 0 150.5 -2.5t152.5 -2.5q74 0 147.5 2.5t147.5 2.5q25 0 31 -6.5t6 -28.5q0 -35 -6.5 -42t-32.5 -9q-74 -6 -112 -18.5t-48 -65.5q-4 -25 -7 -92.5t-4 -146.5t-1 -153v-108q0 -84 3 -145.5t11 -108.5t23.5 -82t39.5 -61q43 -47 121 -69 t148 -22q20 0 69.5 4.5t104.5 24t104 59t72 109.5q8 27 13 61.5t8.5 102t4.5 181.5t-1 296q0 84 -6.5 130t-25 68.5t-52 27.5t-91.5 10q-29 4 -33.5 8t-4.5 33q2 33 11 38t29 5q23 0 89.5 -3.5t171.5 -3.5q57 0 114.5 3.5t96.5 3.5q16 0 21 -8.5t5 -30.5q0 -31 -8 -37 t-25 -10q-47 -6 -73.5 -22.5t-39 -53.5t-15.5 -101.5t-5 -165.5q-2 -135 -4 -228t-6 -159.5t-14.5 -114.5t-26.5 -96q-33 -92 -97.5 -150t-143 -92t-163.5 -46.5t-157 -12.5q-102 0 -193.5 18.5t-162 58.5t-118.5 102.5t-65 150.5q-6 31 -9 66t-4 95t-2 154.5t-1 243.5v99 v71q0 29 -1 49.5t-3 36.5q-4 35 -14.5 54.5t-28 28.5t-41 12.5t-51.5 5.5q-16 2 -19.5 9t-3.5 32zM670 1446q0 4 4 9t26 26q27 27 59 61.5t65.5 70.5t66.5 70.5t59 63.5q23 23 34 30t38 7q12 0 36.5 -3t50.5 -8.5t48.5 -9.5t32.5 -6q12 -4 26.5 -10t14.5 -21q0 -12 -8.5 -23 t-20.5 -21.5t-25.5 -17.5t-21.5 -13q-96 -53 -153.5 -84t-91 -50.5t-53 -29.5t-38.5 -19q-37 -20 -54 -25t-32 -5h-16q-10 0 -20.5 1t-18.5 2t-8 5z" />
<glyph unicode="&#xdb;" horiz-adv-x="1554" d="M47 1262q0 25 5 33t20 8q76 0 150.5 -2.5t152.5 -2.5q74 0 147.5 2.5t147.5 2.5q25 0 31 -6.5t6 -28.5q0 -35 -6.5 -42t-32.5 -9q-74 -6 -112 -18.5t-48 -65.5q-4 -25 -7 -92.5t-4 -146.5t-1 -153v-108q0 -84 3 -145.5t11 -108.5t23.5 -82t39.5 -61q43 -47 121 -69 t148 -22q20 0 69.5 4.5t104.5 24t104 59t72 109.5q8 27 13 61.5t8.5 102t4.5 181.5t-1 296q0 84 -6.5 130t-25 68.5t-52 27.5t-91.5 10q-29 4 -33.5 8t-4.5 33q2 33 11 38t29 5q23 0 89.5 -3.5t171.5 -3.5q57 0 114.5 3.5t96.5 3.5q16 0 21 -8.5t5 -30.5q0 -31 -8 -37 t-25 -10q-47 -6 -73.5 -22.5t-39 -53.5t-15.5 -101.5t-5 -165.5q-2 -135 -4 -228t-6 -159.5t-14.5 -114.5t-26.5 -96q-33 -92 -97.5 -150t-143 -92t-163.5 -46.5t-157 -12.5q-102 0 -193.5 18.5t-162 58.5t-118.5 102.5t-65 150.5q-6 31 -9 66t-4 95t-2 154.5t-1 243.5v99 v71q0 29 -1 49.5t-3 36.5q-4 35 -14.5 54.5t-28 28.5t-41 12.5t-51.5 5.5q-16 2 -19.5 9t-3.5 32zM475 1466q0 4 8.5 14.5t18.5 23t21.5 23.5t15.5 17q37 41 81 90t89 105q35 43 57 58t57 15q18 0 32.5 -4t28 -14t29 -27.5t39.5 -46.5q10 -12 33 -36.5t47.5 -51t47 -50 t34.5 -36.5q4 -4 14.5 -13t20.5 -19.5t17.5 -19.5t7.5 -13t-6.5 -12.5t-14.5 -16.5t-17.5 -15t-13.5 -7q-6 0 -19 7t-29.5 16t-32 18.5t-21.5 13.5q-12 8 -41 26.5t-61.5 39t-61.5 39t-39 24.5q-12 -10 -54 -42t-90 -67t-89 -61.5t-52 -26.5q-14 0 -35.5 20.5t-21.5 28.5z " />
<glyph unicode="&#xdc;" horiz-adv-x="1554" d="M47 1262q0 25 5 33t20 8q76 0 150.5 -2.5t152.5 -2.5q74 0 147.5 2.5t147.5 2.5q25 0 31 -6.5t6 -28.5q0 -35 -6.5 -42t-32.5 -9q-74 -6 -112 -18.5t-48 -65.5q-4 -25 -7 -92.5t-4 -146.5t-1 -153v-108q0 -84 3 -145.5t11 -108.5t23.5 -82t39.5 -61q43 -47 121 -69 t148 -22q20 0 69.5 4.5t104.5 24t104 59t72 109.5q8 27 13 61.5t8.5 102t4.5 181.5t-1 296q0 84 -6.5 130t-25 68.5t-52 27.5t-91.5 10q-29 4 -33.5 8t-4.5 33q2 33 11 38t29 5q23 0 89.5 -3.5t171.5 -3.5q57 0 114.5 3.5t96.5 3.5q16 0 21 -8.5t5 -30.5q0 -31 -8 -37 t-25 -10q-47 -6 -73.5 -22.5t-39 -53.5t-15.5 -101.5t-5 -165.5q-2 -135 -4 -228t-6 -159.5t-14.5 -114.5t-26.5 -96q-33 -92 -97.5 -150t-143 -92t-163.5 -46.5t-157 -12.5q-102 0 -193.5 18.5t-162 58.5t-118.5 102.5t-65 150.5q-6 31 -9 66t-4 95t-2 154.5t-1 243.5v99 v71q0 29 -1 49.5t-3 36.5q-4 35 -14.5 54.5t-28 28.5t-41 12.5t-51.5 5.5q-16 2 -19.5 9t-3.5 32zM489 1573q0 53 41 89t84 36t84 -36t41 -89q0 -27 -12 -49.5t-30.5 -39t-41 -25.5t-43.5 -9q-20 0 -41.5 9t-40 25.5t-30 39t-11.5 49.5zM932 1573q0 53 41 89t84 36 q45 0 85 -37t40 -88q0 -27 -11.5 -49.5t-30 -39t-41 -25.5t-42.5 -9q-43 0 -84 35t-41 88z" />
<glyph unicode="&#xdd;" horiz-adv-x="1327" d="M-18 1264q0 23 4 31t12 8q27 0 95.5 -2.5t170.5 -2.5q41 0 85 1t81 1t64.5 1.5t37.5 1.5q20 0 28.5 -5.5t8.5 -27.5q0 -29 -6 -40t-35 -11q-20 0 -44.5 -4.5t-24.5 -32.5q0 -23 18.5 -60t32.5 -61q14 -25 30.5 -50.5t41 -66.5t63.5 -102.5t98 -155.5l230 352q37 59 50 87 t13 44q0 31 -28.5 38t-57.5 10q-33 4 -40 7t-7 25q0 33 4 43.5t23 10.5q35 0 83 -2.5t126 -2.5q66 0 121 2.5t77 2.5q12 0 15.5 -8.5t3.5 -22.5q0 -29 -3 -39t-20 -14q-25 -8 -47 -19.5t-62 -52.5t-104.5 -124t-171.5 -230q-10 -16 -33.5 -48t-47 -66t-43 -61.5t-21.5 -33.5 q-4 -6 -4 -35v-70v-71q0 -47 1 -98.5t4 -96.5t7 -63q12 -53 53 -63.5t111 -10.5q10 0 12 -9.5t2 -31.5q0 -23 -3 -30t-19 -7q-39 0 -123 2t-174 2q-29 0 -76 -1t-96 -1t-95.5 -1t-72.5 -1q-10 0 -11 45q0 23 7.5 28t38.5 9q57 6 87.5 17.5t45 50t16.5 118.5t2 221 q0 18 -1 30.5t-6 27t-15.5 32t-28.5 46.5q-78 127 -158 249.5t-170 243.5q-25 35 -41 54.5t-30.5 29.5t-30 14.5t-39.5 10.5q-10 2 -12 9t-2 30zM555 1446q0 4 5 9l26 26q27 27 59.5 61.5t66 70.5t65.5 70.5t59 63.5q25 23 34.5 30t38.5 7q12 0 36 -3t49.5 -8.5t48 -9.5 t34.5 -6q12 -4 26.5 -10t14.5 -21q0 -25 -29.5 -45t-48.5 -30q-94 -53 -151.5 -84t-91 -50.5t-53 -29.5t-37.5 -19q-37 -20 -54.5 -25t-34.5 -5h-14t-21.5 1t-19.5 2t-8 5z" />
<glyph unicode="&#xde;" horiz-adv-x="1290" d="M76 39q0 29 8 34t41 9q25 2 46.5 8t36.5 20.5t25.5 39t14.5 67.5q6 47 7 144.5t1 207.5v123v99q0 59 -1 120.5t-3 115.5t-4 89q-4 37 -14.5 57.5t-30 30.5t-47 12.5t-66.5 2.5q-10 0 -12 15t-2 32q0 16 5 26.5t36 10.5q29 0 93 -2.5t198 -2.5q111 0 194.5 2.5t122.5 2.5 q16 0 18 -10.5t2 -30.5q0 -29 -7 -33t-19 -4q-55 0 -88 -4t-50.5 -21.5t-24.5 -50.5t-9 -88q74 2 123 3t84 1q78 0 134 -8t96 -20.5t67.5 -29t50.5 -34.5q41 -35 78 -98.5t37 -161.5q0 -84 -34 -156t-98.5 -123t-157.5 -79.5t-212 -28.5q-47 0 -90 2t-80 6v-37q0 -78 6 -122 t24.5 -65.5t51 -26.5t88.5 -5q23 0 26.5 -7.5t3.5 -29.5q0 -29 -2 -37t-16 -8q-20 0 -67.5 1t-104.5 3q-57 0 -112.5 1t-90.5 1q-29 0 -65.5 -1t-73.5 -1q-35 -2 -65.5 -3t-45.5 -1q-18 0 -22 9t-4 34zM543 422q20 -2 44.5 -3t53.5 -1q141 0 202.5 78.5t61.5 210.5 q0 94 -27.5 147t-67.5 78.5t-85 31t-82 5.5q-35 0 -54.5 -1t-29.5 -7.5t-12 -17.5t-2 -32l-2 -73v-416z" />
<glyph unicode="&#xdf;" horiz-adv-x="1251" d="M49 770q0 16 3 26.5t20 16.5l123 49q0 45 3 94.5t17 101.5t44 105.5t85 106.5q84 80 196.5 130t241.5 50q51 0 108.5 -11.5t107 -40t82 -80.5t32.5 -134q0 -55 -14.5 -96t-37 -72t-48 -52.5t-47.5 -37.5q-66 -49 -102 -85t-36 -87q0 -25 6.5 -41.5t27 -37t60.5 -49 t107 -73.5q35 -25 68.5 -50.5t60.5 -58t43.5 -75.5t16.5 -99q0 -86 -41 -143t-101.5 -91t-130.5 -47.5t-125 -13.5q-31 0 -74 4.5t-81 20.5q-16 8 -35 24.5t-19 47.5q0 35 26 69.5t64 34.5q23 0 39.5 -11t32.5 -28q31 -29 51.5 -39t42.5 -10q33 0 60.5 23.5t27.5 72.5 q0 61 -43 104.5t-118 96.5q-49 33 -88 61.5t-66 59.5t-40 65.5t-13 83.5q0 41 9 71t28.5 56.5t48 53t69.5 61.5q53 45 85 90t32 123q0 57 -14.5 92t-38 54.5t-55 26.5t-68.5 7q-66 0 -108 -20.5t-65.5 -54t-33.5 -77.5t-12 -91q-4 -59 -6 -148.5t-3 -200t-1 -239.5v-266 q0 -37 4 -57.5t13 -32t23.5 -15.5t32.5 -8q23 -4 23 -39q0 -29 -6 -37t-17 -8q-16 0 -35.5 1t-46.5 3q-27 0 -57.5 1t-71.5 1q-39 0 -74.5 -1t-64.5 -1q-31 -2 -55.5 -3t-42.5 -1t-22.5 7t-4.5 32q0 35 6 44t35 9q31 0 48.5 11.5t26.5 33t12 55t5 80.5q2 33 3 93.5t1 127.5 q0 68 -1 132.5t-1 103.5h-116q-14 0 -17.5 12.5t-3.5 32.5z" />
<glyph unicode="&#xe0;" horiz-adv-x="1024" d="M57 190q0 45 7.5 78t22.5 54.5t39 36t56 24.5q109 35 209.5 50.5t188.5 25.5q0 80 -2.5 131t-14.5 80.5t-39.5 41t-79.5 11.5q-4 0 -22.5 -1t-39 -4t-36.5 -10.5t-16 -21.5q0 -6 3 -21.5t3 -19.5q0 -31 -17.5 -40t-50.5 -17q-47 -12 -89 -17.5t-50 -5.5q-29 0 -34 16.5 t-5 20.5q0 31 37 80t100.5 94t147.5 78t178 33q16 0 42 -2t54.5 -8.5t58 -18.5t54.5 -31q41 -31 58.5 -76.5t17.5 -113.5q0 -23 -2 -74t-3.5 -108.5t-3.5 -108.5t-2 -70q0 -78 7.5 -105.5t52.5 -27.5q35 0 70.5 10.5t64.5 24.5l10 -6v-63q0 -12 -2 -19.5t-8 -13.5 t-20.5 -12.5t-40.5 -18.5q-25 -12 -57 -24.5t-66.5 -22.5t-68.5 -17.5t-60 -7.5q-37 0 -60.5 11.5t-38 26t-21.5 28.5t-9 20q-23 -10 -54.5 -24.5t-72.5 -27.5t-90.5 -22.5t-102.5 -9.5q-100 0 -151.5 55.5t-51.5 159.5zM156 1282q0 18 11 28.5t50 18.5q47 12 87 18.5 t48 6.5t15.5 -3t16.5 -12.5t23.5 -27t36.5 -47.5q18 -25 40 -55.5t45.5 -62.5t45 -61.5t39.5 -54.5l10 -14q11 -15 11 -17q0 -4 -17 -4h-24q-16 0 -26.5 1t-19.5 4.5t-19.5 8.5t-26.5 15q-23 14 -72 46t-101.5 65.5t-94 62.5t-50.5 37q-29 25 -28 47zM315 256 q0 -72 22.5 -102.5t88.5 -30.5q37 0 76 9t71 24l2 153q0 29 -5 48.5t-40 19.5q-16 0 -64 -8.5t-106 -36.5q-29 -14 -37 -30.5t-8 -45.5z" />
<glyph unicode="&#xe1;" horiz-adv-x="1024" d="M57 190q0 45 7.5 78t22.5 54.5t39 36t56 24.5q109 35 209.5 50.5t188.5 25.5q0 80 -2.5 131t-14.5 80.5t-39.5 41t-79.5 11.5q-4 0 -22.5 -1t-39 -4t-36.5 -10.5t-16 -21.5q0 -6 3 -21.5t3 -19.5q0 -31 -17.5 -40t-50.5 -17q-47 -12 -89 -17.5t-50 -5.5q-29 0 -34 16.5 t-5 20.5q0 31 37 80t100.5 94t147.5 78t178 33q16 0 42 -2t54.5 -8.5t58 -18.5t54.5 -31q41 -31 58.5 -76.5t17.5 -113.5q0 -23 -2 -74t-3.5 -108.5t-3.5 -108.5t-2 -70q0 -78 7.5 -105.5t52.5 -27.5q35 0 70.5 10.5t64.5 24.5l10 -6v-63q0 -12 -2 -19.5t-8 -13.5 t-20.5 -12.5t-40.5 -18.5q-25 -12 -57 -24.5t-66.5 -22.5t-68.5 -17.5t-60 -7.5q-37 0 -60.5 11.5t-38 26t-21.5 28.5t-9 20q-23 -10 -54.5 -24.5t-72.5 -27.5t-90.5 -22.5t-102.5 -9.5q-100 0 -151.5 55.5t-51.5 159.5zM315 256q0 -72 22.5 -102.5t88.5 -30.5q37 0 76 9 t71 24l2 153q0 29 -5 48.5t-40 19.5q-16 0 -64 -8.5t-106 -36.5q-29 -14 -37 -30.5t-8 -45.5zM354 999l31 44t71 99.5t78.5 109t55.5 73.5q16 20 27.5 24.5t19.5 4.5q6 0 29.5 -4t51 -9.5l52.5 -10.5t37 -9q27 -14 27 -37q0 -12 -4.5 -22.5t-23 -25.5t-55 -38.5 t-102.5 -67.5q-53 -35 -86 -56t-51 -33.5t-28.5 -18.5t-20.5 -12q-18 -10 -28.5 -12.5t-45.5 -2.5h-22q-12 0 -13 4z" />
<glyph unicode="&#xe2;" horiz-adv-x="1024" d="M57 190q0 45 7.5 78t22.5 54.5t39 36t56 24.5q109 35 209.5 50.5t188.5 25.5q0 80 -2.5 131t-14.5 80.5t-39.5 41t-79.5 11.5q-4 0 -22.5 -1t-39 -4t-36.5 -10.5t-16 -21.5q0 -6 3 -21.5t3 -19.5q0 -31 -17.5 -40t-50.5 -17q-47 -12 -89 -17.5t-50 -5.5q-29 0 -34 16.5 t-5 20.5q0 31 37 80t100.5 94t147.5 78t178 33q16 0 42 -2t54.5 -8.5t58 -18.5t54.5 -31q41 -31 58.5 -76.5t17.5 -113.5q0 -23 -2 -74t-3.5 -108.5t-3.5 -108.5t-2 -70q0 -78 7.5 -105.5t52.5 -27.5q35 0 70.5 10.5t64.5 24.5l10 -6v-63q0 -12 -2 -19.5t-8 -13.5 t-20.5 -12.5t-40.5 -18.5q-25 -12 -57 -24.5t-66.5 -22.5t-68.5 -17.5t-60 -7.5q-37 0 -60.5 11.5t-38 26t-21.5 28.5t-9 20q-23 -10 -54.5 -24.5t-72.5 -27.5t-90.5 -22.5t-102.5 -9.5q-100 0 -151.5 55.5t-51.5 159.5zM209 1001q0 2 6 10.5t13.5 18.5t14.5 19.5t11 13.5 q12 14 38.5 52t55.5 79t55.5 78t36.5 51q8 10 21.5 20.5t34.5 10.5q12 0 21 -3t21.5 -16.5t32 -42t52.5 -78.5q29 -47 62.5 -92t51.5 -69q23 -29 28 -35t5 -10q0 -10 -18.5 -28.5t-26.5 -18.5t-38 21.5t-66.5 51t-71.5 60.5t-53 47q-18 -16 -57.5 -47t-78 -60.5t-70.5 -52.5 t-38 -23q-10 0 -26.5 16.5t-16.5 26.5zM315 256q0 -72 22.5 -102.5t88.5 -30.5q37 0 76 9t71 24l2 153q0 29 -5 48.5t-40 19.5q-16 0 -64 -8.5t-106 -36.5q-29 -14 -37 -30.5t-8 -45.5z" />
<glyph unicode="&#xe3;" horiz-adv-x="1024" d="M57 190q0 45 7.5 78t22.5 54.5t39 36t56 24.5q109 35 209.5 50.5t188.5 25.5q0 80 -2.5 131t-14.5 80.5t-39.5 41t-79.5 11.5q-4 0 -22.5 -1t-39 -4t-36.5 -10.5t-16 -21.5q0 -6 3 -21.5t3 -19.5q0 -31 -17.5 -40t-50.5 -17q-47 -12 -89 -17.5t-50 -5.5q-29 0 -34 16.5 t-5 20.5q0 31 37 80t100.5 94t147.5 78t178 33q16 0 42 -2t54.5 -8.5t58 -18.5t54.5 -31q41 -31 58.5 -76.5t17.5 -113.5q0 -23 -2 -74t-3.5 -108.5t-3.5 -108.5t-2 -70q0 -78 7.5 -105.5t52.5 -27.5q35 0 70.5 10.5t64.5 24.5l10 -6v-63q0 -12 -2 -19.5t-8 -13.5 t-20.5 -12.5t-40.5 -18.5q-25 -12 -57 -24.5t-66.5 -22.5t-68.5 -17.5t-60 -7.5q-37 0 -60.5 11.5t-38 26t-21.5 28.5t-9 20q-23 -10 -54.5 -24.5t-72.5 -27.5t-90.5 -22.5t-102.5 -9.5q-100 0 -151.5 55.5t-51.5 159.5zM156 1083q0 4 16 34t33 59q10 16 27.5 40.5t41 46 t53 37t64.5 15.5q39 0 73 -18.5t73 -43.5q53 -37 78.5 -44t41.5 -7q29 0 49.5 13.5t43.5 41.5q4 4 13 19.5t13 15.5q2 0 10.5 -5t17.5 -11t17 -13.5t8 -11.5t-13 -30.5t-34 -57.5q-51 -86 -91 -114.5t-85 -28.5q-39 0 -71.5 16.5t-75.5 42.5q-35 20 -54.5 33.5t-33 20 t-21.5 8.5t-18 2q-33 0 -55.5 -23.5t-36.5 -46.5q-4 -6 -12.5 -19.5t-12.5 -13.5t-13 5.5t-19.5 12.5t-18.5 14t-8 11zM315 256q0 -72 22.5 -102.5t88.5 -30.5q37 0 76 9t71 24l2 153q0 29 -5 48.5t-40 19.5q-16 0 -64 -8.5t-106 -36.5q-29 -14 -37 -30.5t-8 -45.5z" />
<glyph unicode="&#xe4;" horiz-adv-x="1024" d="M57 190q0 45 7.5 78t22.5 54.5t39 36t56 24.5q109 35 209.5 50.5t188.5 25.5q0 80 -2.5 131t-14.5 80.5t-39.5 41t-79.5 11.5q-4 0 -22.5 -1t-39 -4t-36.5 -10.5t-16 -21.5q0 -6 3 -21.5t3 -19.5q0 -31 -17.5 -40t-50.5 -17q-47 -12 -89 -17.5t-50 -5.5q-29 0 -34 16.5 t-5 20.5q0 31 37 80t100.5 94t147.5 78t178 33q16 0 42 -2t54.5 -8.5t58 -18.5t54.5 -31q41 -31 58.5 -76.5t17.5 -113.5q0 -23 -2 -74t-3.5 -108.5t-3.5 -108.5t-2 -70q0 -78 7.5 -105.5t52.5 -27.5q35 0 70.5 10.5t64.5 24.5l10 -6v-63q0 -12 -2 -19.5t-8 -13.5 t-20.5 -12.5t-40.5 -18.5q-25 -12 -57 -24.5t-66.5 -22.5t-68.5 -17.5t-60 -7.5q-37 0 -60.5 11.5t-38 26t-21.5 28.5t-9 20q-23 -10 -54.5 -24.5t-72.5 -27.5t-90.5 -22.5t-102.5 -9.5q-100 0 -151.5 55.5t-51.5 159.5zM176 1135q0 25 11.5 46t30 38.5t41.5 26.5t48 9 q47 0 82 -36.5t35 -85.5q0 -51 -39 -86t-82 -35q-47 0 -87 36.5t-40 86.5zM315 256q0 -72 22.5 -102.5t88.5 -30.5q37 0 76 9t71 24l2 153q0 29 -5 48.5t-40 19.5q-16 0 -64 -8.5t-106 -36.5q-29 -14 -37 -30.5t-8 -45.5zM551 1135q0 53 42 86.5t89 33.5t82 -37.5t35 -84.5 q0 -49 -38 -85t-83 -36q-47 0 -87 35.5t-40 87.5z" />
<glyph unicode="&#xe5;" horiz-adv-x="1024" d="M57 190q0 45 7.5 78t22.5 54.5t39 36t56 24.5q109 35 209.5 50.5t188.5 25.5q0 80 -2.5 131t-14.5 80.5t-39.5 41t-79.5 11.5q-4 0 -22.5 -1t-39 -4t-36.5 -10.5t-16 -21.5q0 -6 3 -21.5t3 -19.5q0 -31 -17.5 -40t-50.5 -17q-47 -12 -89 -17.5t-50 -5.5q-29 0 -34 16.5 t-5 20.5q0 31 37 80t100.5 94t147.5 78t178 33q16 0 42 -2t54.5 -8.5t58 -18.5t54.5 -31q41 -31 58.5 -76.5t17.5 -113.5q0 -23 -2 -74t-3.5 -108.5t-3.5 -108.5t-2 -70q0 -78 7.5 -105.5t52.5 -27.5q35 0 70.5 10.5t64.5 24.5l10 -6v-63q0 -12 -2 -19.5t-8 -13.5 t-20.5 -12.5t-40.5 -18.5q-25 -12 -57 -24.5t-66.5 -22.5t-68.5 -17.5t-60 -7.5q-37 0 -60.5 11.5t-38 26t-21.5 28.5t-9 20q-23 -10 -54.5 -24.5t-72.5 -27.5t-90.5 -22.5t-102.5 -9.5q-100 0 -151.5 55.5t-51.5 159.5zM258 1182q0 45 19.5 81.5t53.5 63.5t77 40t90 13 q49 0 92 -13t76.5 -40t53 -63.5t19.5 -81.5q0 -47 -19.5 -84t-53 -62.5t-77.5 -39t-91 -13.5t-90 13.5t-77 39t-53.5 62.5t-19.5 84zM315 256q0 -72 22.5 -102.5t88.5 -30.5q37 0 76 9t71 24l2 153q0 29 -5 48.5t-40 19.5q-16 0 -64 -8.5t-106 -36.5q-29 -14 -37 -30.5 t-8 -45.5zM397 1182q0 -18 5.5 -41t17.5 -41.5t30.5 -30.5t47.5 -12q27 0 46 11t31.5 29.5t18.5 41t6 43.5q0 43 -24.5 84t-77.5 41t-77 -41t-24 -84z" />
<glyph unicode="&#xe6;" horiz-adv-x="1441" d="M92 190q0 57 14.5 94.5t39 60t56 35.5t68.5 23q35 10 79 19.5t90 19t91 17.5t82 14q2 74 0 127t-15 87t-42 50.5t-84 16.5q-63 0 -80.5 -7.5t-17.5 -25.5q0 -10 2 -41t2 -39q0 -23 -11.5 -31t-48.5 -18q-12 -4 -32.5 -9t-41 -10.5t-40 -9.5t-31.5 -4q-10 0 -28.5 7 t-18.5 30q0 37 34 87t94 95t141 77t175 32q51 0 88 -10.5t61.5 -24.5t40 -28.5t23.5 -22.5q12 10 34 24.5t52.5 28.5t73.5 23.5t98 9.5q104 0 167 -31t98.5 -76t50 -93t22.5 -83q2 -10 4 -12t13 -6q4 -4 6 -23.5t2 -27.5q0 -20 -9.5 -25.5t-47.5 -11.5q-117 -23 -240 -40.5 t-244 -33.5q2 -29 11.5 -77t34 -94t72.5 -80t132 -34q33 0 92.5 9.5t136.5 50.5h15l16 -23q4 -4 10.5 -15t6.5 -16q0 -6 -31 -33.5t-87.5 -58t-135 -54.5t-172.5 -24q-16 0 -45 2.5t-66 12.5t-76 33.5t-71 66.5q-92 -53 -191.5 -84t-206.5 -31q-111 0 -163 55.5t-52 159.5z M358 246q0 -72 34 -96.5t79 -24.5q29 0 59.5 4t55 11t41 16.5t16.5 17.5q0 4 -6 19.5t-8 19.5q-10 29 -17 82q-4 53 -9 69.5t-30 16.5q-6 0 -20 -2t-32.5 -6t-38 -9.5t-33.5 -9.5q-33 -10 -62 -30.5t-29 -77.5zM860 516q63 8 115.5 17.5t75.5 15.5q53 10 62 21.5t9 23.5 l-3 28q-3 27 -16 61t-39 62.5t-69 28.5t-70.5 -23.5t-42 -60.5t-19.5 -83t-3 -91z" />
<glyph unicode="&#xe7;" horiz-adv-x="909" d="M76 365q0 123 45 220t119.5 163.5t172 102.5t201.5 36q55 0 101.5 -10.5t81 -26.5t54 -40t19.5 -50q0 -20 -13 -44t-32.5 -43.5t-41 -31.5t-38.5 -12q-16 0 -28 7t-41 30q-47 39 -92 49t-82 10q-23 0 -49.5 -5t-44.5 -22q-23 -18 -35.5 -46.5t-18.5 -59.5t-7 -56.5 t-1 -37.5q0 -23 3 -54.5t10.5 -67.5t22.5 -73t40 -67q33 -41 78 -58.5t98 -17.5q92 0 143.5 30.5t73.5 49.5h16l25 -76q4 -8 4 -23q0 -2 -15.5 -18.5t-47 -39t-80.5 -47t-117 -42.5q-4 -6 -12 -17.5t-16.5 -23.5t-14.5 -22.5t-6 -14.5q0 -14 37 -35q12 -8 28.5 -18t31 -27.5 t24.5 -41t10 -56.5t-18.5 -72t-51 -71.5t-80 -55t-102.5 -22.5q-35 0 -56.5 9t-33.5 23.5t-17.5 27.5t-5.5 24q0 12 5.5 27.5t14.5 30.5t21.5 25.5t24.5 10.5q14 0 30.5 -7t45.5 -28q20 -14 30.5 -18t20.5 -4q35 0 35 32q0 29 -21.5 47.5t-68.5 46.5q-47 29 -58.5 36 t-11.5 18q0 16 16 37q16 20 45 56t54 66q-111 -6 -192 24t-132 83t-75.5 126t-24.5 155z" />
<glyph unicode="&#xe8;" horiz-adv-x="948" d="M76 383q0 125 39 219t103.5 157.5t147.5 95.5t171 32q137 0 233 -73t115 -196q2 -12 3 -16t9 -10q6 -4 9 -13.5t3 -50.5q0 -20 -8 -25t-45 -11q-102 -16 -164.5 -26.5t-113 -18t-100.5 -16.5t-126 -21q12 -74 40 -125.5t65 -82t80 -44t86 -13.5q55 0 109 14.5t99 47.5h13 l18 -31q4 -6 9.5 -15t5.5 -14q0 -10 -32 -37.5t-89.5 -57t-135 -53.5t-169.5 -24q-100 0 -171 33t-116 89.5t-66.5 130t-21.5 155.5zM119 1282q0 18 12 28.5t49 18.5q47 12 88 18.5t47 6.5q8 0 15.5 -3t17.5 -12.5t24.5 -27t37.5 -47.5q18 -25 39.5 -55.5t44 -62.5t44 -61.5 t40.5 -54.5q2 0 12 -14.5t10 -16.5q0 -4 -16 -4h-25q-16 0 -27.5 1t-20.5 4.5t-19.5 8.5t-24.5 15q-23 14 -72 46t-101 65.5t-95 62.5t-52 37q-29 25 -28 47zM342 494q29 6 65.5 13t70.5 15t58 14l23 5q37 10 51.5 24.5t14.5 36.5q0 14 -6.5 43t-21.5 57.5t-42 50t-66 21.5 q-31 0 -58.5 -17.5t-49 -52t-32.5 -86.5t-7 -124z" />
<glyph unicode="&#xe9;" horiz-adv-x="948" d="M76 383q0 125 39 219t103.5 157.5t147.5 95.5t171 32q137 0 233 -73t115 -196q2 -12 3 -16t9 -10q6 -4 9 -13.5t3 -50.5q0 -20 -8 -25t-45 -11q-102 -16 -164.5 -26.5t-113 -18t-100.5 -16.5t-126 -21q12 -74 40 -125.5t65 -82t80 -44t86 -13.5q55 0 109 14.5t99 47.5h13 l18 -31q4 -6 9.5 -15t5.5 -14q0 -10 -32 -37.5t-89.5 -57t-135 -53.5t-169.5 -24q-100 0 -171 33t-116 89.5t-66.5 130t-21.5 155.5zM342 494q29 6 65.5 13t70.5 15t58 14l23 5q37 10 51.5 24.5t14.5 36.5q0 14 -6.5 43t-21.5 57.5t-42 50t-66 21.5q-31 0 -58.5 -17.5 t-49 -52t-32.5 -86.5t-7 -124zM346 999l31 44t71.5 99.5t79.5 109t56 73.5q16 20 26.5 24.5t20.5 4.5q6 0 29.5 -4t50 -9.5t52 -11.5t36.5 -10q29 -10 28 -35q0 -12 -5 -22.5t-23.5 -25.5t-55 -38.5t-102.5 -67.5q-53 -35 -85 -56t-51.5 -33.5t-29.5 -18.5l-20 -12 q-16 -10 -26.5 -12.5t-45.5 -2.5h-23q-14 0 -14 4z" />
<glyph unicode="&#xea;" horiz-adv-x="948" d="M76 383q0 125 39 219t103.5 157.5t147.5 95.5t171 32q137 0 233 -73t115 -196q2 -12 3 -16t9 -10q6 -4 9 -13.5t3 -50.5q0 -20 -8 -25t-45 -11q-102 -16 -164.5 -26.5t-113 -18t-100.5 -16.5t-126 -21q12 -74 40 -125.5t65 -82t80 -44t86 -13.5q55 0 109 14.5t99 47.5h13 l18 -31q4 -6 9.5 -15t5.5 -14q0 -10 -32 -37.5t-89.5 -57t-135 -53.5t-169.5 -24q-100 0 -171 33t-116 89.5t-66.5 130t-21.5 155.5zM217 1001q0 2 5 10.5t13.5 18.5t15.5 19.5t11 13.5q12 14 38 52t55.5 79t55 78t35.5 51q10 10 23.5 20.5t32.5 10.5q14 0 23.5 -3 t21.5 -16.5t30.5 -41t51.5 -79.5q31 -47 64.5 -92t51.5 -69q23 -29 28 -35t5 -10t-6 -12.5t-13 -16.5t-15.5 -13t-10.5 -5q-8 0 -39.5 22.5t-68.5 52t-72 59.5t-51 46q-16 -14 -53 -44t-77 -60.5t-73 -54.5t-39 -24q-12 0 -27.5 16.5t-15.5 26.5zM342 494q29 6 65.5 13 t70.5 15t58 14l23 5q37 10 51.5 24.5t14.5 36.5q0 14 -6.5 43t-21.5 57.5t-42 50t-66 21.5q-31 0 -58.5 -17.5t-49 -52t-32.5 -86.5t-7 -124z" />
<glyph unicode="&#xeb;" horiz-adv-x="948" d="M76 383q0 125 39 219t103.5 157.5t147.5 95.5t171 32q137 0 233 -73t115 -196q2 -12 3 -16t9 -10q6 -4 9 -13.5t3 -50.5q0 -20 -8 -25t-45 -11q-102 -16 -164.5 -26.5t-113 -18t-100.5 -16.5t-126 -21q12 -74 40 -125.5t65 -82t80 -44t86 -13.5q55 0 109 14.5t99 47.5h13 l18 -31q4 -6 9.5 -15t5.5 -14q0 -10 -32 -37.5t-89.5 -57t-135 -53.5t-169.5 -24q-100 0 -171 33t-116 89.5t-66.5 130t-21.5 155.5zM186 1135q0 25 11.5 47t30 38.5t41.5 25.5t48 9q47 0 82 -36.5t35 -85.5q0 -51 -39 -86t-82 -35q-47 0 -87 36.5t-40 86.5zM342 494 q29 6 65.5 13t70.5 15t58 14l23 5q37 10 51.5 24.5t14.5 36.5q0 14 -6.5 43t-21.5 57.5t-42 50t-66 21.5q-31 0 -58.5 -17.5t-49 -52t-32.5 -86.5t-7 -124zM561 1135q0 53 42 86.5t89 33.5t82 -37.5t35 -84.5q0 -49 -38 -85t-83 -36q-47 0 -87 35.5t-40 87.5z" />
<glyph unicode="&#xec;" horiz-adv-x="645" d="M8 1278q0 20 13.5 31.5t48.5 19.5q47 12 81.5 18.5t43.5 6.5q16 0 28.5 -15.5t44.5 -74.5l107 -199q2 -4 7 -13.5t11 -20.5t11.5 -19t5.5 -11q0 -4 -14.5 -5t-22.5 -1q-16 0 -26.5 1t-22 6.5t-24.5 15.5t-36 29q-12 10 -43 34.5t-65.5 52t-65.5 51t-43 34.5 q-6 4 -22.5 20t-16.5 39zM37 39q0 29 5 36t36 11q57 8 80.5 32.5t31.5 84.5q6 41 7.5 134t1.5 202q0 51 -2 83.5t-12.5 52t-30 30t-52.5 16.5q-31 4 -36 9t-5 32q0 31 5.5 37t31.5 14l254 74q29 8 53.5 13t43.5 5q12 0 22 -4t10 -18l-12 -140q-2 -33 -3 -63.5t-2 -69.5 t-1 -88v-112v-66t1 -88t4 -82t7 -49q10 -29 41 -34t90 -9q23 -2 27 -12.5t4 -28.5q0 -23 -7 -34t-30 -11q-68 0 -136.5 3t-135.5 3q-66 0 -129.5 -3t-128.5 -3q-16 0 -24.5 7t-8.5 36z" />
<glyph unicode="&#xed;" horiz-adv-x="645" d="M37 39q0 29 5 36t36 11q57 8 80.5 32.5t31.5 84.5q6 41 7.5 134t1.5 202q0 51 -2 83.5t-12.5 52t-30 30t-52.5 16.5q-31 4 -36 9t-5 32q0 31 5.5 37t31.5 14l254 74q29 8 53.5 13t43.5 5q12 0 22 -4t10 -18l-12 -140q-2 -33 -3 -63.5t-2 -69.5t-1 -88v-112v-66t1 -88 t4 -82t7 -49q10 -29 41 -34t90 -9q23 -2 27 -12.5t4 -28.5q0 -23 -7 -34t-30 -11q-68 0 -136.5 3t-135.5 3q-66 0 -129.5 -3t-128.5 -3q-16 0 -24.5 7t-8.5 36zM186 1001l14 25q13 25 32.5 60.5t42 77.5t43 79t36 63.5t19.5 30.5q12 17 28 17q8 0 25.5 -3t36 -7.5t36 -8.5 t27.5 -6q35 -8 48.5 -20.5t13.5 -28.5q0 -12 -3 -21.5t-17.5 -23.5t-44 -37.5t-85.5 -67.5q-10 -8 -35.5 -27.5t-53 -41t-50.5 -39.5t-27 -21q-10 -4 -17 -5t-34 -1q-23 0 -29 1t-6 5z" />
<glyph unicode="&#xee;" horiz-adv-x="645" d="M18 1001q0 2 6.5 10.5t13.5 18.5t14 19.5t11 13.5q12 14 39 52t55.5 79t55.5 78t37 51q8 10 21.5 20.5t33.5 10.5q12 0 21.5 -3t21.5 -16.5t31.5 -41t52.5 -79.5q29 -47 62.5 -92t52.5 -69q23 -29 28 -35t5 -10q0 -10 -18.5 -28.5t-26.5 -18.5t-39 22.5t-68 52t-73 59.5 t-52 46q-16 -14 -53 -45t-77 -61.5t-72.5 -53.5t-39.5 -23q-10 0 -26.5 16.5t-16.5 26.5zM37 39q0 29 5 36t36 11q57 8 80.5 32.5t31.5 84.5q6 41 7.5 134t1.5 202q0 51 -2 83.5t-12.5 52t-30 30t-52.5 16.5q-31 4 -36 9t-5 32q0 31 5.5 37t31.5 14l254 74q29 8 53.5 13 t43.5 5q12 0 22 -4t10 -18l-12 -140q-2 -33 -3 -63.5t-2 -69.5t-1 -88v-112v-66t1 -88t4 -82t7 -49q10 -29 41 -34t90 -9q23 -2 27 -12.5t4 -28.5q0 -23 -7 -34t-30 -11q-68 0 -136.5 3t-135.5 3q-66 0 -129.5 -3t-128.5 -3q-16 0 -24.5 7t-8.5 36z" />
<glyph unicode="&#xef;" horiz-adv-x="645" d="M-12 1135q0 51 42 85.5t89 34.5t82 -37.5t35 -84.5q0 -49 -38 -85t-83 -36q-47 0 -87 36.5t-40 86.5zM37 39q0 29 5 36t36 11q57 8 80.5 32.5t31.5 84.5q6 41 7.5 134t1.5 202q0 51 -2 83.5t-12.5 52t-30 30t-52.5 16.5q-31 4 -36 9t-5 32q0 31 5.5 37t31.5 14l254 74 q29 8 53.5 13t43.5 5q12 0 22 -4t10 -18l-12 -140q-2 -33 -3 -63.5t-2 -69.5t-1 -88v-112v-66t1 -88t4 -82t7 -49q10 -29 41 -34t90 -9q23 -2 27 -12.5t4 -28.5q0 -23 -7 -34t-30 -11q-68 0 -136.5 3t-135.5 3q-66 0 -129.5 -3t-128.5 -3q-16 0 -24.5 7t-8.5 36zM362 1135 q0 53 43.5 86.5t88.5 33.5q47 0 81.5 -36.5t34.5 -85.5t-37.5 -85t-83.5 -36q-47 0 -87 35.5t-40 87.5z" />
<glyph unicode="&#xf0;" horiz-adv-x="1175" d="M74 416q0 129 51 219t125 146.5t156.5 81t148.5 24.5q68 0 105.5 -18.5t60.5 -32.5q-25 49 -52.5 96t-53 87t-46 69.5t-28.5 44.5l-168 -160q-4 -4 -14.5 6t-32.5 39q-20 20 -17 24l180 160q-25 31 -41 51.5t-32.5 41t-36 44t-49.5 60.5q-4 8 -6 13t8 9q51 29 63 29 q14 0 43 -19.5t60.5 -45t60.5 -50t41 -35.5l170 158q4 4 14.5 -5t20.5 -21q20 -23 26.5 -30t2.5 -11l-172 -148q102 -98 162.5 -177t80.5 -108q25 -33 57.5 -85t63.5 -117.5t52.5 -143t21.5 -161.5q0 -115 -43 -204t-118 -149.5t-176 -91.5t-216 -31q-90 0 -175 27 t-150.5 80t-106.5 136t-41 198zM371 514q0 -47 9 -118.5t34.5 -140.5t74 -118t127.5 -49q70 0 109 35t56.5 81t20.5 89t3 61q0 63 -12.5 137t-42 136.5t-77.5 104.5t-120 42q-68 0 -105.5 -36t-54 -82t-19.5 -88t-3 -54z" />
<glyph unicode="&#xf1;" horiz-adv-x="1251" d="M45 35q0 29 6 37t39 12q47 6 67.5 28.5t24.5 69.5q4 31 5 103.5t1 185.5q0 66 -2 108t-11 67.5t-26.5 35.5t-48.5 12q-37 2 -46 7.5t-9 33.5q0 23 9 30t44 21q29 10 68 24.5l78 29t74.5 28t60.5 19.5q27 8 53 8q8 0 18.5 -2t10.5 -19q0 -6 -2 -23t-4 -38.5t-4 -41 t-2 -28.5q23 14 66.5 39t98 48.5t114 41t112.5 17.5q12 0 37.5 -2t55.5 -12.5t58.5 -30t50.5 -53.5q35 -51 40 -123t5 -144v-219q0 -86 5 -135q2 -31 8 -47.5t20.5 -24.5t39 -12t61.5 -6q25 -2 29.5 -10.5t4.5 -30.5q0 -23 -5 -32t-29 -9q-66 0 -128.5 2t-127.5 2 q-59 0 -121 -2t-121 -2q-18 0 -21.5 9t-3.5 28q0 29 4.5 34t26.5 11q45 10 60.5 27.5t23.5 66.5q2 18 3 57t2 83t1 85v68q0 35 -3 77t-18.5 78.5t-51 61.5t-99.5 25q-45 0 -100 -12.5t-82 -24.5q-10 -4 -14.5 -11.5t-4.5 -42.5v-92v-133t1.5 -130t3.5 -83q2 -20 5 -38.5 t13 -33t32.5 -22.5t63.5 -8q23 0 29 -6t6 -35q0 -23 -3 -31t-26 -8q-59 0 -118.5 2t-118.5 2q-100 0 -166 -2t-100 -2q-16 0 -19.5 7t-3.5 30zM301 1083q0 2 6 14.5t14.5 27t16.5 28.5t12 23q14 23 32.5 47t42.5 44.5t51.5 34t60.5 13.5q39 0 72.5 -18.5t70.5 -43.5 q53 -35 78.5 -43t42.5 -8q29 0 51 14.5t51 55.5q10 14 13.5 17t5.5 3t10 -5t17 -11t17.5 -13.5t8.5 -11.5q0 -6 -15.5 -34.5t-31.5 -53.5q-49 -84 -90 -113.5t-88 -29.5q-18 0 -35 4t-35 12t-41 21.5t-55 34.5q-47 31 -68.5 41t-40.5 10q-33 0 -56.5 -25.5t-33.5 -44.5 q-4 -6 -13.5 -19.5t-13.5 -13.5q-2 0 -11 5.5t-19.5 12.5t-18.5 14t-8 11z" />
<glyph unicode="&#xf2;" horiz-adv-x="1175" d="M76 436q0 84 32.5 165t99 144.5t169 102.5t241.5 39q141 0 234.5 -44t148 -109.5t77 -142.5t22.5 -142q0 -109 -41 -197t-115 -149.5t-175 -94.5t-222 -33q-59 0 -140 17.5t-161 73.5q-29 18 -59.5 47.5t-55.5 72.5t-40 104.5t-15 145.5zM233 1282q0 18 11.5 28.5 t50.5 18.5q47 12 87 18.5t48 6.5t15.5 -3t16.5 -12.5t23.5 -27t36.5 -47.5q18 -25 40 -55.5t45.5 -62.5t45 -61.5t39.5 -54.5l10 -14q11 -15 11 -17q0 -4 -17 -4h-24q-16 0 -26.5 1t-20 4.5t-19.5 8.5t-26 15q-23 14 -72 46t-101.5 65.5t-94.5 62.5t-50 37q-29 25 -29 47z M371 514q0 -47 9 -118.5t34.5 -140.5t74 -118t127.5 -49q70 0 109 35t56.5 81t20.5 89t3 61q0 63 -12.5 137t-42 136.5t-77.5 104.5t-120 42q-68 0 -105.5 -36t-54 -82t-19.5 -88t-3 -54z" />
<glyph unicode="&#xf3;" horiz-adv-x="1175" d="M76 436q0 84 32.5 165t99 144.5t169 102.5t241.5 39q141 0 234.5 -44t148 -109.5t77 -142.5t22.5 -142q0 -109 -41 -197t-115 -149.5t-175 -94.5t-222 -33q-59 0 -140 17.5t-161 73.5q-29 18 -59.5 47.5t-55.5 72.5t-40 104.5t-15 145.5zM371 514q0 -47 9 -118.5 t34.5 -140.5t74 -118t127.5 -49q70 0 109 35t56.5 81t20.5 89t3 61q0 63 -12.5 137t-42 136.5t-77.5 104.5t-120 42q-68 0 -105.5 -36t-54 -82t-19.5 -88t-3 -54zM461 999l27 38q26 38 60 85t64.5 89t38.5 53q43 59 59.5 74.5t32.5 15.5q6 0 30 -4t51.5 -9.5t52 -11.5 t36.5 -10q27 -10 27 -35q0 -12 -4 -22.5t-22.5 -25.5t-55.5 -38.5t-102 -67.5q-53 -35 -86 -56t-51.5 -33.5t-28.5 -18.5t-21 -12q-18 -10 -28.5 -12.5t-44.5 -2.5h-23q-12 0 -12 4z" />
<glyph unicode="&#xf4;" horiz-adv-x="1175" d="M76 436q0 84 32.5 165t99 144.5t169 102.5t241.5 39q141 0 234.5 -44t148 -109.5t77 -142.5t22.5 -142q0 -109 -41 -197t-115 -149.5t-175 -94.5t-222 -33q-59 0 -140 17.5t-161 73.5q-29 18 -59.5 47.5t-55.5 72.5t-40 104.5t-15 145.5zM307 1001q0 2 5 10.5t13.5 18.5 t15.5 19.5t11 13.5q12 14 39 52t55.5 79t55 78t37.5 51q8 10 21 20.5t32 10.5q14 0 23.5 -3t21.5 -16.5t30.5 -40t49.5 -73.5q33 -49 65.5 -95.5t53.5 -70.5q2 -4 17 -23.5t15 -23.5q0 -10 -18.5 -28.5t-26.5 -18.5t-38.5 21.5t-67.5 51t-72 60.5t-53 47q-18 -16 -56 -47 t-77 -60.5t-71 -52.5t-38 -23q-10 0 -26.5 16.5t-16.5 26.5zM371 514q0 -47 9 -118.5t34.5 -140.5t74 -118t127.5 -49q70 0 109 35t56.5 81t20.5 89t3 61q0 63 -12.5 137t-42 136.5t-77.5 104.5t-120 42q-68 0 -105.5 -36t-54 -82t-19.5 -88t-3 -54z" />
<glyph unicode="&#xf5;" horiz-adv-x="1175" d="M76 436q0 84 32.5 165t99 144.5t169 102.5t241.5 39q141 0 234.5 -44t148 -109.5t77 -142.5t22.5 -142q0 -109 -41 -197t-115 -149.5t-175 -94.5t-222 -33q-59 0 -140 17.5t-161 73.5q-29 18 -59.5 47.5t-55.5 72.5t-40 104.5t-15 145.5zM252 1083q0 4 16.5 34t32.5 59 q10 16 27.5 40.5t41 46t52.5 37t63 15.5q41 0 75 -19.5t71 -42.5q55 -37 79.5 -44t41.5 -7q31 0 53 15.5t49 54.5q10 14 12 17t6 3q2 0 10.5 -5t17.5 -11t16.5 -13.5t7.5 -11.5q0 -10 -45 -88q-47 -76 -86.5 -109.5t-92.5 -33.5q-39 0 -70.5 16.5t-74.5 42.5 q-35 20 -55.5 33.5t-33.5 20t-21.5 8.5t-18.5 2q-31 0 -53.5 -23.5t-36.5 -46.5q-4 -6 -13.5 -19.5t-13.5 -13.5q-2 0 -11 5.5t-19.5 12.5t-18.5 14t-8 11zM371 514q0 -47 9 -118.5t34.5 -140.5t74 -118t127.5 -49q70 0 109 35t56.5 81t20.5 89t3 61q0 63 -12.5 137 t-42 136.5t-77.5 104.5t-120 42q-68 0 -105.5 -36t-54 -82t-19.5 -88t-3 -54z" />
<glyph unicode="&#xf6;" horiz-adv-x="1175" d="M76 436q0 84 32.5 165t99 144.5t169 102.5t241.5 39q141 0 234.5 -44t148 -109.5t77 -142.5t22.5 -142q0 -109 -41 -197t-115 -149.5t-175 -94.5t-222 -33q-59 0 -140 17.5t-161 73.5q-29 18 -59.5 47.5t-55.5 72.5t-40 104.5t-15 145.5zM276 1135q0 53 42.5 86.5 t89.5 33.5t81.5 -36.5t34.5 -85.5q0 -51 -37.5 -86t-83.5 -35q-47 0 -87 35.5t-40 87.5zM371 514q0 -47 9 -118.5t34.5 -140.5t74 -118t127.5 -49q70 0 109 35t56.5 81t20.5 89t3 61q0 63 -12.5 137t-42 136.5t-77.5 104.5t-120 42q-68 0 -105.5 -36t-54 -82t-19.5 -88 t-3 -54zM651 1135q0 25 11.5 47t30 38.5t41.5 25.5t48 9q47 0 82 -37.5t35 -84.5q0 -49 -38 -85t-83 -36q-47 0 -87 36.5t-40 86.5z" />
<glyph unicode="&#xf7;" d="M72 590v117q0 16 3 19t21 3l434 -2h103h121q61 0 117.5 1t93.5 1q18 0 21 -2t3 -16v-117q2 -16 -1 -19.5t-19 -3.5h-76h-113h-129h-129h-110h-70h-248q-16 0 -19 2t-3 17zM401 336q0 25 12.5 48.5t32 41.5t43 30.5t46.5 12.5t45 -12.5t39.5 -31.5t28.5 -43t11 -46 q0 -25 -12 -48.5t-31.5 -41t-42 -27.5t-43.5 -10q-23 0 -45 11t-40.5 29.5t-31 41t-12.5 45.5zM401 956q0 25 12.5 48.5t32 42t43 31t46.5 12.5t45 -12.5t39.5 -32t28.5 -43t11 -46.5q0 -25 -12 -47t-31.5 -40.5t-42 -29t-43.5 -10.5q-23 0 -45 11.5t-40.5 30t-31 40.5 t-12.5 45z" />
<glyph unicode="&#xf8;" horiz-adv-x="1175" d="M74 416q0 119 44 208t117.5 147t172 87t208.5 29q109 0 169 -20.5t83 -30.5q6 6 18.5 22t27 33.5t26.5 33t18 21.5q4 4 12.5 5t41.5 1q39 0 48 -1t9 -9q0 -2 -17.5 -23.5t-39 -47t-42 -50t-26.5 -33.5q78 -66 117 -152.5t39 -189.5q0 -106 -41 -193t-114 -148.5 t-174 -95.5t-224 -34q-94 0 -153.5 20.5t-82.5 31.5q-6 -6 -20.5 -24.5t-29.5 -39t-28.5 -37t-15.5 -18.5q-6 -6 -14 -7t-43 -1q-53 0 -54 12l18 22q17 21 38.5 48.5t42 54t26.5 37.5q-53 39 -83.5 87t-47 94t-21.5 88t-5 73zM358 512q0 -72 12.5 -138.5t32.5 -117.5 q82 104 135.5 174t88.5 117t58.5 78.5t43.5 60.5q-27 37 -54.5 56.5t-52 28.5t-43 10t-26.5 1q-74 0 -113 -36.5t-57 -84t-21.5 -91.5t-3.5 -58zM446 174q8 -10 21.5 -25.5t33 -30t48.5 -24.5t67 -10q74 0 115 36t59.5 82t21.5 91t3 63q0 127 -41 242q-84 -104 -168 -211.5 t-160 -212.5z" />
<glyph unicode="&#xf9;" horiz-adv-x="1214" d="M39 772q0 25 4 30t33 13q25 6 76 19.5t105 26.5t100 22.5t63 9.5q18 0 21 -9.5t3 -17.5q0 -16 -1 -35.5t-5 -82.5q-4 -66 -4 -152v-152q0 -72 4 -129t20.5 -99t48.5 -64.5t87 -22.5q18 0 46 3t54.5 9t45 14.5t22.5 20.5q2 8 3 37t1 72v96v106v131q0 37 -2 63t-11.5 43 t-30 24.5t-56.5 7.5q-47 0 -57.5 4t-10.5 33t6 37t47 12q27 2 66 7t80 11t77.5 11.5t61.5 9.5q35 6 57.5 10t32.5 4q20 0 21 -27q0 -6 -1.5 -29.5t-3.5 -49t-4 -50t-2 -34.5q-2 -35 -4 -91.5t-3 -123t-2 -136t-1 -127.5q0 -49 13.5 -67.5t45.5 -18.5q6 0 20.5 2t32 4.5 t32 4.5t20.5 2q18 0 18 -35q0 -29 -3 -35t-19 -12q-53 -16 -117.5 -32.5t-123 -29t-101.5 -20.5t-53 -8q-23 0 -27 15t-4 34v22q0 12 2 35q-29 -14 -70 -33.5t-88 -37t-97 -30t-97 -12.5q-23 0 -53.5 6.5t-61.5 20.5t-58.5 40t-43.5 64q-16 35 -20.5 82.5t-4.5 137.5l2 297 q0 37 -4 58t-14.5 31.5t-29 13.5t-48.5 3q-23 0 -29 5t-6 38zM252 1284q0 16 11 26.5t50 18.5q47 12 87.5 18.5t48.5 6.5q16 0 32.5 -15.5t59.5 -74.5q18 -25 39.5 -55.5t45 -62.5t45 -61.5t40.5 -54.5q0 -2 10 -15.5t10 -15.5q0 -4 -16 -4h-23q-18 0 -30.5 1t-24.5 6.5 t-28.5 15.5t-43.5 29q-16 12 -61 40.5t-93.5 60.5t-87 57.5t-42.5 29.5q-29 27 -29 49z" />
<glyph unicode="&#xfa;" horiz-adv-x="1214" d="M39 772q0 25 4 30t33 13q25 6 76 19.5t105 26.5t100 22.5t63 9.5q18 0 21 -9.5t3 -17.5q0 -16 -1 -35.5t-5 -82.5q-4 -66 -4 -152v-152q0 -72 4 -129t20.5 -99t48.5 -64.5t87 -22.5q18 0 46 3t54.5 9t45 14.5t22.5 20.5q2 8 3 37t1 72v96v106v131q0 37 -2 63t-11.5 43 t-30 24.5t-56.5 7.5q-47 0 -57.5 4t-10.5 33t6 37t47 12q27 2 66 7t80 11t77.5 11.5t61.5 9.5q35 6 57.5 10t32.5 4q20 0 21 -27q0 -6 -1.5 -29.5t-3.5 -49t-4 -50t-2 -34.5q-2 -35 -4 -91.5t-3 -123t-2 -136t-1 -127.5q0 -49 13.5 -67.5t45.5 -18.5q6 0 20.5 2t32 4.5 t32 4.5t20.5 2q18 0 18 -35q0 -29 -3 -35t-19 -12q-53 -16 -117.5 -32.5t-123 -29t-101.5 -20.5t-53 -8q-23 0 -27 15t-4 34v22q0 12 2 35q-29 -14 -70 -33.5t-88 -37t-97 -30t-97 -12.5q-23 0 -53.5 6.5t-61.5 20.5t-58.5 40t-43.5 64q-16 35 -20.5 82.5t-4.5 137.5l2 297 q0 37 -4 58t-14.5 31.5t-29 13.5t-48.5 3q-23 0 -29 5t-6 38zM479 999l31 44t72 99.5t78.5 109t54.5 73.5q16 20 27.5 24.5t21.5 4.5q6 0 28.5 -4t50 -9.5t53.5 -11.5t36 -10q27 -8 26 -35q0 -27 -23.5 -45t-55.5 -41q-18 -12 -67.5 -44t-102 -65.5t-93.5 -60.5t-43 -27 q-10 -4 -19 -5t-38 -1h-22t-15 4z" />
<glyph unicode="&#xfb;" horiz-adv-x="1214" d="M39 772q0 25 4 30t33 13q25 6 76 19.5t105 26.5t100 22.5t63 9.5q18 0 21 -9.5t3 -17.5q0 -16 -1 -35.5t-5 -82.5q-4 -66 -4 -152v-152q0 -72 4 -129t20.5 -99t48.5 -64.5t87 -22.5q18 0 46 3t54.5 9t45 14.5t22.5 20.5q2 8 3 37t1 72v96v106v131q0 37 -2 63t-11.5 43 t-30 24.5t-56.5 7.5q-47 0 -57.5 4t-10.5 33t6 37t47 12q27 2 66 7t80 11t77.5 11.5t61.5 9.5q35 6 57.5 10t32.5 4q20 0 21 -27q0 -6 -1.5 -29.5t-3.5 -49t-4 -50t-2 -34.5q-2 -35 -4 -91.5t-3 -123t-2 -136t-1 -127.5q0 -49 13.5 -67.5t45.5 -18.5q6 0 20.5 2t32 4.5 t32 4.5t20.5 2q18 0 18 -35q0 -29 -3 -35t-19 -12q-53 -16 -117.5 -32.5t-123 -29t-101.5 -20.5t-53 -8q-23 0 -27 15t-4 34v22q0 12 2 35q-29 -14 -70 -33.5t-88 -37t-97 -30t-97 -12.5q-23 0 -53.5 6.5t-61.5 20.5t-58.5 40t-43.5 64q-16 35 -20.5 82.5t-4.5 137.5l2 297 q0 37 -4 58t-14.5 31.5t-29 13.5t-48.5 3q-23 0 -29 5t-6 38zM326 1001q0 2 6 10.5t13 18.5t14.5 19.5t11.5 13.5q12 14 38.5 52t55.5 79t55.5 78t36.5 51q8 10 21.5 20.5t33.5 10.5q12 0 21.5 -3t22 -16.5t32 -41t51.5 -79.5q29 -47 63 -92t52 -69q23 -29 28 -35t5 -10 q0 -10 -18.5 -28.5t-26.5 -18.5t-39 22.5t-68 52t-72 59.5t-51 46q-16 -14 -53 -45t-77 -61.5t-72.5 -53.5t-38.5 -23q-12 0 -28.5 16.5t-16.5 26.5z" />
<glyph unicode="&#xfc;" horiz-adv-x="1214" d="M39 772q0 25 4 30t33 13q25 6 76 19.5t105 26.5t100 22.5t63 9.5q18 0 21 -9.5t3 -17.5q0 -16 -1 -35.5t-5 -82.5q-4 -66 -4 -152v-152q0 -72 4 -129t20.5 -99t48.5 -64.5t87 -22.5q18 0 46 3t54.5 9t45 14.5t22.5 20.5q2 8 3 37t1 72v96v106v131q0 37 -2 63t-11.5 43 t-30 24.5t-56.5 7.5q-47 0 -57.5 4t-10.5 33t6 37t47 12q27 2 66 7t80 11t77.5 11.5t61.5 9.5q35 6 57.5 10t32.5 4q20 0 21 -27q0 -6 -1.5 -29.5t-3.5 -49t-4 -50t-2 -34.5q-2 -35 -4 -91.5t-3 -123t-2 -136t-1 -127.5q0 -49 13.5 -67.5t45.5 -18.5q6 0 20.5 2t32 4.5 t32 4.5t20.5 2q18 0 18 -35q0 -29 -3 -35t-19 -12q-53 -16 -117.5 -32.5t-123 -29t-101.5 -20.5t-53 -8q-23 0 -27 15t-4 34v22q0 12 2 35q-29 -14 -70 -33.5t-88 -37t-97 -30t-97 -12.5q-23 0 -53.5 6.5t-61.5 20.5t-58.5 40t-43.5 64q-16 35 -20.5 82.5t-4.5 137.5l2 297 q0 37 -4 58t-14.5 31.5t-29 13.5t-48.5 3q-23 0 -29 5t-6 38zM295 1135q0 51 42 85.5t89 34.5t82 -37.5t35 -84.5q0 -51 -38 -86t-83 -35q-47 0 -87 36.5t-40 86.5zM672 1135q0 53 42 86.5t87 33.5q47 0 82 -36.5t35 -85.5t-38 -85t-83 -36q-47 0 -86 35.5t-39 87.5z" />
<glyph unicode="&#xfd;" horiz-adv-x="985" d="M-18 821q0 33 8 38t24 5q14 0 31.5 -1t42.5 -1t60.5 -1t84.5 -1q90 0 149.5 2t80.5 2q18 0 21 -7t3 -30q0 -31 -3 -37t-25 -8q-39 -4 -59.5 -11t-20.5 -36q0 -10 5 -30.5t13.5 -44t16.5 -46t12 -34.5q35 -92 68.5 -182.5t62.5 -166.5l143 324q10 23 22.5 51.5t23 55 t17.5 47t7 30.5q0 20 -16.5 26.5t-79.5 16.5q-18 4 -23.5 8.5t-5.5 30.5q0 31 6 37t19 6q49 0 97 -2t83 -2q14 0 35.5 1t42.5 1q23 0 41 1t28 1q20 0 23.5 -8t3.5 -37q0 -23 -6 -30t-35 -19q-29 -14 -51.5 -47t-59.5 -98q-123 -215 -241.5 -446.5t-241.5 -506.5 q-31 -66 -53.5 -109.5t-48 -70.5t-58 -38t-84.5 -11q-10 0 -25.5 1t-30.5 7t-25.5 18.5t-10.5 36.5q0 41 21.5 60.5t77.5 48.5q39 20 83 73.5t80.5 111t60 102.5t23.5 51q0 4 -7 23.5t-16 43t-18.5 45t-13.5 31.5q-35 84 -61.5 147.5t-50 122t-49 122t-58.5 149.5 q-35 84 -59.5 109.5t-49.5 29.5q-20 4 -27 10.5t-7 34.5zM367 999l31 44q30 44 70 99.5t79 109t55 73.5t27.5 24.5t19.5 4.5q6 0 29.5 -4t50.5 -9.5t52.5 -11.5t35.5 -10q29 -10 29 -35q0 -27 -23.5 -45t-58.5 -41l-303 -197q-10 -4 -19.5 -5t-40.5 -1h-22q-12 0 -12 4z" />
<glyph unicode="&#xfe;" horiz-adv-x="1214" d="M39 -514q0 25 8 32t43 11q27 4 46.5 14.5t30.5 34t16 62t5 100.5v430v121v194q0 111 -1 230t-1 221t-1 173t-3 85q-4 47 -30.5 58.5t-85.5 21.5q-27 2 -27 33q0 27 9 35t46 18q156 45 231.5 68.5t100.5 23.5q23 0 34 -4t11 -27q0 -12 -4 -36.5t-9 -89t-9.5 -181.5 t-4.5 -315q80 39 163 63.5t171 24.5q72 0 137.5 -29t114.5 -81t79 -128t30 -170q0 -82 -31 -169t-96.5 -158.5t-169 -117.5t-248.5 -46q-53 0 -87 5t-69 11q2 -131 3 -234.5t5 -138.5q2 -25 7.5 -44t18.5 -31.5t39 -18.5t69 -6q29 0 36 -5t7 -38q0 -23 -3.5 -32t-25.5 -9 q-27 0 -87.5 2t-152.5 2q-45 0 -91 -1t-87 -1t-70.5 -1t-42.5 -1q-18 0 -21 8t-3 31zM438 246q0 -16 4 -26.5t19 -20.5q23 -16 52.5 -25.5t59 -14.5t56 -7t43.5 -2q86 0 143 55t57 184q0 10 -2 39t-9 66.5t-24.5 78.5t-47 76t-75.5 57.5t-114 22.5q-57 0 -92 -11.5 t-64 -23.5q0 -18 -1 -61t-2 -103.5t-2 -134t-1 -149.5z" />
<glyph unicode="&#xff;" horiz-adv-x="985" d="M-18 821q0 33 8 38t24 5q14 0 31.5 -1t42.5 -1t60.5 -1t84.5 -1q90 0 149.5 2t80.5 2q18 0 21 -7t3 -30q0 -31 -3 -37t-25 -8q-39 -4 -59.5 -11t-20.5 -36q0 -10 5 -30.5t13.5 -44t16.5 -46t12 -34.5q35 -92 68.5 -182.5t62.5 -166.5l143 324q10 23 22.5 51.5t23 55 t17.5 47t7 30.5q0 20 -16.5 26.5t-79.5 16.5q-18 4 -23.5 8.5t-5.5 30.5q0 31 6 37t19 6q49 0 97 -2t83 -2q14 0 35.5 1t42.5 1q23 0 41 1t28 1q20 0 23.5 -8t3.5 -37q0 -23 -6 -30t-35 -19q-29 -14 -51.5 -47t-59.5 -98q-123 -215 -241.5 -446.5t-241.5 -506.5 q-31 -66 -53.5 -109.5t-48 -70.5t-58 -38t-84.5 -11q-10 0 -25.5 1t-30.5 7t-25.5 18.5t-10.5 36.5q0 41 21.5 60.5t77.5 48.5q39 20 83 73.5t80.5 111t60 102.5t23.5 51q0 4 -7 23.5t-16 43t-18.5 45t-13.5 31.5q-35 84 -61.5 147.5t-50 122t-49 122t-58.5 149.5 q-35 84 -59.5 109.5t-49.5 29.5q-20 4 -27 10.5t-7 34.5zM227 1135q0 53 43 86.5t88 33.5q47 0 82 -36.5t35 -85.5t-38 -85t-83 -36q-47 0 -87 35.5t-40 87.5zM602 1135q0 51 42 85.5t89 34.5t82 -36.5t35 -85.5q0 -51 -38 -86t-83 -35q-47 0 -87 36.5t-40 86.5z" />
<glyph unicode="&#x152;" horiz-adv-x="2160" d="M88 639q0 145 49 271t145.5 218.5t238 145.5t325.5 53q35 0 98.5 -6t167.5 -16q23 -2 45.5 -4.5t51 -3.5t63.5 -1h86h55q37 0 82 1t97.5 2t105.5 1h104q53 0 98.5 1.5t77.5 1.5h54q16 0 19 -4.5t3 -12.5q0 -6 -3 -37.5t-7 -77t-8 -96.5t-8 -94q-2 -12 -10.5 -16t-39.5 -4 q-29 0 -35 6t-8 26q-6 55 -17 92t-34.5 59.5t-65.5 33t-112 14.5q-66 4 -94.5 3t-57.5 -1q-63 0 -97 -3t-49 -15.5t-18.5 -36t-3.5 -64.5v-348q150 0 236 3t129 15.5t55.5 34t18.5 58.5q2 20 5 31.5t8 16.5t14.5 6t25.5 1q29 0 35 -5t6 -20q0 -10 -1 -34.5t-1 -51.5t-1 -51 t-1 -33q0 -12 1 -44.5t1 -69.5t1 -69t1 -44q0 -20 -5 -25.5t-34 -5.5t-36 3t-9 22q-8 55 -20.5 88t-61.5 47q-29 8 -61.5 12t-75.5 6.5t-100 2.5h-132v-93q0 -61 1 -129.5t2.5 -128t5.5 -80.5q2 -18 9 -31.5t25.5 -23.5t50 -15t85.5 -5q113 0 182.5 9t113.5 32.5t69.5 66.5 t51.5 111q14 35 19.5 44t19.5 9q10 0 29.5 -6t24.5 -8q16 -6 16 -23q0 -6 -5 -33.5t-13.5 -65.5t-18.5 -80t-20 -77t-16.5 -54.5t-12.5 -28.5t-15.5 -10t-25.5 -1h-754q-37 0 -61.5 -1t-50 -2t-61.5 -5t-93 -10q-20 -2 -55 -4.5t-84 -2.5q-172 0 -279.5 38t-179.5 87 q-86 61 -137 137t-77 152t-34 141.5t-8 108.5zM399 711q0 -49 5.5 -116t23.5 -135.5t50 -135t87.5 -119.5t134 -85t189.5 -32q66 0 120 17.5t70 76.5q6 25 10.5 97.5t6.5 158.5t3 166t1 117v162q0 68 -2 112.5t-4 72.5t-9 46q-10 35 -41.5 54.5t-68.5 29.5t-73 12t-56 2 q-90 0 -166 -22.5t-135 -71.5q-49 -43 -78 -99t-44 -113.5t-19.5 -109.5t-4.5 -85z" />
<glyph unicode="&#x153;" horiz-adv-x="1705" d="M76 428q0 123 48 210t121.5 142.5t163 81t173.5 25.5q74 0 130 -13.5t101 -33t77 -44t56 -46.5q20 23 50 47t70 43.5t91 33t117 13.5q92 0 158.5 -24.5t110.5 -64.5t67.5 -88t31.5 -94q2 -14 5.5 -17t15.5 -7q4 -4 5 -15.5t1 -15.5q0 -23 -1 -36t-5 -20t-13.5 -10 t-27.5 -6q-12 -2 -45 -6t-72 -10t-74.5 -12t-54.5 -8q-37 -6 -64.5 -9.5t-56 -8.5t-63.5 -11t-90 -14q4 -23 17.5 -68t42 -90t78.5 -80t128 -35q33 0 89 12.5t130 61.5h17l20 -37q2 -2 7 -12t5 -15q0 -4 -35.5 -31.5t-93 -58t-129 -56.5t-145.5 -26q-63 0 -113.5 15.5 t-87.5 37t-62.5 44t-39.5 39.5q-18 -14 -50 -38t-79 -45.5t-109.5 -37t-142.5 -15.5q-131 0 -221 42t-146.5 107.5t-81 145.5t-24.5 158zM371 477q0 -100 23.5 -174t61.5 -121t83 -70.5t88 -23.5q47 0 84 24.5t61.5 65.5t37.5 95.5t13 113.5q0 74 -17.5 143.5t-49 124 t-78.5 87t-107 32.5q-82 0 -141 -78t-59 -219zM1096 504q8 2 40.5 8t69.5 14.5t69 14.5t38 8q35 8 46 15t11 30q0 16 -8 49t-19 57q-4 8 -11 22.5t-20.5 28t-34 23.5t-46.5 10q-55 0 -83 -32.5t-40 -76.5t-12 -93v-78z" />
<glyph unicode="&#x178;" horiz-adv-x="1327" d="M-18 1264q0 23 4 31t12 8q27 0 95.5 -2.5t170.5 -2.5q41 0 85 1t81 1t64.5 1.5t37.5 1.5q20 0 28.5 -5.5t8.5 -27.5q0 -29 -6 -40t-35 -11q-20 0 -44.5 -4.5t-24.5 -32.5q0 -23 18.5 -60t32.5 -61q14 -25 30.5 -50.5t41 -66.5t63.5 -102.5t98 -155.5l230 352q37 59 50 87 t13 44q0 31 -28.5 38t-57.5 10q-33 4 -40 7t-7 25q0 33 4 43.5t23 10.5q35 0 83 -2.5t126 -2.5q66 0 121 2.5t77 2.5q12 0 15.5 -8.5t3.5 -22.5q0 -29 -3 -39t-20 -14q-25 -8 -47 -19.5t-62 -52.5t-104.5 -124t-171.5 -230q-10 -16 -33.5 -48t-47 -66t-43 -61.5t-21.5 -33.5 q-4 -6 -4 -35v-70v-71q0 -47 1 -98.5t4 -96.5t7 -63q12 -53 53 -63.5t111 -10.5q10 0 12 -9.5t2 -31.5q0 -23 -3 -30t-19 -7q-39 0 -123 2t-174 2q-29 0 -76 -1t-96 -1t-95.5 -1t-72.5 -1q-10 0 -11 45q0 23 7.5 28t38.5 9q57 6 87.5 17.5t45 50t16.5 118.5t2 221 q0 18 -1 30.5t-6 27t-15.5 32t-28.5 46.5q-78 127 -158 249.5t-170 243.5q-25 35 -41 54.5t-30.5 29.5t-30 14.5t-39.5 10.5q-10 2 -12 9t-2 30zM346 1573q0 27 11.5 49.5t30 39.5t40.5 26.5t45 9.5q20 0 42 -10.5t40 -26.5t29.5 -39t11.5 -49q0 -27 -12.5 -49.5t-30.5 -39 t-39.5 -25.5t-42.5 -9q-20 0 -42.5 9t-41 25.5t-30 39t-11.5 49.5zM788 1573q0 27 11.5 49.5t30 39.5t40.5 26.5t45 9.5q43 0 83 -37t40 -88q0 -27 -11 -49.5t-29.5 -39t-41 -25.5t-43.5 -9q-20 0 -42.5 9t-41 25.5t-30 39t-11.5 49.5z" />
<glyph unicode="&#x2c6;" horiz-adv-x="1024" d="M231 1001q0 2 6.5 10.5t13.5 18.5t14 19.5t11 13.5q12 14 39 52t55.5 79t55.5 78t37 51q8 10 21.5 20.5t31.5 10.5q14 0 23.5 -3t21.5 -16.5t30.5 -41t51.5 -79.5q31 -47 64.5 -92t52.5 -69q23 -29 28 -35t5 -10q0 -10 -18.5 -28.5t-26.5 -18.5t-39 22.5t-68 52t-73 59.5 t-52 46q-16 -14 -53 -45t-77 -61.5t-72.5 -53.5t-39.5 -23q-10 0 -26.5 16.5t-16.5 26.5z" />
<glyph unicode="&#x2dc;" horiz-adv-x="1024" d="M176 1083q0 2 5 13.5t12.5 25t16.5 28.5t15 26q12 18 29.5 41.5t40 45t51.5 37t64 15.5q41 0 74.5 -18.5t70.5 -43.5q55 -37 79.5 -44t41.5 -7q29 0 50.5 13.5t43.5 41.5q4 4 13.5 19.5t13.5 15.5q2 0 10 -5t17.5 -11t16.5 -13.5t7 -11.5t-13.5 -30.5t-31.5 -57.5 q-53 -86 -93 -114.5t-85 -28.5q-39 0 -72 16.5t-74 42.5q-35 20 -55.5 33.5t-33.5 20t-21.5 8.5t-18.5 2q-31 0 -53.5 -23.5t-36.5 -46.5l-13 -19.5t-14 -13.5q-2 0 -11 5.5t-19 12.5t-18.5 14t-8.5 11z" />
<glyph unicode="&#x2000;" horiz-adv-x="920" />
<glyph unicode="&#x2001;" horiz-adv-x="1841" />
<glyph unicode="&#x2002;" horiz-adv-x="920" />
<glyph unicode="&#x2003;" horiz-adv-x="1841" />
<glyph unicode="&#x2004;" horiz-adv-x="613" />
<glyph unicode="&#x2005;" horiz-adv-x="460" />
<glyph unicode="&#x2006;" horiz-adv-x="306" />
<glyph unicode="&#x2007;" horiz-adv-x="306" />
<glyph unicode="&#x2008;" horiz-adv-x="230" />
<glyph unicode="&#x2009;" horiz-adv-x="368" />
<glyph unicode="&#x200a;" horiz-adv-x="102" />
<glyph unicode="&#x2010;" horiz-adv-x="645" d="M82 365v190h481v-190h-481z" />
<glyph unicode="&#x2011;" horiz-adv-x="645" d="M82 365v190h481v-190h-481z" />
<glyph unicode="&#x2012;" horiz-adv-x="645" d="M82 365v190h481v-190h-481z" />
<glyph unicode="&#x2013;" d="M82 391v137h897v-137h-897z" />
<glyph unicode="&#x2014;" horiz-adv-x="1630" d="M86 391v137h1458v-137h-1458z" />
<glyph unicode="&#x2018;" horiz-adv-x="569" d="M70 999q0 115 52 189t118.5 116t130 57t88.5 15q12 0 23.5 -6t45.5 -29l-4 -10q-35 -12 -82 -31.5t-90 -50t-72.5 -72.5t-29.5 -100q0 -29 11 -55.5t40 -36.5q57 -23 88 -43t31 -78q0 -43 -32 -82t-101 -39q-47 0 -86 20.5t-69 55.5t-46 81t-16 99z" />
<glyph unicode="&#x2019;" horiz-adv-x="569" d="M41 766l4 10q33 12 80 31.5t90 50.5t72.5 73t29.5 99q0 6 -1 18.5t-5 27t-14 27.5t-29 19q-55 23 -86.5 43.5t-31.5 79.5q0 41 31.5 80t101.5 39q45 0 85 -19.5t68.5 -54.5t45 -82t16.5 -100q0 -78 -24.5 -135.5t-62.5 -99.5t-84 -69.5t-89 -44t-78 -22.5t-49 -6 q-12 0 -23.5 6t-46.5 29z" />
<glyph unicode="&#x201a;" horiz-adv-x="569" d="M41 -338l4 10q33 12 80 32t90 50.5t72.5 72.5t29.5 99q0 6 -1 18.5t-5 27t-14 27.5t-29 21q-55 20 -86.5 42t-31.5 79q0 41 31.5 81t101.5 40q45 0 85 -20.5t68.5 -55t45 -82t16.5 -100.5q0 -76 -24.5 -134t-62.5 -99t-83 -69t-88 -44t-78 -22.5t-51 -6.5 q-12 0 -23.5 5.5t-46.5 27.5z" />
<glyph unicode="&#x201c;" horiz-adv-x="1024" d="M70 999q0 115 52 189t118.5 116t130 57t88.5 15q12 0 23.5 -6t45.5 -29l-4 -10q-35 -12 -82 -31.5t-90 -50t-72.5 -72.5t-29.5 -100q0 -29 11 -55.5t40 -36.5q57 -23 88 -43t31 -78q0 -43 -32 -82t-101 -39q-47 0 -86 20.5t-69 55.5t-46 81t-16 99zM526 999 q0 76 24.5 134.5t62.5 100.5t83 69.5t88 44t78 22.5t51 6q12 0 23.5 -6t46.5 -29l-4 -10q-33 -12 -80 -30.5t-90 -49t-73.5 -72.5t-30.5 -100q0 -25 9 -53.5t44 -40.5q57 -23 86.5 -43t29.5 -80q0 -43 -32.5 -81t-100.5 -38q-45 0 -84 19.5t-68.5 54.5t-46 82t-16.5 100z " />
<glyph unicode="&#x201d;" horiz-adv-x="1024" d="M41 766l4 10q33 12 80 31.5t90 50.5t72.5 73t29.5 99q0 6 -1 18.5t-5 27t-14 27.5t-29 19q-55 23 -86.5 43.5t-31.5 79.5q0 41 31.5 80t101.5 39q45 0 85 -19.5t68.5 -54.5t45 -82t16.5 -100q0 -78 -24.5 -135.5t-62.5 -99.5t-84 -69.5t-89 -44t-78 -22.5t-49 -6 q-12 0 -23.5 6t-46.5 29zM496 766l4 10q33 12 80 31.5t90 49.5t73.5 73t30.5 100q0 4 -1 16.5t-5 26.5t-15.5 28.5t-29.5 20.5q-57 23 -88 43.5t-31 79.5q0 43 33 81t100 38q45 0 85 -19.5t69 -54.5t46 -82t17 -100q0 -117 -52 -189.5t-119.5 -114.5t-131 -57.5t-86.5 -15.5 q-12 0 -23.5 6t-45.5 29z" />
<glyph unicode="&#x201e;" horiz-adv-x="1024" d="M41 -338l4 10q33 12 80 32t90 50.5t72.5 72.5t29.5 99q0 6 -1 18.5t-5 27t-14 27.5t-29 21q-55 20 -86.5 42t-31.5 79q0 41 31.5 81t101.5 40q45 0 85 -20.5t68.5 -55t45 -82t16.5 -100.5q0 -76 -24.5 -134t-62.5 -99t-83 -69t-88 -44t-78 -22.5t-51 -6.5 q-12 0 -23.5 5.5t-46.5 27.5zM496 -338l4 10q33 12 80 32t90 50.5t73.5 72.5t30.5 99q0 4 -1 16.5t-5 28t-15.5 28.5t-29.5 21q-57 23 -88 43.5t-31 77.5q0 43 33 82t100 39q45 0 85 -20.5t69 -55t46 -82t17 -100.5q0 -115 -52 -188.5t-118.5 -114.5t-130 -56.5t-88.5 -15.5 q-12 0 -23.5 5.5t-45.5 27.5z" />
<glyph unicode="&#x2022;" horiz-adv-x="360" d="M0 655q0 33 17.5 66t44 59.5t59.5 44t65 17.5q31 0 62 -17.5t56.5 -45t40.5 -60.5t15 -64q0 -35 -17 -66.5t-45 -56t-59.5 -39t-58.5 -14.5q-31 0 -63.5 16.5t-58 41t-42 56t-16.5 62.5z" />
<glyph unicode="&#x2026;" horiz-adv-x="1593" d="M102 137q0 29 15.5 58.5t40 54t54.5 40t58 15.5q29 0 57.5 -16.5t51 -41t37 -54t14.5 -56.5q0 -31 -16.5 -60.5t-41 -51t-53 -35t-53.5 -13.5q-29 0 -58.5 14.5t-53 37t-38 51t-14.5 57.5zM633 137q0 29 15.5 58.5t40 54t54 40t60.5 15.5q27 0 55.5 -16.5t51 -41t37 -54 t14.5 -56.5q0 -31 -16.5 -59.5t-41 -51t-53.5 -36t-53 -13.5q-29 0 -57.5 14.5t-52 37t-39 51t-15.5 57.5zM1163 137q0 29 15.5 58.5t40 54t55.5 40t59 15.5q27 0 55.5 -16.5t51 -41t37 -54t14.5 -56.5q0 -31 -16.5 -60.5t-41 -51t-53 -35t-53.5 -13.5q-29 0 -57.5 14.5 t-52 37t-39 51t-15.5 57.5z" />
<glyph unicode="&#x202f;" horiz-adv-x="368" />
<glyph unicode="&#x2039;" horiz-adv-x="645" d="M53 449q0 8 4 17t25 21q45 31 79 55.5t71.5 53.5t83.5 67.5t116 100.5q16 14 38 34.5t38 35.5q4 2 7 4t7 2t15.5 -5.5t23.5 -12.5t21.5 -15t9.5 -16t-61.5 -98t-196.5 -244q31 -33 75 -88.5t85 -110.5t69.5 -98t28.5 -52q0 -8 -8.5 -15t-19.5 -13t-21.5 -10.5t-14.5 -4.5 q-10 0 -26.5 14.5t-26.5 22.5q-92 86 -190.5 161t-200.5 146q-20 14 -25.5 25.5t-5.5 22.5z" />
<glyph unicode="&#x203a;" horiz-adv-x="645" d="M53 104q0 10 62.5 100t195.5 242q-31 33 -74.5 88.5t-84.5 110.5t-70 99t-29 53q0 8 9.5 16t21.5 14.5t22 9.5l11 3q10 0 26.5 -14.5t26.5 -22.5q92 -86 189.5 -162t201.5 -147q18 -12 24.5 -22.5t6.5 -22.5q0 -8 -4 -17.5t-25 -23.5q-49 -33 -84 -56.5t-70.5 -51.5 t-80.5 -66.5t-117 -100.5q-16 -14 -36.5 -34.5t-37.5 -35.5q-4 -2 -7 -4t-7 -2t-15.5 5.5t-23.5 12.5t-21.5 15t-9.5 14z" />
<glyph unicode="&#x205f;" horiz-adv-x="460" />
<glyph unicode="&#x20ac;" horiz-adv-x="1081" d="M2 518l18 72h136q-2 16 -2 35v37q0 12 1 24t3 27v43h-156l18 71h148q20 119 70.5 213.5t121 160t157.5 99t183 33.5q51 0 97.5 -8t86.5 -18.5t73.5 -19.5t62.5 -11v-279l-62 -2q-20 78 -40.5 126t-48 76t-63.5 37t-87 9q-133 0 -216 -102.5t-106 -313.5h490l-21 -71h-473 q-2 -16 -2 -33v-35v-49q0 -25 4 -49h424l-20 -72h-393q14 -90 41.5 -171t67.5 -142.5t93.5 -98t118.5 -36.5q90 0 145.5 63.5t96.5 212.5l67 -10l-47 -293q-53 -33 -134 -50.5t-153 -17.5q-102 0 -191 38t-160.5 109t-120 171t-66.5 225h-162z" />
<glyph unicode="&#x2122;" horiz-adv-x="1744" d="M39 1135q0 6 3 26.5t7 44t8 45t4 29.5q4 23 7.5 30t19.5 7q4 0 21.5 -5t23.5 -5q16 -2 44 -3t52 -1h45h21h102h66q29 0 51.5 1t52.5 1q29 0 64 2t49 8q18 2 25.5 0t7.5 -12q0 -2 -4 -21.5t-9.5 -42t-9.5 -44t-6 -30.5q-8 -31 -12 -38t-25 -7q-27 0 -31 3t-4 22 q-2 45 -3 55t-9 14q-6 4 -24.5 6.5t-41 4.5t-44 3t-33.5 1v-254t1 -144.5t4 -68t7 -23.5l7 -7t11.5 -5t23.5 -4t44 -2q12 0 15 -5t3 -18q0 -20 -3 -23t-13 -3h-57h-82h-82h-53l-90 -2q-16 2 -17 20q0 23 3 27t20 6q29 2 46 5t26.5 13.5t13.5 32t4 57.5q2 106 2 199 q0 92 -4 199q-59 -2 -92 -5t-49.5 -11.5t-23.5 -22.5t-13 -37t-12.5 -28t-28.5 -5q-29 0 -29 15zM739 705q0 10 5.5 12t27.5 6q20 2 34.5 6t24 16.5t14.5 38t7 70.5q2 47 5 100.5t5 101.5t3 81.5t1 40.5q0 47 -13 58t-52 15q-25 2 -30 4t-5 17q0 20 4 25.5t21 5.5h229 q16 0 21.5 -7.5t19.5 -38.5q45 -113 85 -198.5t87 -184.5q2 6 17.5 36t34 65t34.5 68.5t22 46.5q8 16 18.5 39.5t21 48t20.5 48t16 42.5q8 23 12.5 29t18.5 6l135 -3l86 3q10 0 14.5 -4.5t4.5 -20.5q0 -20 -6.5 -23.5t-32.5 -7.5q-18 -2 -29.5 -6t-16 -15.5t-5.5 -33 t-1 -55.5v-76q0 -57 1 -123t2.5 -121t5.5 -63q4 -16 14 -23.5t45 -9.5q23 0 26 -3t3 -22q0 -18 -3 -21t-14 -3l-164 2l-159 -2q-16 0 -18.5 3t-2.5 19q0 18 3 21.5t26 7.5q25 2 39 5t22.5 14.5t10.5 33t2 58.5v61v92t1 92t1 60q-6 -16 -20.5 -48t-34 -72t-40 -83t-40 -82 t-34 -69.5t-20.5 -45.5q-6 -14 -13 -29.5t-13 -19.5l-11 -3q-10 -3 -21 -6t-20.5 -5t-11.5 -2q-8 0 -12 8t-19 43q-4 8 -14 31.5t-20.5 48t-19.5 47t-13 31.5q-33 74 -52.5 117.5t-30.5 71.5t-18.5 44.5t-13.5 34.5v-84v-123q0 -63 2 -118.5t8 -73.5q8 -20 24.5 -23.5 t51.5 -5.5q18 -2 21.5 -6t3.5 -12q0 -25 -3 -29t-20 -4h-41h-59h-60h-36h-19h-31h-28t-15 2q-6 4 -6 31z" />
<glyph unicode="&#x25fc;" horiz-adv-x="860" d="M0 0v860h860v-860h-860z" />
<glyph unicode="&#xfb01;" horiz-adv-x="1290" d="M49 37q0 25 2 33t17 10q39 4 61.5 11t34.5 25.5t17 55.5t7 102q2 61 3.5 131t2.5 134.5t1 115.5v78h-111q-16 -2 -18.5 3t-2.5 26q0 31 3.5 39t13.5 12q6 2 23.5 8t36 13.5t34.5 13.5t23 10q0 47 1 95t11 96.5t34.5 97.5t69.5 102q70 80 179.5 140.5t250.5 60.5 q59 0 114.5 -12.5t98.5 -35t69 -58t26 -80.5q0 -27 -14.5 -50.5t-36 -40t-47 -26.5t-46.5 -10q-39 0 -58.5 18.5t-45.5 52.5q-29 35 -66 57.5t-96 22.5q-66 0 -102.5 -25.5t-53 -61.5t-20.5 -72.5t-4 -61.5q-2 -59 -1 -117.5t1 -85.5q137 0 221 1t135 3t80 5.5t57 7.5 q8 0 30 4t44.5 9t43 8t28.5 3q4 0 15 -3t11 -19q0 -4 -2 -22.5t-4 -41t-4 -43t-2 -28.5q-2 -20 -3 -46t-2 -83.5t-1 -161.5v-277q0 -25 4 -42t17.5 -29.5t40 -18.5t71.5 -8q29 -2 34 -10.5t5 -28.5q0 -33 -8 -40t-29 -7q-35 0 -67.5 1t-63.5 3q-31 0 -62.5 1t-66.5 1 q-53 0 -93 -1t-69 -1q-29 -2 -49 -3t-35 -1q-20 0 -24 7t-4 36q0 27 4 34t30 11q57 14 74 46t23 75q2 18 3 56t2 80t1 81v61q0 78 -2 125t-13.5 73t-35 36t-68.5 12q-31 2 -73 3t-83 1h-71h-41v-67v-103q0 -55 -1 -116.5t0 -116t2 -95t3 -55.5q4 -35 13 -54.5t24.5 -28.5 t38 -11t53.5 -4q23 0 26 -6t3 -37q0 -29 -7.5 -36t-35.5 -7q-12 0 -32 1t-48 3q-29 0 -68 1t-92 1q-47 0 -91 -1t-79 -1q-35 -2 -59.5 -3t-34.5 -1q-16 0 -20.5 11t-4.5 30z" />
<glyph unicode="&#xfb02;" horiz-adv-x="1290" d="M49 37q0 25 2 33t17 10q39 4 61.5 11t34.5 25.5t17 55.5t7 102q2 61 3.5 131t2.5 134.5t1 115.5v78h-119q-12 0 -13 45q0 16 3.5 23.5t13.5 11.5l117 45q2 61 6 120.5t24.5 116t63.5 114t123 116.5q102 74 199.5 99.5t162.5 25.5q70 0 130.5 -15.5t97.5 -25.5 q12 10 41.5 28.5t52.5 18.5q25 0 24 -29l-12 -141q-2 -23 -3 -50.5t-2 -76.5t-2 -129t-1 -211q0 -102 1 -204.5t2 -191.5t4 -157.5t9 -101.5q4 -27 12.5 -42.5t23.5 -22.5t41 -11t62 -6q25 -2 32 -6t7 -33q0 -31 -7 -39t-19 -8q-16 0 -45 1t-64 3q-37 0 -81 1t-97 1 q-27 0 -65.5 -1t-79.5 -1q-39 -2 -71 -3t-46 -1q-16 0 -20.5 12t-4.5 35q0 27 8.5 33t38.5 12q59 14 71.5 53t14.5 92q4 156 5.5 310.5t1.5 310.5v64v81q0 43 -1 81t-4 61q-2 45 -19 74.5t-44 46t-58.5 22.5t-62.5 6q-70 0 -107.5 -24.5t-55 -76.5t-20.5 -132t-3 -191h239 q16 0 20.5 -4t4.5 -16v-43q0 -41 -1 -55.5t-9 -14.5h-256v-67v-103q0 -55 -1 -116.5t0 -116t2 -95t3 -55.5q4 -35 13 -54.5t25.5 -28.5t40 -11t56.5 -4q16 0 19.5 -8t3.5 -35q0 -20 -4.5 -31.5t-26.5 -11.5q-10 0 -45 1t-78 3q-41 0 -83 1t-69 1q-41 0 -78.5 -1t-70.5 -1 q-33 -2 -57.5 -3t-34.5 -1q-16 0 -20.5 6t-4.5 35z" />
</font>
</defs>
</svg>
